<svg xmlns="http://www.w3.org/2000/svg" width="155.72" height="174.56"><defs><style>.cls-1 { fill: #eaf8ff; fill-rule: evenodd; }</style></defs><path id="Forma_1" data-name="Forma 1" class="cls-1" d="M80.56 149.18a21.28 21.28 0 1 0-21.29-21.28 21.3 21.3 0 0 0 21.29 21.28zm.11-32.41c3.01.65 5.26-.61 7.24-2.71a3.273 3.273 0 0 1 3.51-.52 1.93 1.93 0 0 1 .32 3.03 4.228 4.228 0 0 1-2.02 1.21 17.85 17.85 0 0 0-5.51 2.41 6.673 6.673 0 0 1-.76.37 3.265 3.265 0 0 1-2.87-.62 3.07 3.07 0 0 1-.98-2.04c-.05-.73.25-1.3 1.07-1.13zM74 113.33a18.258 18.258 0 0 1 3.49 1.57 2.383 2.383 0 0 1 .7.8 2.23 2.23 0 0 1-.07 2.38 1.79 1.79 0 0 1-1.47.49 4.087 4.087 0 0 1-3.96-4.18c-.01-.93.45-1.36 1.31-1.06zm-8.76 18.94c1.53-1.31 3.23-2.45 4.67-3.84.84-.8 1.62-1.66 2.39-2.53a18.437 18.437 0 0 0 2.18-2.73 3.893 3.893 0 0 0-1.41.43c-.43.19-.86.37-1.3.52-2.27.82-4.01.05-4.82-2.07a2.385 2.385 0 0 1 .89-2.92c.93-.59 1.63-.15 2.35.5a3.61 3.61 0 0 0 3.92.57c.79-.3 1.54-.69 2.33-1.01a1.707 1.707 0 0 1 2.46.73c.39.6.59 1.33.95 1.96a2.184 2.184 0 0 0 .89.98 2.37 2.37 0 0 0 .93-.55 9.1 9.1 0 0 1 2.04-1.17 1.47 1.47 0 0 1 1.34.59 2.33 2.33 0 0 1-.29 1.76c-.59.92-.49 1.71.52 1.95a7.176 7.176 0 0 0 2.35.19 1.76 1.76 0 0 0 1.45-2.73c-.24-.49-.57-.94-.84-1.42-.52-.9-.24-1.5.79-1.4 2.56.24 4.91 1.85 3.91 5.13a4.764 4.764 0 0 1-3.49 3.22 16.047 16.047 0 0 1-1.95.4 3.205 3.205 0 0 0-2.54 2.62 4.562 4.562 0 0 1-.34.98c-.23.52.08 1.58.72 1.34a1.355 1.355 0 0 0 .5-1.1 8.49 8.49 0 0 1 .64-2.08 1.267 1.267 0 0 1 .99-.48 1.14 1.14 0 0 1 .73.67 3.655 3.655 0 0 1 .28 1.49c-.05.99.45 1.22 1.29 1.16a4.422 4.422 0 0 1 1.31.01 1.16 1.16 0 0 1 .81.57 1.285 1.285 0 0 1-.55.92 3.678 3.678 0 0 1-1.5.67 1.3 1.3 0 0 0-1.15 1.22 3.69 3.69 0 0 1-1.08 1.81c-.83.7-1.69.38-1.89-.85a1.448 1.448 0 0 0-1.9-1.42 1.928 1.928 0 0 1-.58-.05c-.32-.06-.82.81-.22 1.61a2.594 2.594 0 0 0 1.52.93 7.76 7.76 0 0 0 7.71-2.01 3.377 3.377 0 0 0-1.37-5.63 11.568 11.568 0 0 1-1.67-.52 1.26 1.26 0 0 1-.62-.89 1.547 1.547 0 0 1 .7-.7.713.713 0 0 1 .42-.11c1.71-.27 5.01 1.26 5.87 2.69a6.132 6.132 0 0 1-.64 6.35c-2.12 2.71-8.59 5.18-12.81 3.09a6.05 6.05 0 0 1-2.37-8.72 1.2 1.2 0 0 0 .17-.47.507.507 0 0 0-.39-.59c-.16-.03-.32-.07-.47-.11-.63-.19-1.26-.38-1.87-.63-.39-.15-.76-.31-1.14-.48-.63-.28-1.15-.52-1.16-.53a2.318 2.318 0 0 0 .54-1.16c.07-.7-1.28-.94-1.47-.34a1.175 1.175 0 0 0 .52.96 2.19 2.19 0 0 1 .2.25 3.176 3.176 0 0 0 .21.3 4.5 4.5 0 0 1 1.44 1.9 5.615 5.615 0 0 1 .33 2.34 6.52 6.52 0 0 1-.11.99 11.852 11.852 0 0 0 .04 4.89 2.225 2.225 0 0 1-1.24 2.48 1.98 1.98 0 0 1-2.38-.05 3.747 3.747 0 0 1-.84-3.67 8.576 8.576 0 0 0 .83-2.79 33.526 33.526 0 0 0-.53-4.99 1.03 1.03 0 0 0-.89-.32 11.03 11.03 0 0 0-1.54 1.05c-1.08.7-2.16 1.39-3.26 2.06a1.27 1.27 0 0 1-.72.22 1.633 1.633 0 0 1-1.04-.29 1.258 1.258 0 0 1 .25-1.15zm16.01-1.81c.62-1.09 1.63-.82 2.56-.85a1.86 1.86 0 0 0 .33-.04.322.322 0 0 0 .3-.23 4.7 4.7 0 0 0-1.4-.66 1.107 1.107 0 0 0-1.43.36 2.12 2.12 0 0 1-.81.41 1.747 1.747 0 0 0-.65.9.8.8 0 0 0 .25.5 1.47 1.47 0 0 0 .85-.39zm-59.08 41.59c.01 0 3.99 2.53 11.66 2.53a49.56 49.56 0 0 0 17.81-3.81c1.27-.49-1.3-7.39-1.67-8.13a19.216 19.216 0 0 0-9.53-8.8c-.81-.34-1.57-.65-2.27-.95a9.393 9.393 0 0 0-2.02-.54c-.62-.13-1.16-.25-1.6-.34-.91-.19-1.42-.3-1.42-.3l1.43-.03c.47-.02 1.03-.03 1.68-.05a9.635 9.635 0 0 1 2.18.08c8.95 2.12 17.97 6.9 20.25 16.62.15.62.27 1.16.38 1.61.03.13.04.19.07.3 5.83.51 15.95 1.31 21.44 1.31 3.71 0 7.41-.25 11.1-.51 2.34-.16 7.75.57 9.76-.73 1.14-.75 1.04-2.19 1.48-3.5a21.79 21.79 0 0 1 4.84-8.02 23.276 23.276 0 0 1 17.15-7.16c.65.02 1.2.03 1.67.05.91.02 1.44.03 1.44.03l-1.42.3c-.44.09-.98.21-1.6.34a9.68 9.68 0 0 0-2.02.54c-.71.3-1.47.61-2.28.95a9.847 9.847 0 0 0-2.37 1.29 22.4 22.4 0 0 0-2.33 1.6l-2.09 2a16.716 16.716 0 0 0-1.7 2.24l-.78 1.09-.51 1.21a20.618 20.618 0 0 0-.9 2.21c-.11.69-.22 1.3-.34 1.85-.07.27-.13.53-.19.78 0 .35 0 .69.01 1.01v1.65a49.6 49.6 0 0 0 17.81 3.81c7.72 0 11.71-2.57 11.75-2.6 35.25-26.47 5.32-91.49-5.16-111.63-.81-1.27-1.63-2.52-2.53-3.71-.35.43-.73.9-1.18 1.43-.54.63-1.13 1.31-1.78 2.07-9.27 10.83-22.78 16.01-36.38 18.69-.34.07-.68.11-1.02.16a11.8 11.8 0 1 1-22.24 5.47 11.64 11.64 0 0 1 1.41-5.47c-.34-.06-.69-.09-1.03-.16-12.71-1.37-24.8-7.95-34.07-16.55-.84-.78-1.63-1.51-2.35-2.19-.63-.74-1.21-1.42-1.74-2.03-.11-.13-.18-.22-.29-.35-.26 1.82-.76 3.74-.91 4.79-1.24 8.46-2.55 16.97-2.19 25.54a41.562 41.562 0 0 0 1.96 11.82c.35 1.02.75 2.03 1.15 3.04 1.21 3 2.5 5.97 2.84 9.22.97 9.57-7.4 18.13-16.88 18.13a17.6 17.6 0 0 1-10.87-4.12c-1.55 17.94 2.02 35.12 16.39 45.92zm58.39-69.32a25.17 25.17 0 1 1-25.18 25.17 25.205 25.205 0 0 1 25.18-25.17zm-2.85 23.38a2.322 2.322 0 0 0 1.33-1.02 1.054 1.054 0 0 0 .05-.59c-.04-.33-.75-.06-1.57.59s-.7 1.34.19 1.02zM30.56 54.23a4.47 4.47 0 0 1 .25 1.89c.38.26.74.5 1.18.79.66.46 1.4.97 2.21 1.52.83.47 1.73.98 2.69 1.53 16.03 9.09 33.8 13.59 52.27 11.69a75.443 75.443 0 0 0 15.64-3.35 95.423 95.423 0 0 0 24.34-11.4c.58-.39 1.09-.73 1.57-1.05a44.69 44.69 0 0 0-7.44-7.63c-2.66-2.1-5.38-4.13-7.37-6.91-5.49-7.67-2.99-18.73 4.42-24.15-.07-.15-.13-.3-.2-.45C115.36 6.14 109.6-.01 104.57-.01a9.072 9.072 0 0 0-5.9 2.61 26.984 26.984 0 0 1-36.22 0 9.072 9.072 0 0 0-5.9-2.61c-5.1 0-10.73 6-15.43 16.45-5.37 11.93-10.31 22.91-10.31 36.87a1.98 1.98 0 0 1-.25.92zm24.54-1.81a15.26 15.26 0 0 1-3.37 1.14 14.76 14.76 0 0 1-3.54.32 9.354 9.354 0 0 1-1.69-.21 9.085 9.085 0 0 1 1.46-.87 14.922 14.922 0 0 1 6.91-1.45.9.9 0 1 1 .23 1.07zm57.83 1.46a14.8 14.8 0 0 1-3.54-.32 15.26 15.26 0 0 1-3.37-1.14 9.567 9.567 0 0 1-1.46-.86 9.068 9.068 0 0 1 1.69-.2 14.922 14.922 0 0 1 6.91 1.45 8.543 8.543 0 0 1 1.46.87 10.232 10.232 0 0 1-1.69.2zm4.01-6.5a19.9 19.9 0 0 1 2.51.55 19.02 19.02 0 0 1-2.51.54 36.256 36.256 0 0 1-11.07.01 20.375 20.375 0 0 1-2.52-.55 18.346 18.346 0 0 1 2.52-.55 36.885 36.885 0 0 1 5.53-.42 38.29 38.29 0 0 1 5.54.42zm-13.59-3.01a12.3 12.3 0 0 1 1.51-.58 24.757 24.757 0 0 1 3.19-.74c1.15-.19 2.31-.28 3.13-.44a3.527 3.527 0 0 0 .95-.28.653.653 0 0 0 .29-.3.662.662 0 0 1 .03.48 2.166 2.166 0 0 1-.77 1.07 7.02 7.02 0 0 1-3.31 1.39 9.9 9.9 0 0 1-3.47-.08 6.1 6.1 0 0 1-1.55-.52zm-5.7-32.56c1.22-2.16 3.15-4.79 5.79-5.14 2.5-.34 4.87 1.21 6.4 3.07a29.706 29.706 0 0 1 3.37 5.85c1.53 4.08-2.37 2.53-4.49 1.5a33.024 33.024 0 0 0-8.12-2.37c-2.12-.44-3.89-1.24-2.95-2.91zm-5.66 23.51a10.494 10.494 0 0 1 14.62-2.58 1.458 1.458 0 0 1-1.67 2.39 7.572 7.572 0 0 0-10.55 1.86 1.462 1.462 0 0 1-2.4-1.67zM73.01 53.8a15.336 15.336 0 0 0 5.25-3.2 13.978 13.978 0 0 0 3.16-5.22c.05-.13.08-.2.12-.29-1.78-.08-3.2-1.61-3.2-2.52 0-.94 1.49-1.7 3.33-1.7s3.33.76 3.33 1.7c0 .91-1.42 2.44-3.2 2.52.04.09.07.16.12.29a12.506 12.506 0 0 0 .59 1.55c1.92 3.63 4.86 5.41 8.43 7.12 0 0-.23.06-.63.12a6.075 6.075 0 0 1-1.75.1 7.29 7.29 0 0 1-2.43-.63c-1.99-1.1-3.96-2.93-4.46-5.23.21.95-1.3 2.77-1.88 3.4a8.276 8.276 0 0 1-5.01 2.46 5.948 5.948 0 0 1-1.74-.1 5.847 5.847 0 0 1-.64-.12s.23-.11.61-.25zm-3.95-18.48a1.453 1.453 0 0 1-.36 2.03 1.457 1.457 0 0 1-2.03-.37 7.58 7.58 0 0 0-10.55-1.86 1.458 1.458 0 1 1-1.67-2.39 10.494 10.494 0 0 1 14.61 2.59zm-11.3 9.05a5.916 5.916 0 0 1-1.55.52 9.836 9.836 0 0 1-3.46.08 7.065 7.065 0 0 1-3.31-1.39 2.193 2.193 0 0 1-.78-1.07.736.736 0 0 1 .03-.48.8.8 0 0 0 .3.3 3.437 3.437 0 0 0 .94.28c.83.16 1.98.25 3.13.44a24.543 24.543 0 0 1 3.2.74 11.712 11.712 0 0 1 1.5.58zm-9.85-28.78a30.216 30.216 0 0 1 3.37-5.85c1.53-1.86 3.9-3.41 6.41-3.07 2.63.35 4.56 2.98 5.78 5.14.94 1.67-.83 2.46-2.95 2.91a33.1 33.1 0 0 0-8.13 2.37c-2.11 1.03-6.01 2.58-4.48-1.5zm-3.73 31.79a38.257 38.257 0 0 1 5.53-.42 36.92 36.92 0 0 1 5.54.42 18.346 18.346 0 0 1 2.52.55 20.375 20.375 0 0 1-2.52.55 36.255 36.255 0 0 1-11.07-.01 19.46 19.46 0 0 1-2.52-.54 20.375 20.375 0 0 1 2.52-.55zm77.96-26.57c-5.38 4.53-7.58 12.26-3.22 18.34 4.38 6.13 11.51 9.82 16 15.99 6.08 8.38 10.19 18.51 13.68 28.21.24.67.48 1.33.71 2.01.06.18.13.4.22.68.12.37.4.57.52.34a3.45 3.45 0 0 0 .2-.43c.1-.28.21-.56.32-.87s.22-.6.3-.82a56.072 56.072 0 0 0 2.94-12.32c.42-2.96.68-5.94.89-8.47.59-7.43 1.06-18.36-1.84-27.48-1.63-5.15-4.98-10.37-8.55-13.29-6.2-5.09-15.68-7.31-22.17-1.89zM80.56 76.53a8.04 8.04 0 1 0 6.14 2.98 7.88 7.88 0 0 0-6.14-2.98zM1.43 113.95a21.2 21.2 0 0 0 1.53 3.1 22.45 22.45 0 0 0 1.58 2.35 23.635 23.635 0 0 0 1.74 2.01c2.83 2.89 6.43 4.95 10.35 4.95a13.24 13.24 0 0 0 9.75-4.5 12.064 12.064 0 0 0 3.26-9.35 27.975 27.975 0 0 0-2.29-7.45l-.28-.71c-.44-1.07-.86-2.14-1.23-3.24a44.61 44.61 0 0 1-2.16-12.91c-.35-8.44.83-16.75 2.01-24.8.03-.16.05-.33.07-.49l.15-.98c.07-.52.22-1.22.39-2.02.03-.12.06-.25.09-.4.05-.22-.23-.18-.6.12-.22.18-.44.36-.66.55a41.43 41.43 0 0 0-4.16 3.95 100.728 100.728 0 0 0-8.85 11.41c-4 5.85-9.55 14.65-11.46 23.54a28.09 28.09 0 0 0 .77 14.87z"/></svg>