<svg width="164" height="162" xmlns="http://www.w3.org/2000/svg"><g fill="none" fill-rule="evenodd"><path d="M131.41 78.094c.002 23.298-14.03 44.302-35.553 53.22-21.524 8.917-46.3 3.99-62.774-12.483-16.475-16.472-21.404-41.247-12.49-62.77C29.51 34.533 50.514 20.5 73.81 20.5c31.81 0 57.597 25.785 57.6 57.594zm-91.87 76.94c1.562-1.562 4.095-1.562 5.657 0 1.562 1.562 1.562 4.095 0 5.657-1.562 1.563-4.095 1.563-5.657 0-.752-.748-1.175-1.766-1.175-2.827 0-1.062.423-2.08 1.175-2.83zM38.4 1.168c1.562-1.562 4.095-1.562 5.657 0 1.562 1.562 1.562 4.095 0 5.657-1.562 1.562-4.095 1.562-5.657 0-.75-.75-1.172-1.768-1.172-2.829 0-1.06.422-2.078 1.172-2.828zm118.8 61.094c1.562-1.562 4.095-1.562 5.657 0 1.562 1.562 1.562 4.095 0 5.657-1.562 1.56-4.095 1.56-5.657 0-.75-.75-1.172-1.77-1.172-2.83s.422-2.078 1.172-2.828zM4.3 86.632c1.236.715 1.668 2.29.97 3.535-.518.917-1.538 1.43-2.583 1.302C1.642 91.34.777 90.59.5 89.575c-.28-1.015.082-2.1.914-2.743.833-.645 1.972-.724 2.886-.2zm133.83-49.88c1.22.72 1.63 2.292.912 3.515-.717 1.223-2.288 1.635-3.513.92-1.225-.713-1.64-2.284-.93-3.51.726-1.22 2.298-1.633 3.53-.925zM82.32 144.97c1.236.714 1.67 2.29.97 3.534-.518.917-1.538 1.43-2.583 1.302-1.045-.13-1.91-.877-2.188-1.893-.28-1.015.082-2.1.914-2.743.833-.645 1.972-.724 2.886-.2z" fill="#FFF"/><path d="M117.032 111.72H86.268c-.864 0-1.565.7-1.565 1.565 0 .864.7 1.565 1.565 1.565h30.764c.864 0 1.565-.7 1.565-1.565 0-.864-.7-1.565-1.565-1.565zm0-7.27H86.268c-.867 0-1.57.703-1.57 1.57 0 .867.703 1.57 1.57 1.57h30.764c.867 0 1.57-.703 1.57-1.57 0-.867-.703-1.57-1.57-1.57zm31.8-70.79V32.2c0-3.967-3.213-7.185-7.18-7.19H62.175c-3.97.003-7.185 3.22-7.187 7.19v1.48c-3.838.474-6.723 3.732-6.727 7.6v29.11c.004 3.034 2.46 5.494 5.495 5.5h1.232v40.71c.004 4.27 2.325 8.203 6.062 10.27v7.72c0 .865.698 1.566 1.563 1.57H76.3c.865-.004 1.564-.706 1.565-1.57v-6.26h48.105v6.26c0 .863.697 1.564 1.56 1.57h13.69c.863-.006 1.56-.707 1.56-1.57v-7.72c3.737-2.067 6.057-6 6.06-10.27V75.89h1.34c3.034-.006 5.49-2.466 5.49-5.5V41.28c-.002-3.91-2.947-7.194-6.835-7.62h-.003zm3.7 7.62v3.84c-.736-.355-1.543-.54-2.36-.54h-1.34v-7.75c2.147.395 3.705 2.267 3.703 4.45h-.003zM62.175 28.14h79.485c2.238.006 4.05 1.822 4.05 4.06v2.98h-87.6V32.2c.003-2.243 1.822-4.06 4.065-4.06zm75.135 86.1v-6.65h8.4v6.65h-8.4zm-11.54 0v-6.65h8.41v6.65h-8.41zm-1.564-9.79c-.865.004-1.563.705-1.564 1.57v9.78c0 1.73-1.4 3.134-3.13 3.14h-35.2c-1.73-.006-3.128-1.41-3.127-3.14v-9.78c0-.864-.7-1.566-1.564-1.57H58.11v-7.04h87.595v7.04h-21.5zm-66.09 3.14h8.408v6.65h-8.408v-6.65zm11.536 0h8.408v6.65h-8.408v-6.65zm53.882-69.28l-20.74 55.97h-26.22l20.74-55.97h26.219zm-17.4 55.97l20.74-55.97h5.25l-20.75 55.97h-5.247.007zM54.99 36.85v7.73h-1.232c-.82.002-1.627.186-2.365.54v-3.84c0-2.138 1.497-3.985 3.59-4.43h.007zm-3.6 33.54V50.07c.003-1.304 1.06-2.36 2.365-2.36h6.22c1.303 0 2.36 1.056 2.364 2.36v20.32c-.004 1.304-1.062 2.36-2.366 2.36h-6.22c-1.305.002-2.366-1.054-2.37-2.36h.006zm8.584 5.5c3.034-.006 5.49-2.466 5.494-5.5V50.07c-.006-3.03-2.463-5.487-5.494-5.49h-1.858v-6.27h35.86l-20.74 55.97H58.11V75.89h1.864zm14.762 57.13h-10.56v-4.97c.83.185 1.678.28 2.53.28h8.027v4.69h.003zm64.914 0h-10.56v-4.69h8.03c.85 0 1.7-.095 2.53-.28v4.97zm-2.53-7.82H66.703c-4.446-.01-8.154-3.402-8.556-7.83H78.26c.713 2.762 3.2 4.694 6.053 4.7h35.2c2.852-.004 5.34-1.938 6.046-4.7h20.12c-.404 4.43-4.116 7.825-8.565 7.83h.005zm8.59-30.92h-31l20.745-55.97h10.25v6.27h-1.75c-3.03.002-5.488 2.46-5.49 5.49v20.32c0 3.034 2.456 5.494 5.49 5.5h1.75v18.39h.005zm6.83-23.89c-.002 1.302-1.058 2.358-2.36 2.36h-6.22c-1.302-.002-2.358-1.058-2.36-2.36V50.07c.002-1.302 1.058-2.358 2.36-2.36h6.22c1.302.002 2.358 1.058 2.36 2.36v20.32zM34.26 51.54H11.576c-.416 0-.814.166-1.108.46-.293.295-.457.694-.456 1.11v39.53c.003.862.703 1.56 1.565 1.56h9.777v40.39c0 .864.7 1.564 1.564 1.564.864 0 1.564-.7 1.564-1.564V94.2h9.777c.862 0 1.562-.698 1.564-1.56V53.11c.002-.416-.162-.815-.456-1.11-.293-.294-.692-.46-1.108-.46h.005zm-1.563 39.53H13.14v-36.4H32.69v36.4h.005zm-14.86-28.8h10.167c.864 0 1.565-.7 1.565-1.565 0-.864-.702-1.565-1.566-1.565H17.83c-.863 0-1.564.7-1.564 1.565 0 .864.7 1.565 1.565 1.565h.006zm0 8.11h10.167c.864 0 1.565-.7 1.565-1.565 0-.864-.702-1.565-1.566-1.565H17.83c-.863 0-1.564.7-1.564 1.565 0 .864.7 1.565 1.565 1.565h.006zm0 8.11h10.167c.864 0 1.565-.7 1.565-1.565 0-.864-.702-1.565-1.566-1.565H17.83c-.863 0-1.564.7-1.564 1.565 0 .864.7 1.565 1.565 1.565h.006zm0 8.12h10.167c.864 0 1.565-.7 1.565-1.565 0-.864-.702-1.565-1.566-1.565H17.83c-.863 0-1.564.7-1.564 1.565 0 .864.7 1.565 1.565 1.565h.006z" fill="#FC571F"/></g></svg>