<svg xmlns="http://www.w3.org/2000/svg" width="60" height="82" viewBox="0 0 60 82">
  <defs>
    <style>
      .cls-1 {
        fill: #23496f;
        fill-rule: evenodd;
      }
    </style>
  </defs>
  <path id="Forma_1" data-name="Forma 1" class="cls-1" d="M1141.43,401.207a1.282,1.282,0,0,1,0,2.563h-1.95v50.4h39.07v-50.4h-1.96a1.282,1.282,0,0,1,0-2.563h3.2a1.256,1.256,0,0,1,1.23,1.282v52.969a1.256,1.256,0,0,1-1.23,1.282h-41.55a1.265,1.265,0,0,1-1.24-1.282V402.489a1.265,1.265,0,0,1,1.24-1.282h3.19Zm11.19-13.236a1.277,1.277,0,0,1,0,2.552h-3.56v10.684h19.9V390.523l-3.56,0a1.277,1.277,0,0,1,0-2.552l4.67,0,0.13-.006a1.265,1.265,0,0,1,1.24,1.282v13.242a1.264,1.264,0,0,1-1.24,1.281h-22.37a1.258,1.258,0,0,1-1.24-1.281V389.247h0.01a1.253,1.253,0,0,1,1.23-1.276h4.79Zm4.79,27.386a1.283,1.283,0,0,1,0-2.563h15.98a1.282,1.282,0,0,1,0,2.563h-15.98Zm0,29.793a1.282,1.282,0,0,1,0-2.562h15.98a1.282,1.282,0,0,1,0,2.562h-15.98Zm0-9.931a1.283,1.283,0,0,1,0-2.563h15.98a1.282,1.282,0,0,1,0,2.563h-15.98Zm0-9.931a1.283,1.283,0,0,1,0-2.563h15.98a1.282,1.282,0,0,1,0,2.563h-15.98Zm-12.37-11.274a1.323,1.323,0,0,1,.25-1.789,1.212,1.212,0,0,1,1.73.256l0.81,1.122,2.61-3.605a1.2,1.2,0,0,1,1.72-.256,1.3,1.3,0,0,1,.25,1.786l-3.58,4.947-0.02.019a1.423,1.423,0,0,1-.24.256,1.211,1.211,0,0,1-1.73-.256Zm0,9.931a1.322,1.322,0,0,1,.25-1.788,1.212,1.212,0,0,1,1.73.256l0.81,1.121,2.61-3.6a1.2,1.2,0,0,1,1.72-.256,1.3,1.3,0,0,1,.25,1.788l-3.58,4.947-0.02.019a1.423,1.423,0,0,1-.24.256,1.211,1.211,0,0,1-1.73-.256Zm0,9.931a1.322,1.322,0,0,1,.25-1.788,1.212,1.212,0,0,1,1.73.256l0.81,1.122,2.61-3.605a1.2,1.2,0,0,1,1.72-.256,1.3,1.3,0,0,1,.25,1.789l-3.58,4.946-0.02.019a1.39,1.39,0,0,1-.24.256,1.211,1.211,0,0,1-1.73-.256Zm0,9.932a1.323,1.323,0,0,1,.25-1.789,1.212,1.212,0,0,1,1.73.256l0.81,1.122,2.61-3.605a1.2,1.2,0,0,1,1.72-.256,1.3,1.3,0,0,1,.25,1.789l-3.58,4.947-0.02.019a1.423,1.423,0,0,1-.24.256,1.211,1.211,0,0,1-1.73-.256Zm-3.6-50.877a1.283,1.283,0,0,1,0,2.563h-7.99a1.942,1.942,0,0,0-1.39.6,2.082,2.082,0,0,0-.57,1.431v62.9a2.064,2.064,0,0,0,.57,1.431v0.005a1.928,1.928,0,0,0,1.39.593h51.13a1.905,1.905,0,0,0,1.38-.593l0.01-.005a2.064,2.064,0,0,0,.57-1.431v-62.9a2.064,2.064,0,0,0-.57-1.431l-0.01,0v0a1.9,1.9,0,0,0-1.38-.6h-7.99a1.282,1.282,0,0,1,0-2.563h7.99a4.34,4.34,0,0,1,3.13,1.349v0a4.682,4.682,0,0,1,1.3,3.241v62.9a4.63,4.63,0,0,1-1.3,3.238v0.006a4.366,4.366,0,0,1-3.13,1.348h-51.13a4.331,4.331,0,0,1-3.13-1.348l-0.01-.006a4.674,4.674,0,0,1-1.3-3.238v-62.9a4.67,4.67,0,0,1,1.3-3.243,4.38,4.38,0,0,1,3.14-1.349h7.99ZM1159.01,383a3.584,3.584,0,0,1,2.57,1.1v0.006a3.831,3.831,0,0,1,0,5.312v0.006a3.539,3.539,0,0,1-2.57,1.1,3.585,3.585,0,0,1-2.57-1.1,3.856,3.856,0,0,1,.01-5.321l-0.01,0a3.584,3.584,0,0,1,2.57-1.1h0Zm0.83,2.915-0.01,0a1.137,1.137,0,0,0-1.64,0v0a1.226,1.226,0,0,0,0,1.695,1.129,1.129,0,0,0,1.64,0v0a1.218,1.218,0,0,0,.34-0.851A1.255,1.255,0,0,0,1159.84,385.915Z" transform="translate(-1129 -383)"/>
</svg>
