<svg width="162" height="164" xmlns="http://www.w3.org/2000/svg"><g fill="none" fill-rule="evenodd"><path d="M131.314 68.143c8.917 21.524 3.99 46.3-12.483 62.774-16.472 16.475-41.247 21.404-62.77 12.49-21.526-8.916-35.56-29.92-35.56-53.217 0-.89.02-1.774.06-2.654C21.947 56.96 47.174 32.593 78.094 32.59c23.298-.002 44.302 14.03 53.22 35.553zm23.72 56.317c-1.562-1.562-1.562-4.095 0-5.657 1.562-1.562 4.095-1.562 5.657 0 1.563 1.562 1.563 4.095 0 5.657-.748.752-1.766 1.175-2.827 1.175-1.062 0-2.08-.423-2.83-1.175zM1.168 125.6c-1.562-1.562-1.562-4.095 0-5.657 1.562-1.562 4.095-1.562 5.657 0 1.562 1.562 1.562 4.095 0 5.657-.75.75-1.768 1.172-2.829 1.172-1.06 0-2.078-.422-2.828-1.172zM62.262 6.8c-1.562-1.562-1.562-4.095 0-5.657 1.562-1.562 4.095-1.562 5.657 0 1.56 1.562 1.56 4.095 0 5.657-.75.75-1.77 1.172-2.83 1.172S63.013 7.55 62.263 6.8zm24.37 152.9c.715-1.236 2.29-1.668 3.535-.97.917.518 1.43 1.538 1.302 2.583-.13 1.045-.878 1.91-1.894 2.188-1.015.28-2.1-.082-2.743-.914-.645-.833-.724-1.972-.2-2.886zM36.753 25.87c.72-1.22 2.292-1.63 3.515-.912 1.223.717 1.635 2.288.92 3.513-.713 1.225-2.284 1.64-3.51.93-1.22-.726-1.633-2.298-.925-3.53zM144.97 81.68c.714-1.236 2.29-1.67 3.534-.97.917.518 1.43 1.538 1.302 2.583-.13 1.045-.877 1.91-1.893 2.188-1.015.28-2.1-.082-2.743-.914-.645-.833-.724-1.972-.2-2.886z" fill="#FFF"/><path d="M136.78 135.5h7.73l-14.7-39.45-11.2-7.96-7.414 14.1-5.572-2.25-19.417 35.56h50.573zM28.36 114.21c-2.046 10.928-6.56 21.29-6.56 21.29h9.11s5.304-13.22 7.287-21.2c1.983-7.98 2.08-16.5 2.08-16.5l6.94 1s5.6 6.06 6.246 16.1c.647 10.04-3.815 20.6-3.815 20.6h8.84s4.346-16.974 4.346-23.33c0-6.356-3.346-12.3-3.346-12.3l-2.58-5.57 23.918 13.61-4.488 7.82 17.422 6.03 7.024-13.21-13.42-12.03-4.332 7.55-27.848-15.85-1.5-5.29 1.5-8.538s1.724 2.128 3.41 8.578c1.684 6.45 3.49 9.337 3.49 9.337l11.86 6.782-5-13.12c-3.506-9.45-3.086-17.87-13.76-24.937L52.37 54.96c5.18-1.06 9.077-4.54 9.364-9.98l-23.268-3.1c-.175.47-.265.968-.267 1.47-.007 3.947 1.754 7.617 5.028 9.82L38.57 57.1s-5.53.26-7.945 1.43c-5.758 2.788-11.122 9.57-11.122 9.57s-3 4.15-3 8.42c0 4.48.383 5.125 4 9.08s9.406 6.58 9.406 6.58.496 11.102-1.55 22.03zm-2.24-34.96s-1.537-2 0-5.23c1.537-3.23 4.417-4.05 4.417-4.05l-1 11.27-3.417-1.99zm34.51-34.52l3.535.47c.47-10.56-4.1-17.46-12.365-18.56-.668-.09-1.34-.138-2.014-.14-7.323 0-12.652 5.38-14.74 14.82l3.082.41 22.5 3z" stroke="#FC571F" stroke-width="3"/></g></svg>