<svg xmlns="http://www.w3.org/2000/svg" width="56" height="37" viewBox="0 0 56 37">
  <defs>
    <style>
      .cls-1 {
        fill: #c4c4c4;
        fill-rule: evenodd;
      }
    </style>
  </defs>
  <path id="Forma_1" data-name="Forma 1" class="cls-1" d="M1417.92,5477.05a5.21,5.21,0,0,0-1.85.34l-0.22,1.34a4.779,4.779,0,0,1,1.66-.27c0.57,0,.99.06,0.99,0.53a1.086,1.086,0,0,1-.05.4s-0.45-.04-0.66-0.04c-1.32,0-2.71.57-2.71,2.31a1.464,1.464,0,0,0,1.48,1.68,2,2,0,0,0,1.57-.71l-0.05.59h1.34l0.6-4.29A1.813,1.813,0,0,0,1417.92,5477.05Zm-0.75,4.98a0.562,0.562,0,0,1-.6-0.59c0-.42.22-0.93,1.35-0.93a0.935,0.935,0,0,1,.33.03C1418.28,5480.8,1418.09,5482.03,1417.17,5482.03Zm4.78-3.04c0,0.78,1.82.4,1.82,2.34a1.976,1.976,0,0,1-2.31,1.98,4.869,4.869,0,0,1-1.72-.19l0.2-1.37a4.816,4.816,0,0,0,1.36.24c0.42,0,.95-0.04.95-0.54,0-.75-1.92-0.57-1.92-2.36,0-1.57,1.15-2.04,2.29-2.04a6.628,6.628,0,0,1,1.41.13l-0.2,1.37s-0.83-.07-1.04-0.07C1422.24,5478.49,1421.95,5478.61,1421.95,5478.99Zm3.63,2.38c-0.03.21,0.03,0.5,0.56,0.5,0.13,0,.29-0.05.39-0.05l-0.19,1.33a3.9,3.9,0,0,1-1.15.2,1.146,1.146,0,0,1-1.22-1.32c0-.62.87-5.71,0.91-5.74h1.53l-0.16.91h0.77l-0.2,1.46h-0.81Zm5.91-.65a11.459,11.459,0,0,0,.2-1.42,2.08,2.08,0,0,0-2.19-2.28c-1.53,0-2.67,1.69-2.67,3.6a2.423,2.423,0,0,0,2.64,2.73,3.82,3.82,0,0,0,1.62-.26l0.27-1.5a4.779,4.779,0,0,1-1.63.38c-1.64,0-1.35-1.25-1.35-1.25h3.11Zm-1.98-2.3c0.86,0,.7.99,0.7,1.07h-1.69A1.115,1.115,0,0,1,1429.51,5478.42Zm-13.88-2.62-1.21,7.43h-1.57l0.87-5.6-1.96,5.6h-1.06l-0.13-5.6-0.93,5.6h-1.48l1.22-7.43h2.24l0.07,4.56,1.51-4.56h2.43Zm19.36-.97h-7.95c0.08-.16.36-0.77,0.78-1.57h6.55A15.53,15.53,0,0,1,1434.99,5474.83Zm-1.45-3.11h-4.87c0.31-.53.66-1.07,1.02-1.57h2.73A14.428,14.428,0,0,1,1433.54,5471.72Zm-2.54,18.64a13.093,13.093,0,0,1-1.47-1.6h2.97a15.506,15.506,0,0,1-1.46,1.57h-0.01Zm2.56-3.11h-5.1a14.809,14.809,0,0,1-.85-1.57h6.79A14.738,14.738,0,0,1,1433.56,5487.25Zm1.82-10.11a5.686,5.686,0,0,0-.57,1.81c-1.06-.39-1.15,1.71-1.59,4.29h-1.57l0.95-6.04h1.43l-0.14.87a1.788,1.788,0,0,1,1.19-.95A1.708,1.708,0,0,1,1435.38,5477.14Zm2.83,4.69a3.65,3.65,0,0,0,1.27-.38l-0.28,1.7a7.02,7.02,0,0,1-1.34.21c-1.82,0-2.75-1.28-2.75-3.23,0-2.93,1.72-4.49,3.48-4.49a5.466,5.466,0,0,1,1.73.38l-0.25,1.65a2.74,2.74,0,0,0-1.41-.44c-1.04,0-1.97,1.01-1.97,2.85A1.528,1.528,0,0,0,1438.21,5481.83Zm14.94,0.54a0.462,0.462,0,0,0-.17.17,0.51,0.51,0,0,0,0,.48,0.462,0.462,0,0,0,.17.17,0.51,0.51,0,0,0,.23.07,0.476,0.476,0,0,0,.23-0.07,0.4,0.4,0,0,0,.17-0.17,0.446,0.446,0,0,0,0-.48,0.456,0.456,0,0,0-.4-0.23A0.493,0.493,0,0,0,1453.15,5482.37Zm0.57,0.21a0.425,0.425,0,0,1,0,.4,0.339,0.339,0,0,1-.15.14,0.329,0.329,0,0,1-.19.06,0.353,0.353,0,0,1-.19-0.06,0.316,0.316,0,0,1-.14-0.14,0.363,0.363,0,0,1,0-.4,0.316,0.316,0,0,1,.14-0.14,0.361,0.361,0,0,1,.19-0.05,0.32,0.32,0,0,1,.19.05A0.339,0.339,0,0,1,1453.72,5482.58Zm-6.22-1.79c0,1.28.63,2.53,1.9,2.53a1.879,1.879,0,0,0,1.42-.65l-0.06.55h1.49l1.17-7.41h-1.54l-0.33,2.09a2,2,0,0,0-1.48-.81C1448.67,5477.09,1447.5,5478.81,1447.5,5480.79Zm3.67-.91c0,0.82-.4,1.92-1.23,1.92-0.55,0-.81-0.47-0.81-1.21,0-1.21.53-2,1.21-2C1450.89,5478.59,1451.17,5478.97,1451.17,5479.88Zm2.49,7.81a0.138,0.138,0,0,0-.04-0.03,0.153,0.153,0,0,0,.1-0.04,0.128,0.128,0,0,0,.04-0.1,0.235,0.235,0,0,0-.02-0.08,0.179,0.179,0,0,0-.07-0.05,0.345,0.345,0,0,0-.12-0.01h-0.17v0.51h0.08v-0.22h0.04a0.145,0.145,0,0,1,.07.02,0.482,0.482,0,0,1,.08.12l0.05,0.08h0.1l-0.07-.1A0.534,0.534,0,0,0,1453.66,5487.69Zm-0.11-.09h-0.1v-0.15h0.1a0.172,0.172,0,0,1,.08.01,0.053,0.053,0,0,1,.03.02,0.09,0.09,0,0,1,.01.05,0.048,0.048,0,0,1-.02.05A0.136,0.136,0,0,1,1453.55,5487.6Zm4.02-26.59h-53.13a1.462,1.462,0,0,0-1.45,1.47v34.04a1.462,1.462,0,0,0,1.45,1.47h53.13a1.453,1.453,0,0,0,1.44-1.47v-34.04A1.453,1.453,0,0,0,1457.57,5461.01Zm-3.59,26.85a0.424,0.424,0,0,1-.17.18,0.471,0.471,0,0,1-.46,0,0.445,0.445,0,0,1-.18-0.18,0.465,0.465,0,0,1-.06-0.23,0.442,0.442,0,0,1,.07-0.24,0.4,0.4,0,0,1,.17-0.17,0.389,0.389,0,0,1,.23-0.07,0.51,0.51,0,0,1,.23.07,0.4,0.4,0,0,1,.17.17,0.533,0.533,0,0,1,.06.24A0.465,0.465,0,0,1,1453.98,5487.86Zm1.04-8.36a14.517,14.517,0,0,1-14.37,14.65,14.207,14.207,0,0,1-9.65-3.79,14.173,14.173,0,0,1-9.64,3.78,14.649,14.649,0,0,1-.09-29.29h0.09a14.182,14.182,0,0,1,9.64,3.79,14.135,14.135,0,0,1,9.64-3.79,14.51,14.51,0,0,1,14.38,14.64v0.01Zm-1.84,3.03v0.51h0.08v-0.21h0.05a0.108,0.108,0,0,1,.06.01,0.894,0.894,0,0,1,.09.12l0.04,0.08h0.1l-0.06-.1a0.487,0.487,0,0,0-.08-0.1,0.052,0.052,0,0,0-.04-0.02,0.16,0.16,0,0,0,.1-0.05,0.128,0.128,0,0,0,.04-0.1,0.1,0.1,0,0,0-.02-0.07,0.265,0.265,0,0,0-.06-0.05,0.392,0.392,0,0,0-.13-0.02h-0.17Zm0.29,0.11a0.048,0.048,0,0,1,.01.04,0.055,0.055,0,0,1-.03.05,0.1,0.1,0,0,1-.09.02h-0.1v-0.15h0.09a0.151,0.151,0,0,1,.08.01A0.062,0.062,0,0,1,1453.47,5482.64Zm-10.74-5.59a5.21,5.21,0,0,0-1.85.34l-0.22,1.34a4.779,4.779,0,0,1,1.66-.27c0.57,0,.99.06,0.99,0.53a1.086,1.086,0,0,1-.05.4s-0.45-.04-0.66-0.04c-1.32,0-2.71.57-2.71,2.31a1.464,1.464,0,0,0,1.48,1.68,2,2,0,0,0,1.57-.71l-0.05.59h1.34l0.6-4.29A1.806,1.806,0,0,0,1442.73,5477.05Zm-0.75,4.98a0.562,0.562,0,0,1-.6-0.59c0-.42.23-0.93,1.35-0.93a0.935,0.935,0,0,1,.33.03C1443.09,5480.8,1442.9,5482.03,1441.98,5482.03Zm5.68-3.08c-1.06-.39-1.15,1.71-1.59,4.29h-1.57l0.95-6.04h1.43l-0.14.87a1.788,1.788,0,0,1,1.19-.95,1.708,1.708,0,0,1,.3.02A6.261,6.261,0,0,0,1447.66,5478.95Z" transform="translate(-1403 -5461)"/>
</svg>
