<svg width="265" height="244" xmlns="http://www.w3.org/2000/svg"><path d="M263.54 32.53c-.42.376-.945.562-1.467.562-.603 0-1.204-.247-1.638-.73-1.836-2.048-4.47-3.223-7.22-3.223-2.755 0-5.387 1.173-7.224 3.22-.416.466-1.01.732-1.636.732-.624 0-1.22-.266-1.637-.73-1.837-2.048-4.47-3.223-7.22-3.223-2.755 0-5.387 1.174-7.224 3.22-.81.905-2.2.98-3.103.17-.905-.808-.98-2.195-.17-3.1 2.67-2.975 6.495-4.68 10.496-4.68 3.24 0 6.368 1.12 8.858 3.128 2.49-2.008 5.617-3.13 8.86-3.13 4 0 7.826 1.708 10.496 4.683.81.904.734 2.292-.17 3.1zm-33.26 35.322c.81.903.735 2.29-.17 3.1-.418.375-.943.56-1.465.56-.603 0-1.203-.246-1.637-.73-1.838-2.047-4.47-3.222-7.223-3.222s-5.385 1.175-7.223 3.222c-.417.464-1.012.73-1.637.73-.624 0-1.22-.266-1.636-.73-1.84-2.047-4.47-3.222-7.224-3.222-2.752 0-5.385 1.175-7.222 3.222-.81.903-2.2.978-3.103.17-.904-.81-.98-2.197-.17-3.1 2.67-2.976 6.496-4.682 10.497-4.682 3.242 0 6.37 1.12 8.86 3.13 2.49-2.01 5.616-3.13 8.858-3.13 4 0 7.827 1.706 10.496 4.682zm12.28 83.37c1.243 0 2.25 1.007 2.25 2.25 0 1.244-1.007 2.252-2.25 2.252-4.362 0-8.612-.488-12.702-1.407v6.195h12.702c1.243 0 2.25 1.008 2.25 2.252 0 1.243-1.007 2.25-2.25 2.25v.002h-53.456v4.784h53.456c1.243 0 2.25 1.008 2.25 2.25 0 1.245-1.007 2.253-2.25 2.253h-53.456v49.38h1.57c1.243 0 2.25 1.01 2.25 2.252v17.138l-21.57-.173c.532-.497.1-3.93.69-4.318v-12.647c0-1.243 1.008-2.25 2.25-2.25h1.57v-49.382H68.955v49.38h1.572c1.242 0 2.25 1.01 2.25 2.252v17.648c-.084-1.104-19.2-.58-20.88-.516v-17.132c0-1.243 1.007-2.25 2.25-2.25h1.57v-49.382H2.26c-1.242 0-2.25-1.008-2.25-2.252 0-1.242 1.008-2.25 2.25-2.25h53.456v-4.784H2.26c-1.242 0-2.25-1.008-2.25-2.252 0-1.243 1.008-2.25 2.25-2.25h12.707v-6.197c-4.09.92-8.342 1.408-12.707 1.408-1.242 0-2.25-1.008-2.25-2.252 0-1.243 1.008-2.25 2.25-2.25 29.476 0 53.456-23.996 53.456-53.49 0-1.242 1.007-2.25 2.25-2.25h2.12v-7.585c0-1.243 1.006-2.252 2.25-2.252 1.242 0 2.25 1.01 2.25 2.252v7.585h2.118c1.243 0 2.25 1.008 2.25 2.25 0 29.494 23.98 53.49 53.456 53.49 29.475 0 53.455-23.996 53.455-53.49 0-1.242 1.008-2.25 2.25-2.25h2.12v-7.585c0-1.243 1.007-2.252 2.25-2.252 1.242 0 2.25 1.01 2.25 2.252v7.584h2.12c1.242 0 2.25 1.01 2.25 2.252 0 29.493 23.98 53.487 53.455 53.487zM29.925 148.68c-3.306 1.805-6.804 3.297-10.457 4.435v7.397h10.457V148.68zm14.957-11.696c-3.114 3.384-6.625 6.397-10.457 8.966v14.563h10.457v-23.53zm10.834-16.85c-1.69 4.024-3.822 7.817-6.334 11.32v29.058h6.334v-40.378zm8.738-20.15h-4.238v123.698h4.238V99.985zm3.822 128.203h-11.88v12.4l11.88.157v-12.557zm7.014-96.73c-2.513-3.503-4.645-7.298-6.336-11.323v40.378h6.336v-29.054zm14.958 14.495c-3.833-2.568-7.343-5.58-10.458-8.965v23.525h10.458v-14.56zm14.958 7.164c-3.653-1.14-7.152-2.63-10.458-4.435v11.832h10.458v-7.396zm14.95 2.56c-3.574-.137-7.068-.598-10.45-1.36v6.196h10.45v-4.836zm14.96-1.36c-3.386.762-6.88 1.223-10.458 1.36v4.836h10.457v-6.195zm14.956-5.635c-3.305 1.805-6.804 3.297-10.457 4.435v7.397h10.457v-11.83zm14.957-11.693c-3.116 3.384-6.625 6.397-10.458 8.965v14.56h10.457v-23.525zm10.835-16.853c-1.69 4.025-3.823 7.82-6.336 11.325v29.052h6.335v-40.378zm0 44.88H68.955v4.786h106.91v-4.785zm8.74-65.03h-4.24v123.698h4.24V99.985zm3.82 128.203h-11.88v12.557l11.88-.157v-12.4zm26.475-67.675h10.458v-7.396c-3.654-1.138-7.152-2.63-10.458-4.433v11.83zm-19.458-29.05c-2.514-3.505-4.647-7.302-6.338-11.328v40.378h6.338v-29.05zm4.5 5.528v23.522h10.46v-14.56c-3.834-2.566-7.344-5.58-10.46-8.962zM51.896 243.067v.005c-.174.004-.156 0 0-.005zm71.45-193.73c-13.62 0-24.7-11.066-24.7-24.668 0-13.604 11.08-24.67 24.7-24.67s24.7 11.066 24.7 24.67c0 13.6-11.08 24.667-24.7 24.667zm0-44.947c-11.196 0-20.304 9.097-20.304 20.28 0 11.18 9.108 20.277 20.304 20.277 11.196 0 20.305-9.097 20.305-20.278 0-11.183-9.108-20.28-20.304-20.28z" fill="#204B76" fill-rule="evenodd"/></svg>