<?xml version="1.0" encoding="UTF-8" standalone="no"?>
<svg width="118px" height="74px" viewBox="0 0 118 74" version="1.1" xmlns="http://www.w3.org/2000/svg" xmlns:xlink="http://www.w3.org/1999/xlink" xmlns:sketch="http://www.bohemiancoding.com/sketch/ns">
    <!-- Generator: Sketch 3.4.4 (17249) - http://www.bohemiancoding.com/sketch -->
    <title>shark</title>
    <desc>Created with Sketch.</desc>
    <defs></defs>
    <g id="Page-1" stroke="none" stroke-width="1" fill="none" fill-rule="evenodd" sketch:type="MSPage">
        <g id="Desktop" sketch:type="MSArtboardGroup" transform="translate(-93.000000, -828.000000)" fill="#4ADAF6">
            <g id="shark" sketch:type="MSLayerGroup" transform="translate(92.000000, 828.000000)">
                <path d="M95.047,63.59 C90.647,35.62 65.791,3.44 36.788,1.19 C25.382457,0.267735342 13.9387885,2.42991585 3.656,7.45 C2.94377572,7.79090318 2.49049478,8.51039351 2.49049478,9.3 C2.49049478,10.0896065 2.94377572,10.8090968 3.656,11.15 C12.5895443,15.5268711 20.2864492,22.0687246 26.046,30.18 C26.4728822,30.7815187 27.186047,31.1124272 27.921,31.05 L43.095,29.96 L33,39.94 C32.413,40.52 30.228,42.39 30.534,43.15 C28.202,47.42 23.218,59.76 19.886,63.35 C2.591,64.34 0.997,66.18 0.997,68.27 C0.997,71.43 27.413,74 59.997,74 C92.581,74 118.997,71.44 118.997,68.27 C119,65.54 110.139,64.63 95.047,63.59 L95.047,63.59 Z" id="Forma_1" sketch:type="MSShapeGroup"></path>
            </g>
        </g>
    </g>
</svg>