<svg width="162" height="164" xmlns="http://www.w3.org/2000/svg"><g fill="none" fill-rule="evenodd"><path d="M78.094 32.59c23.298-.002 44.302 14.03 53.22 35.553 8.917 21.524 3.99 46.3-12.483 62.774-16.472 16.475-41.247 21.404-62.77 12.49-21.526-8.916-35.56-29.92-35.56-53.217 0-31.81 25.785-57.597 57.594-57.6zm76.94 91.87c-1.562-1.562-1.562-4.095 0-5.657 1.562-1.562 4.095-1.562 5.657 0 1.563 1.562 1.563 4.095 0 5.657-.748.752-1.766 1.175-2.827 1.175-1.062 0-2.08-.423-2.83-1.175zM1.168 125.6c-1.562-1.562-1.562-4.095 0-5.657 1.562-1.562 4.095-1.562 5.657 0 1.562 1.562 1.562 4.095 0 5.657-.75.75-1.768 1.172-2.829 1.172-1.06 0-2.078-.422-2.828-1.172zM62.262 6.8c-1.562-1.562-1.562-4.095 0-5.657 1.562-1.562 4.095-1.562 5.657 0 1.56 1.562 1.56 4.095 0 5.657-.75.75-1.77 1.172-2.83 1.172S63.013 7.55 62.263 6.8zm24.37 152.9c.715-1.236 2.29-1.668 3.535-.97.917.518 1.43 1.538 1.302 2.583-.13 1.045-.878 1.91-1.894 2.188-1.015.28-2.1-.082-2.743-.914-.645-.833-.724-1.972-.2-2.886zM36.753 25.87c.72-1.22 2.292-1.63 3.515-.912 1.223.717 1.635 2.288.92 3.513-.713 1.225-2.284 1.64-3.51.93-1.22-.726-1.633-2.298-.925-3.53zM144.97 81.68c.714-1.236 2.29-1.67 3.534-.97.917.518 1.43 1.538 1.302 2.583-.13 1.045-.877 1.91-1.893 2.188-1.015.28-2.1-.082-2.743-.914-.645-.833-.724-1.972-.2-2.886z" fill="#FFF"/><path d="M138.586 108.72h-.47V96.03h.47c.765 0 1.385-.62 1.385-1.385s-.62-1.385-1.384-1.385h-.51c-.645-10.745-9.295-19.27-20.048-19.76V49.39c-.006-9.76-7.445-17.907-17.163-18.8v-3.16c-.005-1.888-1.535-3.417-3.423-3.42H63.526c-1.887.004-3.415 1.533-3.42 3.42v3.16c-9.718.892-17.158 9.04-17.165 18.8V73.5c-10.752.49-19.402 9.015-20.048 19.76h-.51c-.764 0-1.384.62-1.384 1.385s.62 1.385 1.385 1.385h.467v12.69h-.47c-.764 0-1.384.62-1.384 1.385s.62 1.385 1.385 1.385h.47v4.25c.004 4.995 4.05 9.043 9.046 9.05H42.94v.84c.006 6.36 5.158 11.512 11.517 11.52h52.05c6.36-.008 11.51-5.16 11.518-11.52v-.84h11.045c4.995-.007 9.042-4.055 9.046-9.05v-4.25h.47c.765 0 1.385-.62 1.385-1.385s-.62-1.385-1.384-1.385zm-3.24 0H118.03V96.03h17.322v12.69h-.003zm-.045-15.46H118.03V76.27c9.223.486 16.635 7.776 17.273 16.99zM115.24 48.7c-2.65 6.892-7.293 12.838-13.336 17.08-2.02 1.418-4.177 2.634-6.437 3.63v-5.06h1.55c.764 0 1.384-.617 1.386-1.38v-5.88c-.002-.763-.622-1.38-1.385-1.38h-1.55V33.27h3.682c8.628.01 15.718 6.81 16.09 15.43zm-46.8 9.78v3.1h-3.1v-3.1h3.1zm1.386 5.87c.763 0 1.383-.617 1.385-1.38v-5.88c0-.763-.62-1.38-1.384-1.38h-1.55V33.27H92.7v22.44H91.15c-.763 0-1.382.617-1.384 1.38v5.88c.002.763.62 1.38 1.384 1.38h1.552v6.15c-7.913 2.733-16.514 2.733-24.427 0v-6.15h1.55zm22.71-2.77v-3.1h3.1v3.1h-3.1zm-29-34.8H97.45c.173 0 .34.067.462.19.123.12.192.287.192.46v3.07h-35.22v-3.07c0-.356.287-.646.643-.65h.008zm-1.712 6.49h3.685v22.44h-1.56c-.763 0-1.383.617-1.385 1.38v5.88c.002.763.622 1.38 1.385 1.38h1.55v5.06c-2.258-.996-4.415-2.212-6.436-3.63-6.043-4.243-10.686-10.19-13.337-17.08.373-8.618 7.462-15.417 16.09-15.43h.007zm-18.875 43v16.99H25.667c.638-9.214 8.05-16.504 17.273-16.99h.01zM25.63 96.03h17.32v12.69H25.63V96.03zm6.276 25.99c-3.465-.006-6.273-2.815-6.277-6.28v-4.25h17.32v10.53H31.897h.008zm83.36 3.61c-.002 4.83-3.918 8.747-8.75 8.75H54.46c-4.83-.003-8.747-3.92-8.75-8.75V55.11c2.92 5.124 6.936 9.54 11.76 12.93 2.5 1.767 5.194 3.237 8.032 4.38v6.77c-.014.504.247.975.68 1.23.435.256.974.256 1.408 0 .434-.255.695-.726.68-1.23v-5.77c7.946 2.533 16.483 2.533 24.428 0v5.77c-.014.504.247.975.68 1.23.435.256.974.256 1.408 0 .434-.255.695-.726.68-1.23v-6.77c2.84-1.143 5.534-2.613 8.032-4.38 4.824-3.388 8.84-7.8 11.76-12.92v70.51h.01zm20.09-9.89c-.005 3.465-2.813 6.274-6.278 6.28h-11.05v-10.53h17.322v4.25h.005zm-32.543-25.26h-44.65c-1.494.004-2.704 1.215-2.706 2.71v20.09c.006 7.545 6.12 13.66 13.664 13.67h22.73c7.545-.01 13.658-6.125 13.664-13.67V93.19c-.003-1.495-1.214-2.707-2.71-2.71h.01zm-22.32 9.28c-.764 0-1.383.617-1.385 1.38v4.49h-11.3c-5.287-.008-9.57-4.293-9.578-9.58v-2.8h44.516v2.8c-.007 5.287-4.29 9.572-9.578 9.58h-11.3v-4.49c0-.367-.147-.718-.406-.977-.26-.258-.61-.404-.978-.403h.008zm22.257 13.52c-.006 6.015-4.88 10.89-10.894 10.9H69.12c-6.015-.01-10.888-4.885-10.894-10.9v-9.45c2.34 2.892 5.86 4.57 9.578 4.57h11.3v7.58c-.014.504.247.975.68 1.23.435.256.974.256 1.408 0 .434-.255.695-.726.68-1.23v-7.58h11.3c3.72 0 7.24-1.678 9.578-4.57v9.45z" fill="#FC571F"/></g></svg>