<svg width="162" height="165" xmlns="http://www.w3.org/2000/svg"><g fill="none" fill-rule="evenodd"><path d="M83.906 131.41c-23.298.002-44.302-14.03-53.22-35.553-8.917-21.524-3.99-46.3 12.483-62.774 16.472-16.475 41.247-21.404 62.77-12.49 21.526 8.916 35.56 29.92 35.56 53.217 0 31.81-25.785 57.597-57.594 57.6zM6.966 39.54c1.562 1.562 1.562 4.095 0 5.657-1.562 1.562-4.095 1.562-5.657 0-1.563-1.562-1.563-4.095 0-5.657.748-.752 1.766-1.175 2.827-1.175 1.062 0 2.08.423 2.83 1.175zm153.866-1.14c1.562 1.562 1.562 4.095 0 5.657-1.562 1.562-4.095 1.562-5.657 0-1.562-1.562-1.562-4.095 0-5.657.75-.75 1.768-1.172 2.828-1.172 1.06 0 2.08.422 2.83 1.172zM99.738 157.2c1.562 1.562 1.562 4.095 0 5.657-1.562 1.562-4.095 1.562-5.657 0-1.56-1.562-1.56-4.095 0-5.657.75-.75 1.77-1.172 2.83-1.172s2.078.422 2.828 1.172zM75.368 4.3c-.715 1.236-2.29 1.668-3.535.97-.917-.518-1.43-1.538-1.302-2.583.13-1.045.878-1.91 1.894-2.188 1.015-.28 2.1.082 2.743.914.645.833.724 1.972.2 2.886zm49.88 133.83c-.72 1.22-2.292 1.63-3.515.912-1.223-.717-1.635-2.288-.92-3.513.713-1.225 2.284-1.64 3.51-.93 1.22.726 1.633 2.298.925 3.53zM17.03 82.32c-.714 1.236-2.29 1.67-3.534.97-.917-.518-1.43-1.538-1.302-2.583.13-1.045.877-1.91 1.893-2.188 1.015-.28 2.1.082 2.743.914.645.833.724 1.972.2 2.886z" fill="#FFF"/><path d="M130.78 25.01H31.73c-4.266.007-7.723 3.464-7.73 7.73v99.05c.003 4.268 3.462 7.727 7.73 7.73h99.05c4.268-.003 7.727-3.462 7.73-7.73V32.74c-.007-4.266-3.464-7.723-7.73-7.73zm5.07 7.73v5.86H86.64l-.11-10.92h44.25c2.795.002 5.062 2.265 5.07 5.06zm-16.4 77.82c-.592-4.572-4.045-8.25-8.57-9.13V90.26h24.97v20.3h-16.4zm-92.79 0V66.29H44.3v44.27H26.66zm20.31-44.27h6.86c-.245 1.272-.37 2.565-.37 3.86 0 3.79 2.21 8.99 5.16 14.24v26.17H46.97V66.29zm9.16 3.86c0-10.02 8.124-18.145 18.145-18.145 10.02 0 18.145 8.124 18.145 18.145 0 8.78-14.17 27.3-18.15 32.33-3.98-5.03-18.14-23.55-18.14-32.33zm27.98-18.32c-7.34-3.95-16.33-3.128-22.83 2.09V27.68h22.58l.25 24.15zm-25.49 4.64c-1.832 2.088-3.227 4.523-4.1 7.16h-7.55V27.68h11.65v28.79zm2.66 32.39c3.67 5.752 7.662 11.29 11.96 16.59.253.31.63.488 1.03.49.4 0 .778-.18 1.03-.49.7-.84 14.89-18.21 18.79-30.1l14.13 14.13v11.79c-5.1.32-9.256 4.22-9.9 9.29H61.28v-21.7zm37.04 24.37c.612 4.822 4.408 8.618 9.23 9.23v14.4H61.28v-23.63h37.04zm10.56 6.65c-4.41-.003-7.983-3.58-7.98-7.99.003-4.41 3.58-7.983 7.99-7.98 4.41.003 7.983 3.58 7.98 7.99-.01 4.407-3.583 7.975-7.99 7.98zm1.22-32.28L94.87 72.36c.13-.73.2-1.47.21-2.21 0-1.295-.125-2.588-.37-3.86h41.14v21.3H110.1v.01zM94.02 63.63c-1.332-4.016-3.853-7.53-7.23-10.08l-.12-12.29h49.18v22.37H94.02zM31.73 27.68H44.3v35.95H26.66V32.74c.004-2.797 2.273-5.06 5.07-5.06zm-5.07 104.11v-18.56h31.96v23.63H31.73c-2.8 0-5.07-2.27-5.07-5.07zm104.12 5.07h-20.57v-14.4c4.825-.608 8.627-4.405 9.24-9.23h16.4v18.56c-.004 2.798-2.272 5.066-5.07 5.07zM86.17 70.15c0-6.572-5.328-11.9-11.9-11.9s-11.9 5.328-11.9 11.9 5.328 11.9 11.9 11.9c6.57-.01 11.89-5.33 11.9-11.9zm-21.13 0c.003-5.1 4.14-9.233 9.24-9.23 5.1.003 9.233 4.14 9.23 9.24-.003 5.1-4.14 9.233-9.24 9.23-5.1-.006-9.23-4.14-9.23-9.24z" fill="#FC571F"/></g></svg>