<svg width="162" height="164" xmlns="http://www.w3.org/2000/svg"><g fill="none" fill-rule="evenodd"><path d="M78.094 32.59c23.298-.002 44.302 14.03 53.22 35.553 8.917 21.524 3.99 46.3-12.483 62.774-16.472 16.475-41.247 21.404-62.77 12.49-21.526-8.916-35.56-29.92-35.56-53.217 0-31.81 25.785-57.597 57.594-57.6zm76.94 91.87c-1.562-1.562-1.562-4.095 0-5.657 1.562-1.562 4.095-1.562 5.657 0 1.563 1.562 1.563 4.095 0 5.657-.748.752-1.766 1.175-2.827 1.175-1.062 0-2.08-.423-2.83-1.175zM1.168 125.6c-1.562-1.562-1.562-4.095 0-5.657 1.562-1.562 4.095-1.562 5.657 0 1.562 1.562 1.562 4.095 0 5.657-.75.75-1.768 1.172-2.829 1.172-1.06 0-2.078-.422-2.828-1.172zM62.262 6.8c-1.562-1.562-1.562-4.095 0-5.657 1.562-1.562 4.095-1.562 5.657 0 1.56 1.562 1.56 4.095 0 5.657-.75.75-1.77 1.172-2.83 1.172S63.013 7.55 62.263 6.8zm24.37 152.9c.715-1.236 2.29-1.668 3.535-.97.917.518 1.43 1.538 1.302 2.583-.13 1.045-.878 1.91-1.894 2.188-1.015.28-2.1-.082-2.743-.914-.645-.833-.724-1.972-.2-2.886zM36.753 25.87c.72-1.22 2.292-1.63 3.515-.912 1.223.717 1.635 2.288.92 3.513-.713 1.225-2.284 1.64-3.51.93-1.22-.726-1.633-2.298-.925-3.53zM144.97 81.68c.714-1.236 2.29-1.67 3.534-.97.917.518 1.43 1.538 1.302 2.583-.13 1.045-.877 1.91-1.893 2.188-1.015.28-2.1-.082-2.743-.914-.645-.833-.724-1.972-.2-2.886z" fill="#FFF"/><path d="M80.81 30.94c-4.653 0-9.113 1.857-12.39 5.16l-.07.07c-6.776 6.872-6.712 17.93.143 24.724 6.854 6.793 17.913 6.757 24.724-.08 6.81-6.837 6.803-17.896-.017-24.724l-.01.01c-3.274-3.3-7.73-5.16-12.38-5.16zm-14.47 3.07c3.827-3.853 9.034-6.02 14.465-6.02 5.43 0 10.638 2.167 14.465 6.02v.01c7.975 7.977 7.988 20.905.028 28.897-7.96 7.992-20.887 8.032-28.897.09-8.008-7.943-8.076-20.87-.15-28.897l.09-.1zm14.47 4.57c-2.02-.007-3.765 1.416-4.164 3.398-.4 1.98.657 3.97 2.524 4.745 1.866.777 4.02.126 5.145-1.554 1.124-1.68.904-3.92-.525-5.35-.788-.795-1.86-1.242-2.98-1.24zm-5.07-.85c2.43-2.444 6.248-2.83 9.117-.92 2.87 1.908 3.99 5.578 2.675 8.763-1.314 3.186-4.696 4.998-8.076 4.328-3.38-.67-5.816-3.634-5.816-7.08-.01-1.91.747-3.743 2.1-5.09zm-2.35 15.63c-.31.348-.596.72-.85 1.11-.34.51-.63 1.048-.87 1.61 1.03 1.256 2.306 2.288 3.75 3.03 4.948 2.546 11.003 1.283 14.52-3.03-.24-.56-.528-1.1-.86-1.61l-.06-.09c-.238-.36-.502-.7-.79-1.02-.89.636-1.857 1.153-2.88 1.54-1.452.545-2.99.826-4.54.83-1.554.002-3.096-.28-4.55-.83-1.02-.385-1.985-.903-2.87-1.54zm-3.3-.52c.627-.94 1.37-1.796 2.21-2.55.556-.487 1.39-.483 1.94.01.902.793 1.938 1.42 3.06 1.85 3.427 1.302 7.293.597 10.04-1.83.552-.516 1.407-.525 1.97-.02.812.718 1.53 1.534 2.14 2.43l.07.1c.622.94 1.117 1.96 1.47 3.03.15.446.076.938-.2 1.32-1.37 1.91-3.172 3.47-5.26 4.55-4.22 2.173-9.23 2.173-13.45 0-2.088-1.08-3.89-2.64-5.26-4.55-.275-.382-.35-.873-.2-1.32.355-1.067.85-2.082 1.47-3.02zM40.45 97.06c-8.374-.014-15.59 5.89-17.236 14.1-1.645 8.21 2.74 16.44 10.47 19.654 7.733 3.214 16.66.517 21.318-6.44 4.66-6.958 3.754-16.238-2.162-22.164-3.278-3.3-7.738-5.155-12.39-5.15zm-14.46 3.06c6.937-6.983 17.842-8.09 26.04-2.642 8.197 5.448 11.4 15.93 7.65 25.03-3.752 9.1-13.412 14.28-23.067 12.367C26.957 132.963 20 124.493 20 114.65c-.028-5.45 2.13-10.683 5.99-14.53zm14.46 4.57c-1.12-.003-2.193.444-2.98 1.24-1.098 1.06-1.54 2.632-1.157 4.11.384 1.48 1.533 2.636 3.01 3.03 1.475.393 3.048-.04 4.117-1.13v-.01c.798-.794 1.245-1.874 1.24-3-.002-1.124-.448-2.202-1.24-3l-.08-.08c-.784-.748-1.827-1.164-2.91-1.16zm-5.06-.85c2.752-2.778 7.23-2.818 10.03-.09l.1.09c2.8 2.816 2.8 7.364 0 10.18-2.818 2.753-7.33 2.72-10.108-.072-2.78-2.793-2.79-7.303-.022-10.108zm-2.36 15.63c-.305.35-.586.72-.84 1.11h-.01l.01.01c-.34.51-.63 1.048-.87 1.61 2.24 2.745 5.593 4.337 9.135 4.337s6.896-1.592 9.135-4.337c-.238-.566-.53-1.11-.87-1.62-.252-.387-.533-.755-.84-1.1-.892.632-1.86 1.15-2.88 1.54-3.997 1.527-8.494.945-11.97-1.55zm-3.29-.52c.617-.93 1.35-1.776 2.18-2.52.554-.51 1.405-.52 1.97-.02.895.798 1.928 1.426 3.05 1.85 3.43 1.297 7.294.598 10.05-1.82.552-.514 1.403-.527 1.97-.03.835.753 1.574 1.606 2.2 2.54.618.94 1.115 1.955 1.48 3.02h-.01c.155.45.08.946-.2 1.33-1.366 1.91-3.165 3.47-5.25 4.55-4.22 2.173-9.23 2.173-13.45 0-2.088-1.08-3.89-2.64-5.26-4.55-.28-.384-.355-.88-.2-1.33.353-1.068.848-2.083 1.47-3.02zm91.42-21.89c-8.374-.02-15.595 5.883-17.244 14.093-1.65 8.21 2.732 16.442 10.465 19.66 7.733 3.215 16.66.52 21.32-6.437 4.662-6.958 3.757-16.24-2.16-22.166-3.276-3.298-7.732-5.152-12.38-5.15zm-14.46 3.06c3.827-3.853 9.034-6.02 14.465-6.02 5.43 0 10.638 2.167 14.465 6.02 7.987 8.04 7.987 21.02 0 29.06-5.86 5.856-14.675 7.6-22.325 4.42-7.65-3.184-12.627-10.665-12.605-18.95-.004-5.447 2.154-10.673 6-14.53zm14.46 4.57c-1.123 0-2.2.448-2.993 1.244-.794.795-1.24 1.873-1.237 2.996 0 1.125.446 2.204 1.24 3 .788.798 1.862 1.25 2.983 1.25 1.12.002 2.197-.444 2.987-1.24h.01l-.01-.01c1.653-1.658 1.653-4.342 0-6l-.07-.08c-.784-.748-1.827-1.164-2.91-1.16zm-5.07-.85c2.756-2.778 7.235-2.818 10.04-.09l.1.09c2.787 2.82 2.787 7.36 0 10.18h-.01c-1.337 1.352-3.16 2.11-5.06 2.11-2.902-.02-5.508-1.78-6.614-4.462-1.107-2.683-.5-5.767 1.544-7.828zm-2.35 15.63c-.308.35-.592.72-.85 1.11v.01c-.34.51-.63 1.048-.87 1.61 1.03 1.256 2.306 2.288 3.75 3.03 3.384 1.733 7.396 1.733 10.78 0 1.444-.742 2.72-1.774 3.75-3.03-.238-.563-.53-1.102-.87-1.61l-.06-.09c-.237-.357-.498-.697-.78-1.02-.894.634-1.865 1.15-2.89 1.54-3.994 1.525-8.487.943-11.96-1.55zm-3.29-.52c.614-.93 1.347-1.78 2.18-2.52.554-.51 1.405-.52 1.97-.02.895.798 1.928 1.426 3.05 1.85 2.262.853 4.758.853 7.02 0 1.113-.416 2.14-1.033 3.03-1.82.552-.514 1.403-.527 1.97-.03.806.724 1.52 1.544 2.13 2.44l.07.1c.62.94 1.117 1.955 1.48 3.02h-.01c.155.45.08.946-.2 1.33-4.234 5.957-12.203 7.896-18.7 4.55-2.088-1.08-3.89-2.64-5.26-4.55-.28-.38-.354-.874-.2-1.32.353-1.07.848-2.09 1.47-3.03zm-3.13-36.21c.273.454.28 1.02.02 1.48-.262.463-.75.748-1.28.747-.53 0-1.02-.286-1.28-.747l-.92-1.61-2.53-3.2c-.263-.454-.263-1.013-.002-1.467.262-.455.746-.735 1.27-.735.525 0 1.01.278 1.272.732l.93 1.6 2.52 3.2zm-30.01 33.39c-.815 0-1.475-.66-1.475-1.475 0-.815.66-1.475 1.475-1.475h6.99c.815 0 1.475.66 1.475 1.475 0 .815-.66 1.475-1.475 1.475h-6.99zM56.83 84.22c-.263.454-.747.733-1.272.732-.524 0-1.008-.28-1.27-.735-.26-.454-.26-1.013.002-1.467l2.53-3.21.93-1.6c.263-.452.746-.73 1.27-.728.522 0 1.004.282 1.264.735s.26 1.01-.004 1.463l-2.52 3.21-.93 1.6z" fill="#FC571F"/></g></svg>