<svg xmlns="http://www.w3.org/2000/svg" width="29" height="24"><defs><style>.cls-1 { fill: #67b7eb; fill-rule: evenodd; }</style></defs><path id="twitter_copy" data-name="twitter copy" class="cls-1" d="M26.03 5.96a5.36 5.36 0 0 1 .04.8 18.284 18.284 0 0 1-1.5 7.03A16.418 16.418 0 0 1 9.13 24a16.844 16.844 0 0 1-9.12-2.71c.45.03.93.07 1.38.07a11.75 11.75 0 0 0 7.4-2.6 6.01 6.01 0 0 1-5.56-4.2 5.477 5.477 0 0 0 1.13.11 5.4 5.4 0 0 0 1.58-.23 5.938 5.938 0 0 1-4.77-5.92v-.08a6.024 6.024 0 0 0 2.7.77 6.057 6.057 0 0 1-2.66-5.05A6.15 6.15 0 0 1 2 1.1a16.98 16.98 0 0 0 12.28 6.35 5.406 5.406 0 0 1-.15-1.38A6.008 6.008 0 0 1 20.1 0a5.885 5.885 0 0 1 4.32 1.91A12.127 12.127 0 0 0 28.21.45a6.06 6.06 0 0 1-2.63 3.33A10.706 10.706 0 0 0 29 2.82a11.7 11.7 0 0 1-2.97 3.14z"/></svg>