<svg width="164" height="162" xmlns="http://www.w3.org/2000/svg"><g fill="none" fill-rule="evenodd"><path d="M131.41 78.094c.002 23.298-14.03 44.302-35.553 53.22-21.524 8.917-46.3 3.99-62.774-12.483-16.475-16.472-21.404-41.247-12.49-62.77C29.51 34.533 50.514 20.5 73.81 20.5c31.81 0 57.597 25.785 57.6 57.594zm-91.87 76.94c1.562-1.562 4.095-1.562 5.657 0 1.562 1.562 1.562 4.095 0 5.657-1.562 1.563-4.095 1.563-5.657 0-.752-.748-1.175-1.766-1.175-2.827 0-1.062.423-2.08 1.175-2.83zM38.4 1.168c1.562-1.562 4.095-1.562 5.657 0 1.562 1.562 1.562 4.095 0 5.657-1.562 1.562-4.095 1.562-5.657 0-.75-.75-1.172-1.768-1.172-2.829 0-1.06.422-2.078 1.172-2.828zm118.8 61.094c1.562-1.562 4.095-1.562 5.657 0 1.562 1.562 1.562 4.095 0 5.657-1.562 1.56-4.095 1.56-5.657 0-.75-.75-1.172-1.77-1.172-2.83s.422-2.078 1.172-2.828zM4.3 86.632c1.236.715 1.668 2.29.97 3.535-.518.917-1.538 1.43-2.583 1.302C1.642 91.34.777 90.59.5 89.575c-.28-1.015.082-2.1.914-2.743.833-.645 1.972-.724 2.886-.2zm133.83-49.88c1.22.72 1.63 2.292.912 3.515-.717 1.223-2.288 1.635-3.513.92-1.225-.713-1.64-2.284-.93-3.51.726-1.22 2.298-1.633 3.53-.925zM82.32 144.97c1.236.714 1.67 2.29.97 3.534-.518.917-1.538 1.43-2.583 1.302-1.045-.13-1.91-.877-2.188-1.893-.28-1.015.082-2.1.914-2.743.833-.645 1.972-.724 2.886-.2z" fill="#FFF"/><path d="M134.683 121.85l-27.745-97.51c-.42-1.464-1.755-2.474-3.278-2.48-.316-.002-.63.042-.933.13l-1.81.51-1.627-5.72c-.31-1.074-1.066-1.963-2.077-2.44-1.013-.47-2.18-.478-3.2-.02-1.02.458-62.313 27.9-62.32 27.91-.538.247-.816.85-.653 1.42l28.95 101.74c.15.52.625.88 1.166.88.113-.002.225-.02.333-.05l70.848-20.16c1.808-.518 2.857-2.4 2.345-4.21zM95 17.54c.377-.174.81-.174 1.187.002.376.175.656.507.764.908l1.63 4.72-50.49 14.37 46.91-20zm35.673 105.18l-67.686 19.84-23.99-83.3-4.3-15.1 67.687-18.83c.52-.146 1.06.152 1.212.67l27.748 95.51c.072.25.04.517-.084.744-.126.227-.337.395-.587.466zm-47.5-63.8c-2.307.002-4.602.32-6.822.95-13.217 3.766-20.88 17.53-17.12 30.75 3.07 10.67 12.816 18.034 23.92 18.07 2.306-.002 4.6-.32 6.82-.95 13.213-3.765 20.876-17.524 17.12-30.74-3.065-10.676-12.812-18.044-23.92-18.08h.003zM104.39 76.5l-8.42 2.4c-1.12-3.453-2.84-6.682-5.077-9.54 1.494-1.408 2.81-2.993 3.92-4.72 4.474 2.72 7.86 6.914 9.574 11.86h.002zm-9.452 15.16c-2.723-.273-5.472-.094-8.136.53l-2.146-7.55 9.635-2.74c.776 3.192.995 6.494.648 9.76zm-23.563-15.7c.82.08 1.644.12 2.472.12 1.906-.003 3.805-.22 5.662-.65l2.147 7.54-9.636 2.74c-.772-3.19-.99-6.487-.642-9.75h-.003zm9.8-3.54l-2.7-9.5c3.416 1.357 6.485 3.462 8.98 6.16-1.898 1.442-4.016 2.57-6.273 3.34h-.007zm7.86-1.49c2.015 2.594 3.567 5.517 4.588 8.64l-9.636 2.74-2.146-7.55c2.596-.87 5.028-2.163 7.198-3.83h-.004zM78.84 73.09c-2.328.526-4.724.68-7.1.46.7-3.607 2.203-7.01 4.395-9.96l2.705 9.5zm3.477 12.22l2.147 7.54c-2.598.87-5.032 2.167-7.2 3.84-2.013-2.596-3.565-5.518-4.588-8.64l9.64-2.74zm2.812 9.88l2.7 9.5c-3.417-1.353-6.486-3.454-8.983-6.15 1.904-1.447 4.028-2.578 6.29-3.35h-.008zm2.334-.66c2.326-.534 4.723-.693 7.1-.47-.7 3.61-2.203 7.017-4.395 9.97l-2.706-9.5zm5.194-31.05c-.958 1.47-2.083 2.82-3.353 4.03-2.314-2.516-5.08-4.575-8.155-6.07.667-.06 1.338-.09 2.014-.09 3.285 0 6.53.728 9.5 2.13h-.006zm-19.578.26c-1.826 2.89-3.094 6.094-3.738 9.45-1.72-.356-3.39-.913-4.98-1.66 2.157-3.332 5.17-6.023 8.725-7.79h-.007zm-9.94 9.89c1.852.9 3.812 1.557 5.83 1.96-.396 3.61-.156 7.263.71 10.79l-8.423 2.4c-1.172-5.115-.503-10.48 1.89-15.15h-.007zm-1.216 17.48l8.42-2.4c1.118 3.457 2.836 6.69 5.075 9.55-1.5 1.404-2.816 2.99-3.92 4.72-4.473-2.725-7.856-6.922-9.57-11.87h-.006zm21.217 15.16c-3.283 0-6.526-.732-9.493-2.14.957-1.47 2.083-2.822 3.353-4.03 2.314 2.516 5.08 4.575 8.153 6.07-.663.06-1.334.1-2.005.1h-.007zm10.086-2.39c1.824-2.893 3.09-6.1 3.737-9.46 1.72.355 3.394.916 4.98 1.67-2.158 3.325-5.165 6.014-8.71 7.79h-.007zm9.94-9.91c-1.857-.887-3.815-1.542-5.832-1.95.397-3.61.157-7.263-.71-10.79l8.423-2.39c1.176 5.107.513 10.465-1.874 15.13h-.007z" fill="#FC571F"/></g></svg>