<svg xmlns="http://www.w3.org/2000/svg" width="33" height="19"><defs><style>.cls-1 { fill: #49669d; fill-rule: evenodd; }</style></defs><path class="cls-1" d="M26.81 19h-.15a6.626 6.626 0 0 1-3.79-2.56c-.55-.62-1.39-2.02-2.39-1.86-1.43.23-.72 2.68-1.32 3.72-.48.85-2.53.7-3.94.55-4.46-.48-6.73-2.86-8.73-5.43a47.873 47.873 0 0 1-5.33-8.76A7.955 7.955 0 0 1 0 1.25C.72.66 1.9.86 3.09.86c1.01 0 2.58-.22 3.32.15a6.287 6.287 0 0 1 1.24 2.18A27.412 27.412 0 0 0 10.2 7.6c.43.62 1.08 1.79 1.85 1.63.75-.15.82-1.99.85-3.18a9.658 9.658 0 0 0-.38-3.72c-.37-.67-1.03-.68-1.7-1.08C11.38.12 12.91.01 14.76.01c1.55 0 3.72-.18 4.32.85.62 1.04.2 2.93.16 4.34-.04 1.59-.32 3.23.77 3.96a3.016 3.016 0 0 0 1.78-1.56 20.817 20.817 0 0 0 2.55-4.41c.34-.75.7-2.02 1.31-2.25.94-.36 2.42-.08 3.79-.08 1.12 0 3.12-.31 3.48.46.3.65-.58 2.27-.85 2.72A48.093 48.093 0 0 1 28.9 8.3c-.45.59-1.37 1.54-1.31 2.48a3.19 3.19 0 0 0 1.31 1.79 24.32 24.32 0 0 1 3.01 3.18 4.06 4.06 0 0 1 1.08 2.09c-.23 1.89-4.68.71-6.18 1.16z"/></svg>