<svg xmlns="http://www.w3.org/2000/svg" width="56" height="37"><defs><style>.cls-1 { fill: #c4c4c4; fill-rule: evenodd; }</style></defs><path id="Forma_1" data-name="Forma 1" class="cls-1" d="M14.92 16.05a5.21 5.21 0 0 0-1.85.34l-.22 1.34a4.78 4.78 0 0 1 1.66-.27c.57 0 .99.06.99.53a1.086 1.086 0 0 1-.05.4s-.45-.04-.66-.04c-1.32 0-2.71.57-2.71 2.31a1.464 1.464 0 0 0 1.48 1.68 2 2 0 0 0 1.57-.71l-.05.59h1.34l.6-4.29a1.813 1.813 0 0 0-2.1-1.88zm-.75 4.98a.562.562 0 0 1-.6-.59c0-.42.22-.93 1.35-.93a.935.935 0 0 1 .33.03c.03.26-.16 1.49-1.08 1.49zm4.78-3.04c0 .78 1.82.4 1.82 2.34a1.976 1.976 0 0 1-2.31 1.98 4.87 4.87 0 0 1-1.72-.19l.2-1.37a4.816 4.816 0 0 0 1.36.24c.42 0 .95-.04.95-.54 0-.75-1.92-.57-1.92-2.36 0-1.57 1.15-2.04 2.29-2.04a6.628 6.628 0 0 1 1.41.13l-.2 1.37s-.83-.07-1.04-.07c-.55.01-.84.13-.84.51zm3.63 2.38c-.03.21.03.5.56.5.13 0 .29-.05.39-.05l-.19 1.33a3.9 3.9 0 0 1-1.15.2 1.146 1.146 0 0 1-1.22-1.32c0-.62.87-5.71.91-5.74h1.53l-.16.91h.77l-.2 1.46h-.81zm5.91-.65a11.46 11.46 0 0 0 .2-1.42 2.08 2.08 0 0 0-2.19-2.28c-1.53 0-2.67 1.69-2.67 3.6a2.423 2.423 0 0 0 2.64 2.73 3.82 3.82 0 0 0 1.62-.26l.27-1.5a4.78 4.78 0 0 1-1.63.38c-1.64 0-1.35-1.25-1.35-1.25h3.11zm-1.98-2.3c.86 0 .7.99.7 1.07h-1.69a1.115 1.115 0 0 1 .99-1.07zM12.63 14.8l-1.21 7.43H9.85l.87-5.6-1.96 5.6H7.7l-.13-5.6-.93 5.6H5.16l1.22-7.43h2.24l.07 4.56 1.51-4.56h2.43zm19.36-.97h-7.95c.08-.16.36-.77.78-1.57h6.55a15.53 15.53 0 0 1 .62 1.57zm-1.45-3.11h-4.87c.31-.53.66-1.07 1.02-1.57h2.73a14.428 14.428 0 0 1 1.12 1.57zM28 29.36a13.093 13.093 0 0 1-1.47-1.6h2.97a15.506 15.506 0 0 1-1.46 1.57h-.01zm2.56-3.11h-5.1a14.81 14.81 0 0 1-.85-1.57h6.79a14.738 14.738 0 0 1-.84 1.57zm1.82-10.11a5.686 5.686 0 0 0-.57 1.81c-1.06-.39-1.15 1.71-1.59 4.29h-1.57l.95-6.04h1.43l-.14.87a1.788 1.788 0 0 1 1.19-.95 1.708 1.708 0 0 1 .3.02zm2.83 4.69a3.65 3.65 0 0 0 1.27-.38l-.28 1.7a7.02 7.02 0 0 1-1.34.21c-1.82 0-2.75-1.28-2.75-3.23 0-2.93 1.72-4.49 3.48-4.49a5.466 5.466 0 0 1 1.73.38l-.25 1.65a2.74 2.74 0 0 0-1.41-.44c-1.04 0-1.97 1.01-1.97 2.85a1.528 1.528 0 0 0 1.52 1.75zm14.94.54a.462.462 0 0 0-.17.17.51.51 0 0 0 0 .48.462.462 0 0 0 .17.17.51.51 0 0 0 .23.07.476.476 0 0 0 .23-.07.4.4 0 0 0 .17-.17.446.446 0 0 0 0-.48.456.456 0 0 0-.4-.23.493.493 0 0 0-.23.06zm.57.21a.425.425 0 0 1 0 .4.34.34 0 0 1-.15.14.33.33 0 0 1-.19.06.353.353 0 0 1-.19-.06.316.316 0 0 1-.14-.14.363.363 0 0 1 0-.4.316.316 0 0 1 .14-.14.36.36 0 0 1 .19-.05.32.32 0 0 1 .19.05.34.34 0 0 1 .15.14zm-6.22-1.79c0 1.28.63 2.53 1.9 2.53a1.88 1.88 0 0 0 1.42-.65l-.06.55h1.49l1.17-7.41h-1.54l-.33 2.09a2 2 0 0 0-1.48-.81c-1.4 0-2.57 1.72-2.57 3.7zm3.67-.91c0 .82-.4 1.92-1.23 1.92-.55 0-.81-.47-.81-1.21 0-1.21.53-2 1.21-2 .55 0 .83.38.83 1.29zm2.49 7.81a.138.138 0 0 0-.04-.03.153.153 0 0 0 .1-.04.128.128 0 0 0 .04-.1.235.235 0 0 0-.02-.08.18.18 0 0 0-.07-.05.345.345 0 0 0-.12-.01h-.17v.51h.08v-.22h.04a.145.145 0 0 1 .07.02.482.482 0 0 1 .08.12l.05.08h.1l-.07-.1a.534.534 0 0 0-.07-.1zm-.11-.09h-.1v-.15h.1a.172.172 0 0 1 .08.01.053.053 0 0 1 .03.02.09.09 0 0 1 .01.05.048.048 0 0 1-.02.05.136.136 0 0 1-.1.02zM54.57.01H1.44A1.462 1.462 0 0 0-.01 1.48v34.04a1.462 1.462 0 0 0 1.45 1.47h53.13a1.453 1.453 0 0 0 1.44-1.47V1.48A1.453 1.453 0 0 0 54.57.01zm-3.59 26.85a.424.424 0 0 1-.17.18.47.47 0 0 1-.46 0 .445.445 0 0 1-.18-.18.465.465 0 0 1-.06-.23.442.442 0 0 1 .07-.24.4.4 0 0 1 .17-.17.39.39 0 0 1 .23-.07.51.51 0 0 1 .23.07.4.4 0 0 1 .17.17.533.533 0 0 1 .06.24.465.465 0 0 1-.06.23zm1.04-8.36a14.517 14.517 0 0 1-14.37 14.65A14.207 14.207 0 0 1 28 29.36a14.173 14.173 0 0 1-9.64 3.78 14.65 14.65 0 0 1-.09-29.29h.09A14.182 14.182 0 0 1 28 7.64a14.135 14.135 0 0 1 9.64-3.79 14.51 14.51 0 0 1 14.38 14.64v.01zm-1.84 3.03v.51h.08v-.21h.05a.108.108 0 0 1 .06.01.894.894 0 0 1 .09.12l.04.08h.1l-.06-.1a.487.487 0 0 0-.08-.1.052.052 0 0 0-.04-.02.16.16 0 0 0 .1-.05.128.128 0 0 0 .04-.1.1.1 0 0 0-.02-.07.265.265 0 0 0-.06-.05.392.392 0 0 0-.13-.02h-.17zm.29.11a.048.048 0 0 1 .01.04.055.055 0 0 1-.03.05.1.1 0 0 1-.09.02h-.1v-.15h.09a.15.15 0 0 1 .08.01.062.062 0 0 1 .04.03zm-10.74-5.59a5.21 5.21 0 0 0-1.85.34l-.22 1.34a4.78 4.78 0 0 1 1.66-.27c.57 0 .99.06.99.53a1.086 1.086 0 0 1-.05.4s-.45-.04-.66-.04c-1.32 0-2.71.57-2.71 2.31a1.464 1.464 0 0 0 1.48 1.68 2 2 0 0 0 1.57-.71l-.05.59h1.34l.6-4.29a1.806 1.806 0 0 0-2.1-1.88zm-.75 4.98a.562.562 0 0 1-.6-.59c0-.42.23-.93 1.35-.93a.935.935 0 0 1 .33.03c.03.26-.16 1.49-1.08 1.49zm5.68-3.08c-1.06-.39-1.15 1.71-1.59 4.29H41.5l.95-6.04h1.43l-.14.87a1.788 1.788 0 0 1 1.19-.95 1.708 1.708 0 0 1 .3.02 6.26 6.26 0 0 0-.57 1.81z"/></svg>