<svg xmlns="http://www.w3.org/2000/svg" width="126.939" height="169.25"><defs><style>.cls-1 { fill: #e1edf3; fill-rule: evenodd; }</style></defs><path id="Forma_1" data-name="Forma 1" class="cls-1" d="M39.36 62.63c12.77 0 23.126 14.59 23.126 32.57S52.13 127.77 39.36 127.77 16.23 113.19 16.23 95.2s10.355-32.57 23.13-32.57zM83.92 168.26l4.79-.99 11.534-138.33-9.09-.83zM126.95 32.17l-6.82-.67-15.12 132.77 4.71-1zM114.6 30.5l-8.02-.47-11.652 136.23 4.85-.99zm1.57-12.19a4.988 4.988 0 0 1-3.9-1.09 5.552 5.552 0 0 0-4.26 2.01 7.762 7.762 0 0 0-13.294-4.24 5.525 5.525 0 0 0-9.695-3.06 6.82 6.82 0 0 0-4.824-2.01 6.737 6.737 0 0 0-1.687.24 5.232 5.232 0 0 0 .1-.97 5.545 5.545 0 0 0-10.02-3.28 9.205 9.205 0 0 0-17-.48c-.123-.01-.237-.03-.36-.03a6.65 6.65 0 0 0-5.56 2.99c-.07 0-.138-.02-.21-.02a6.353 6.353 0 0 0-6.268 5.31 7.13 7.13 0 0 0-12.143-1.35 5.405 5.405 0 0 0-2.563-.66 5.548 5.548 0 0 0-5.266 3.84 9.052 9.052 0 0 0-3.96-.92 9.2 9.2 0 0 0-9.22 9.19 10.57 10.57 0 0 0 2.61 7.04l64.525-6.75 48.494 5.52v-6.57h-.05a5.514 5.514 0 0 0-5.45-4.71zM11.114 33.12L-.013 34.27 13.17 164.89l9.664.56-4.492-47.03a44.888 44.888 0 0 1-6.168-23.22 47.087 47.087 0 0 1 2.83-16.19zm53.21 135.43l6.286.72 6.423-1.01 5.275-141.18-5.9-.68-9.57.98-1.1 62.19a49.467 49.467 0 0 1 .353 5.63 48.907 48.907 0 0 1-.587 7.57zm-9.72-139.91l-11 1.13.77 29.31a24.25 24.25 0 0 1 10.673 6.06zm-7.3 138.69l9.018.58-.553-43.37a25.308 25.308 0 0 1-9.508 6.2zM33.633 30.8l-9.34.96 1.452 31.6a23.066 23.066 0 0 1 9.04-4.38zm-2.948 135.29l8.674.6-1.59-34.83a21.5 21.5 0 0 1-9.008-2.77z"/></svg>