<svg width="164" height="164" xmlns="http://www.w3.org/2000/svg"><path d="M155.38 64.82c-.907-1.726-1.42-3.632-1.5-5.58l-.66-15.39c-.103-2.178-1.26-4.17-3.1-5.34l-13.01-8.29c-1.65-1.04-3.046-2.434-4.09-4.08l-8.28-13.01c-1.17-1.842-3.16-2.998-5.34-3.1l-15.42-.67c-1.948-.08-3.854-.593-5.58-1.5L84.69.76c-1.925-1-4.215-1-6.14 0l-13.7 7.1c-1.73.907-3.64 1.42-5.59 1.5l-15.41.67c-2.18.1-4.173 1.257-5.34 3.1l-8.29 13.01c-1.043 1.643-2.437 3.037-4.08 4.08l-13.01 8.29c-1.843 1.167-3 3.16-3.1 5.34l-.67 15.41c-.082 1.95-.59 3.858-1.49 5.59L.76 78.55c-1.02 1.923-1.02 4.227 0 6.15l7.11 13.7c.9 1.728 1.408 3.633 1.49 5.58l.67 15.42c.1 2.18 1.257 4.173 3.1 5.34l.96.62 3.42 2.16 3.42 2.16 5.21 3.32c1.643 1.043 3.037 2.437 4.08 4.08l8.29 13.01c1.164 1.847 3.16 3.005 5.34 3.1l15.41.67c1.95.08 3.86.593 5.59 1.5l.82.42 12.85 6.68c1.928 1 4.222 1 6.15 0l9.05-4.7 4.65-2.4c.343-.188.7-.35 1.07-.48 1.44-.592 2.967-.937 4.52-1.02l.34-.03 15.07-.66c2.178-.103 4.17-1.26 5.34-3.1l8.28-13.01c1.047-1.647 2.443-3.043 4.09-4.09l2.94-1.87 10.04-6.38c1.845-1.17 3.003-3.167 3.1-5.35l.67-15.41c.08-1.95.593-3.86 1.5-5.59l7.1-13.7c1.02-1.923 1.02-4.227 0-6.15l-7.05-13.7z" fill="#FC571F" fill-rule="evenodd"/></svg>