<?xml version="1.0" encoding="UTF-8" standalone="no"?>
<svg width="162px" height="165px" viewBox="0 0 162 165" version="1.1" xmlns="http://www.w3.org/2000/svg" xmlns:xlink="http://www.w3.org/1999/xlink" xmlns:sketch="http://www.bohemiancoding.com/sketch/ns">
    <!-- Generator: Sketch 3.4.4 (17249) - http://www.bohemiancoding.com/sketch -->
    <title>map</title>
    <desc>Created with Sketch.</desc>
    <defs></defs>
    <g id="Page-1" stroke="none" stroke-width="1" fill="none" fill-rule="evenodd" sketch:type="MSPage">
        <g id="Desktop" sketch:type="MSArtboardGroup" transform="translate(-556.000000, -347.000000)">
            <g id="map" sketch:type="MSLayerGroup" transform="translate(556.000000, 347.000000)">
                <g id="round" transform="translate(81.500000, 82.500000) rotate(180.000000) translate(-81.500000, -82.500000) " fill="#FFFFFF" sketch:type="MSShapeGroup">
                    <path d="M79.094,33.59 C102.391571,33.5875732 123.396463,47.6198239 132.313739,69.1432765 C141.231015,90.6667292 136.304485,115.4425 119.831472,131.917229 C103.358459,148.391957 78.5832018,153.321069 57.0588203,144.406035 C35.5344389,135.491001 21.5000001,114.487571 21.5,91.19 C21.4999998,59.3807414 47.2847416,33.5933135 79.094,33.59 L79.094,33.59 Z M156.034,125.46 C154.471962,123.897882 154.472006,121.365259 156.034097,119.803194 C157.596189,118.24113 160.128811,118.24113 161.690903,119.803194 C163.252994,121.365259 163.253038,123.897882 161.691,125.46 C160.941894,126.212157 159.924055,126.634971 158.8625,126.634971 C157.800945,126.634971 156.783106,126.212157 156.034,125.46 L156.034,125.46 Z M2.168,126.6 C0.605962055,125.037882 0.606005558,122.505259 2.16809717,120.943194 C3.73018878,119.38113 6.26281122,119.38113 7.82490283,120.943194 C9.38699444,122.505259 9.38703795,125.037882 7.825,126.6 C7.07484856,127.35019 6.05740167,127.771646 4.9965,127.771646 C3.93559833,127.771646 2.91815144,127.35019 2.168,126.6 L2.168,126.6 Z M63.262,7.8 C61.6999621,6.23788156 61.7000056,3.70525911 63.2620972,2.14319434 C64.8241888,0.581129558 67.3568112,0.581129558 68.9189028,2.14319434 C70.4809944,3.70525911 70.4810379,6.23788156 68.919,7.8 C68.1688486,8.5501901 67.1514017,8.97164575 66.0905,8.97164575 C65.0295983,8.97164575 64.0121514,8.5501901 63.262,7.8 L63.262,7.8 Z M87.633,160.7 C88.3470582,159.464039 89.9220444,159.031743 91.167,159.73 C92.0839901,160.247985 92.5979223,161.267993 92.4685445,162.313193 C92.3391667,163.358392 91.5920378,164.222302 90.5764239,164.501064 C89.56081,164.779826 88.477347,164.41837 87.8325297,163.58567 C87.1877125,162.752969 87.1089256,161.613524 87.633,160.7 L87.633,160.7 Z M37.752,26.87 C38.4719678,25.6489738 40.0443697,25.2410258 41.267143,25.9580222 C42.4899164,26.6750186 42.9016869,28.2464239 42.1876661,29.4709372 C41.4736453,30.6954504 39.903246,31.111041 38.677,30.4 C37.4560253,29.6736674 37.0441252,28.1017677 37.752,26.87 L37.752,26.87 Z M145.97,82.68 C146.683701,81.4435768 148.259115,81.0111625 149.504,81.71 C150.42099,82.2279855 150.934922,83.2479934 150.805544,84.2931925 C150.676167,85.3383917 149.929038,86.2023018 148.913424,86.4810639 C147.89781,86.7598261 146.814347,86.3983705 146.16953,85.5656697 C145.524713,84.7329689 145.445926,83.5935239 145.97,82.68 L145.97,82.68 Z" id="Эллипс_1"></path>
                </g>
                <path d="M130.78,25.01 L31.73,25.01 C27.4635789,25.0166078 24.0066078,28.4735789 24,32.74 L24,131.79 C24.002758,136.058018 27.4619818,139.517242 31.73,139.52 L130.78,139.52 C135.048018,139.517242 138.507242,136.058018 138.51,131.79 L138.51,32.74 C138.503392,28.4735789 135.046421,25.0166078 130.78,25.01 L130.78,25.01 Z M135.85,32.74 L135.85,38.6 L86.64,38.6 L86.53,27.68 L130.78,27.68 C133.575273,27.682193 135.842288,29.9447365 135.85,32.74 L135.85,32.74 Z M119.45,110.56 C118.858289,105.988329 115.405124,102.309519 110.88,101.43 L110.88,90.26 L135.85,90.26 L135.85,110.56 L119.45,110.56 L119.45,110.56 Z M26.66,110.56 L26.66,66.29 L44.3,66.29 L44.3,110.56 L26.66,110.56 L26.66,110.56 Z M46.97,66.29 L53.83,66.29 C53.5847059,67.5620461 53.460816,68.8545194 53.46,70.15 C53.46,73.94 55.67,79.14 58.62,84.39 L58.62,110.56 L46.97,110.56 L46.97,66.29 L46.97,66.29 Z M56.13,70.15 C56.13,60.1287932 64.2537932,52.005 74.275,52.005 C84.2962068,52.005 92.42,60.1287932 92.42,70.15 C92.42,78.93 78.25,97.45 74.27,102.48 C70.29,97.45 56.13,78.93 56.13,70.15 L56.13,70.15 Z M84.11,51.83 C76.7708142,47.8787293 67.7797579,48.7018264 61.28,53.92 L61.28,27.68 L83.86,27.68 L84.11,51.83 Z M58.62,56.47 C56.7875802,58.5579773 55.3933261,60.992821 54.52,63.63 L46.97,63.63 L46.97,27.68 L58.62,27.68 L58.62,56.47 L58.62,56.47 Z M61.28,88.86 C64.9492665,94.6120372 68.9423674,100.150962 73.24,105.45 C73.4931211,105.758711 73.8707882,105.938378 74.27,105.94 C74.6696947,105.94051 75.0482287,105.760431 75.3,105.45 C76,104.61 90.19,87.24 94.09,75.35 L108.22,89.48 L108.22,101.27 C103.118616,101.590577 98.9639222,105.489275 98.32,110.56 L61.28,110.56 L61.28,88.86 L61.28,88.86 Z M98.32,113.23 C98.9317457,118.051552 102.728448,121.848254 107.55,122.46 L107.55,136.86 L61.28,136.86 L61.28,113.23 L98.32,113.23 L98.32,113.23 Z M108.88,119.88 C104.470008,119.877238 100.897241,116.299994 100.900003,111.890001 C100.902765,107.480009 104.480009,103.907242 108.890001,103.910003 C113.299993,103.912764 116.872761,107.490008 116.87,111.9 C116.858987,116.306565 113.286576,119.874506 108.88,119.88 L108.88,119.88 Z M110.1,87.6 L94.87,72.36 C95.0001338,71.6302905 95.070368,70.8911599 95.08,70.15 C95.079184,68.8545194 94.9552941,67.5620461 94.71,66.29 L135.85,66.29 L135.85,87.59 L110.1,87.59 L110.1,87.6 L110.1,87.6 Z M94.02,63.63 C92.6884312,59.6143216 90.1668121,56.0987033 86.79,53.55 L86.67,41.26 L135.85,41.26 L135.85,63.63 L94.02,63.63 L94.02,63.63 Z M31.73,27.68 L44.3,27.68 L44.3,63.63 L26.66,63.63 L26.66,32.74 C26.6644144,29.9433646 28.9333613,27.6788929 31.73,27.68 L31.73,27.68 Z M26.66,131.79 L26.66,113.23 L58.62,113.23 L58.62,136.86 L31.73,136.86 C28.9299163,136.86 26.66,134.590084 26.66,131.79 L26.66,131.79 Z M130.78,136.86 L110.21,136.86 L110.21,122.46 C115.035444,121.852473 118.837249,118.054784 119.45,113.23 L135.85,113.23 L135.85,131.79 C135.846144,134.588485 133.578485,136.856144 130.78,136.86 L130.78,136.86 Z M86.17,70.15 C86.17,63.5778115 80.8421885,58.25 74.27,58.25 C67.6978115,58.25 62.37,63.5778115 62.37,70.15 C62.37,76.7221885 67.6978115,82.05 74.27,82.05 C80.8385342,82.0411861 86.1611861,76.7185342 86.17,70.15 L86.17,70.15 Z M65.04,70.15 C65.0427622,65.0496514 69.1796505,60.917241 74.2799991,60.9200027 C79.3803477,60.9227644 83.5127585,65.0596523 83.5099973,70.1600009 C83.5072361,75.2603495 79.3703486,79.3927607 74.27,79.39 C69.1707946,79.3844814 65.039997,75.2492084 65.04,70.15 L65.04,70.15 Z" id="Forma_1" fill="#FC571F" sketch:type="MSShapeGroup"></path>
            </g>
        </g>
    </g>
</svg>