<?xml version="1.0" encoding="UTF-8" standalone="no"?>
<svg width="162px" height="164px" viewBox="0 0 162 164" version="1.1" xmlns="http://www.w3.org/2000/svg" xmlns:xlink="http://www.w3.org/1999/xlink" xmlns:sketch="http://www.bohemiancoding.com/sketch/ns">
    <!-- Generator: Sketch 3.4.4 (17249) - http://www.bohemiancoding.com/sketch -->
    <title>bag</title>
    <desc>Created with Sketch.</desc>
    <defs></defs>
    <g id="Page-1" stroke="none" stroke-width="1" fill="none" fill-rule="evenodd" sketch:type="MSPage">
        <g id="Desktop" sketch:type="MSArtboardGroup" transform="translate(-71.000000, -348.000000)">
            <g id="bag" sketch:type="MSLayerGroup" transform="translate(70.000000, 347.000000)">
                <g id="round" fill="#FFFFFF" sketch:type="MSShapeGroup">
                    <path d="M79.094,33.59 C102.391571,33.5875732 123.396463,47.6198239 132.313739,69.1432765 C141.231015,90.6667292 136.304485,115.4425 119.831472,131.917229 C103.358459,148.391957 78.5832018,153.321069 57.0588203,144.406035 C35.5344389,135.491001 21.5000001,114.487571 21.5,91.19 C21.4999998,59.3807414 47.2847416,33.5933135 79.094,33.59 L79.094,33.59 Z M156.034,125.46 C154.471962,123.897882 154.472006,121.365259 156.034097,119.803194 C157.596189,118.24113 160.128811,118.24113 161.690903,119.803194 C163.252994,121.365259 163.253038,123.897882 161.691,125.46 C160.941894,126.212157 159.924055,126.634971 158.8625,126.634971 C157.800945,126.634971 156.783106,126.212157 156.034,125.46 L156.034,125.46 Z M2.168,126.6 C0.605962055,125.037882 0.606005558,122.505259 2.16809717,120.943194 C3.73018878,119.38113 6.26281122,119.38113 7.82490283,120.943194 C9.38699444,122.505259 9.38703795,125.037882 7.825,126.6 C7.07484856,127.35019 6.05740167,127.771646 4.9965,127.771646 C3.93559833,127.771646 2.91815144,127.35019 2.168,126.6 L2.168,126.6 Z M63.262,7.8 C61.6999621,6.23788156 61.7000056,3.70525911 63.2620972,2.14319434 C64.8241888,0.581129558 67.3568112,0.581129558 68.9189028,2.14319434 C70.4809944,3.70525911 70.4810379,6.23788156 68.919,7.8 C68.1688486,8.5501901 67.1514017,8.97164575 66.0905,8.97164575 C65.0295983,8.97164575 64.0121514,8.5501901 63.262,7.8 L63.262,7.8 Z M87.633,160.7 C88.3470582,159.464039 89.9220444,159.031743 91.167,159.73 C92.0839901,160.247985 92.5979223,161.267993 92.4685445,162.313193 C92.3391667,163.358392 91.5920378,164.222302 90.5764239,164.501064 C89.56081,164.779826 88.477347,164.41837 87.8325297,163.58567 C87.1877125,162.752969 87.1089256,161.613524 87.633,160.7 L87.633,160.7 Z M37.752,26.87 C38.4719678,25.6489738 40.0443697,25.2410258 41.267143,25.9580222 C42.4899164,26.6750186 42.9016869,28.2464239 42.1876661,29.4709372 C41.4736453,30.6954504 39.903246,31.111041 38.677,30.4 C37.4560253,29.6736674 37.0441252,28.1017677 37.752,26.87 L37.752,26.87 Z M145.97,82.68 C146.683701,81.4435768 148.259115,81.0111625 149.504,81.71 C150.42099,82.2279855 150.934922,83.2479934 150.805544,84.2931925 C150.676167,85.3383917 149.929038,86.2023018 148.913424,86.4810639 C147.89781,86.7598261 146.814347,86.3983705 146.16953,85.5656697 C145.524713,84.7329689 145.445926,83.5935239 145.97,82.68 L145.97,82.68 Z" id="Эллипс_1"></path>
                </g>
                <path d="M139.586,109.72 L139.117,109.72 L139.117,97.03 L139.586,97.03 C140.350914,97.03 140.971,96.4099144 140.971,95.645 C140.971,94.8800856 140.350914,94.26 139.586,94.26 L139.077,94.26 C138.431354,83.5150542 129.781187,74.9895772 119.028,74.5 L119.028,50.39 C119.021903,40.630851 111.583237,32.4826884 101.865,31.59 L101.865,28.43 C101.860048,26.5420707 100.329933,25.013297 98.442,25.01 L64.526,25.01 C62.6391741,25.0144007 61.1108489,26.5431729 61.107,28.43 L61.107,31.59 C51.3880251,32.4821392 43.948182,40.6301673 43.941,50.39 L43.941,74.5 C33.1878129,74.9895772 24.5376464,83.5150542 23.892,94.26 L23.383,94.26 C22.6180856,94.26 21.998,94.8800856 21.998,95.645 C21.998,96.4099144 22.6180856,97.03 23.383,97.03 L23.85,97.03 L23.85,109.72 L23.381,109.72 C22.6160856,109.72 21.996,110.340086 21.996,111.105 C21.996,111.869914 22.6160856,112.49 23.381,112.49 L23.85,112.49 L23.85,116.74 C23.854407,121.734789 27.9012133,125.783385 32.896,125.79 L43.939,125.79 L43.939,126.63 C43.946162,132.988571 49.0984306,138.141734 55.457,138.15 L107.507,138.15 C113.865569,138.141734 119.017838,132.988571 119.025,126.63 L119.025,125.79 L130.07,125.79 C135.064787,125.783385 139.111593,121.734789 139.116,116.74 L139.116,112.49 L139.586,112.49 C140.350914,112.49 140.971,111.869914 140.971,111.105 C140.971,110.340086 140.350914,109.72 139.586,109.72 L139.586,109.72 Z M136.347,109.72 L119.028,109.72 L119.028,97.03 L136.35,97.03 L136.35,109.72 L136.347,109.72 Z M136.301,94.26 L119.028,94.26 L119.028,77.27 C128.251138,77.7562115 135.662506,85.0461512 136.301,94.26 L136.301,94.26 Z M116.241,49.7 C113.590527,56.5916775 108.947488,62.5377747 102.904,66.78 C100.882635,68.1982739 98.7265734,69.4141358 96.467,70.41 L96.467,65.35 L98.018,65.35 C98.781193,65.3505546 99.4007944,64.73319 99.403,63.97 L99.403,58.09 C99.4007944,57.32681 98.781193,56.7094454 98.018,56.71 L96.467,56.71 L96.467,34.27 L100.15,34.27 C108.777515,34.2811978 115.868131,41.0805385 116.241,49.7 L116.241,49.7 Z M69.441,59.48 L69.441,62.58 L66.341,62.58 L66.341,59.48 L69.441,59.48 L69.441,59.48 Z M70.826,65.35 C71.589193,65.3505546 72.2087944,64.73319 72.211,63.97 L72.211,58.09 C72.2087944,57.32681 71.589193,56.7094454 70.826,56.71 L69.275,56.71 L69.275,34.27 L93.702,34.27 L93.702,56.71 L92.15,56.71 C91.3871973,56.7099968 90.7682046,57.3272005 90.766,58.09 L90.766,63.97 C90.7682046,64.7327995 91.3871973,65.3500032 92.15,65.35 L93.702,65.35 L93.702,71.5 C85.7890554,74.2333198 77.1879446,74.2333198 69.275,71.5 L69.275,65.35 L70.826,65.35 L70.826,65.35 Z M93.535,62.58 L93.535,59.48 L96.635,59.48 L96.635,62.58 L93.535,62.58 L93.535,62.58 Z M64.535,27.78 L98.45,27.78 C98.623002,27.7792025 98.7892062,27.8473004 98.9119131,27.9692567 C99.0346199,28.091213 99.1037361,28.2569964 99.104,28.43 L99.104,31.5 L63.884,31.5 L63.884,28.43 C63.8839793,28.0737309 64.1707516,27.7838367 64.527,27.78 L64.535,27.78 Z M62.824,34.27 L66.509,34.27 L66.509,56.71 L64.95,56.71 C64.186807,56.7094454 63.5672056,57.32681 63.565,58.09 L63.565,63.97 C63.5672056,64.73319 64.186807,65.3505546 64.95,65.35 L66.501,65.35 L66.501,70.41 C64.2415368,69.4139157 62.0854964,68.1980657 60.064,66.78 C54.0210596,62.5371982 49.3781653,56.5912857 46.727,49.7 C47.1003368,41.0815378 54.1894649,34.282778 62.816,34.27 L62.824,34.27 Z M43.949,77.27 L43.949,94.26 L26.668,94.26 C27.3064943,85.0461512 34.7178616,77.7562115 43.941,77.27 L43.949,77.27 Z M26.629,97.03 L43.949,97.03 L43.949,109.72 L26.629,109.72 L26.629,97.03 L26.629,97.03 Z M32.906,123.02 C29.4406507,123.013941 26.6334036,120.205352 26.629,116.74 L26.629,112.49 L43.949,112.49 L43.949,123.02 L32.898,123.02 L32.906,123.02 Z M116.267,126.63 C116.263691,131.46112 112.34812,135.376691 107.517,135.38 L55.46,135.38 C50.6288799,135.376691 46.7133094,131.46112 46.71,126.63 L46.71,56.11 C49.6297004,61.2339524 53.6458167,65.6492559 58.471,69.04 C60.968952,70.8067157 63.6640943,72.2766103 66.502,73.42 L66.502,80.19 C66.4884669,80.6935059 66.7493513,81.1646658 67.1832844,81.4204066 C67.6172175,81.6761474 68.1557825,81.6761474 68.5897156,81.4204066 C69.0236487,81.1646658 69.2845331,80.6935059 69.271,80.19 L69.271,74.42 C77.216282,76.9533435 85.752718,76.9533435 93.698,74.42 L93.698,80.19 C93.6844669,80.6935059 93.9453513,81.1646658 94.3792844,81.4204066 C94.8132175,81.6761474 95.3517825,81.6761474 95.7857156,81.4204066 C96.2196487,81.1646658 96.4805331,80.6935059 96.467,80.19 L96.467,73.42 C99.3049057,72.2766103 102.000048,70.8067157 104.498,69.04 C109.322294,65.652376 113.338377,61.2405246 116.259,56.12 L116.259,126.63 L116.259,126.63 L116.267,126.63 Z M136.355,116.74 C136.350596,120.205352 133.543349,123.013941 130.078,123.02 L119.028,123.02 L119.028,112.49 L136.35,112.49 L136.35,116.74 L136.355,116.74 Z M103.813,91.48 L59.164,91.48 C57.6693935,91.4838533 56.4591979,92.6953901 56.457,94.19 L56.457,114.28 C56.4630605,121.824879 62.5761247,127.940627 70.121,127.95 L92.85,127.95 C100.394875,127.940627 106.507939,121.824879 106.514,114.28 L106.514,94.19 C106.51125,92.694839 105.30016,91.4833017 103.805,91.48 L103.813,91.48 Z M81.492,100.76 C80.7291973,100.759997 80.1102046,101.3772 80.108,102.14 L80.108,106.63 L68.808,106.63 C63.5206342,106.622287 59.2366091,102.337367 59.23,97.05 L59.23,94.25 L103.746,94.25 L103.746,97.05 C103.739391,102.337367 99.4553658,106.622287 94.168,106.63 L82.868,106.63 L82.868,102.14 C82.86747,101.773471 82.7213582,101.422164 82.4618078,101.163364 C82.2022574,100.904564 81.8505293,100.759469 81.484,100.76 L81.492,100.76 Z M103.75,114.28 C103.744493,120.295279 98.8712754,125.171181 92.856,125.18 L70.12,125.18 C64.1047246,125.171181 59.2315071,120.295279 59.226,114.28 L59.226,104.83 C61.5645867,107.721738 65.0849763,109.40144 68.804,109.4 L80.104,109.4 L80.104,116.98 C80.0904669,117.483506 80.3513513,117.954666 80.7852844,118.210407 C81.2192175,118.466147 81.7577825,118.466147 82.1917156,118.210407 C82.6256487,117.954666 82.8865331,117.483506 82.873,116.98 L82.873,109.4 L94.173,109.4 C97.8917059,109.401282 101.411725,107.721582 103.75,104.83 L103.75,114.28 L103.75,114.28 Z" id="Forma_1" fill="#FC571F" sketch:type="MSShapeGroup"></path>
            </g>
        </g>
    </g>
</svg>