<?xml version="1.0" encoding="UTF-8" standalone="no"?>
<svg width="164px" height="162px" viewBox="0 0 164 162" version="1.1" xmlns="http://www.w3.org/2000/svg" xmlns:xlink="http://www.w3.org/1999/xlink" xmlns:sketch="http://www.bohemiancoding.com/sketch/ns">
    <!-- Generator: Sketch 3.4.4 (17249) - http://www.bohemiancoding.com/sketch -->
    <title>bus</title>
    <desc>Created with Sketch.</desc>
    <defs></defs>
    <g id="Page-1" stroke="none" stroke-width="1" fill="none" fill-rule="evenodd" sketch:type="MSPage">
        <g id="Desktop" sketch:type="MSArtboardGroup" transform="translate(-324.000000, -349.000000)">
            <g id="bus" sketch:type="MSLayerGroup" transform="translate(324.000000, 348.000000)">
                <g id="round" transform="translate(82.500000, 81.500000) rotate(90.000000) translate(-82.500000, -81.500000) translate(1.000000, -1.000000)" fill="#FFFFFF" sketch:type="MSShapeGroup">
                    <path d="M79.094,33.59 C102.391571,33.5875732 123.396463,47.6198239 132.313739,69.1432765 C141.231015,90.6667292 136.304485,115.4425 119.831472,131.917229 C103.358459,148.391957 78.5832018,153.321069 57.0588203,144.406035 C35.5344389,135.491001 21.5000001,114.487571 21.5,91.19 C21.4999998,59.3807414 47.2847416,33.5933135 79.094,33.59 L79.094,33.59 Z M156.034,125.46 C154.471962,123.897882 154.472006,121.365259 156.034097,119.803194 C157.596189,118.24113 160.128811,118.24113 161.690903,119.803194 C163.252994,121.365259 163.253038,123.897882 161.691,125.46 C160.941894,126.212157 159.924055,126.634971 158.8625,126.634971 C157.800945,126.634971 156.783106,126.212157 156.034,125.46 L156.034,125.46 Z M2.168,126.6 C0.605962055,125.037882 0.606005558,122.505259 2.16809717,120.943194 C3.73018878,119.38113 6.26281122,119.38113 7.82490283,120.943194 C9.38699444,122.505259 9.38703795,125.037882 7.825,126.6 C7.07484856,127.35019 6.05740167,127.771646 4.9965,127.771646 C3.93559833,127.771646 2.91815144,127.35019 2.168,126.6 L2.168,126.6 Z M63.262,7.8 C61.6999621,6.23788156 61.7000056,3.70525911 63.2620972,2.14319434 C64.8241888,0.581129558 67.3568112,0.581129558 68.9189028,2.14319434 C70.4809944,3.70525911 70.4810379,6.23788156 68.919,7.8 C68.1688486,8.5501901 67.1514017,8.97164575 66.0905,8.97164575 C65.0295983,8.97164575 64.0121514,8.5501901 63.262,7.8 L63.262,7.8 Z M87.633,160.7 C88.3470582,159.464039 89.9220444,159.031743 91.167,159.73 C92.0839901,160.247985 92.5979223,161.267993 92.4685445,162.313193 C92.3391667,163.358392 91.5920378,164.222302 90.5764239,164.501064 C89.56081,164.779826 88.477347,164.41837 87.8325297,163.58567 C87.1877125,162.752969 87.1089256,161.613524 87.633,160.7 L87.633,160.7 Z M37.752,26.87 C38.4719678,25.6489738 40.0443697,25.2410258 41.267143,25.9580222 C42.4899164,26.6750186 42.9016869,28.2464239 42.1876661,29.4709372 C41.4736453,30.6954504 39.903246,31.111041 38.677,30.4 C37.4560253,29.6736674 37.0441252,28.1017677 37.752,26.87 L37.752,26.87 Z M145.97,82.68 C146.683701,81.4435768 148.259115,81.0111625 149.504,81.71 C150.42099,82.2279855 150.934922,83.2479934 150.805544,84.2931925 C150.676167,85.3383917 149.929038,86.2023018 148.913424,86.4810639 C147.89781,86.7598261 146.814347,86.3983705 146.16953,85.5656697 C145.524713,84.7329689 145.445926,83.5935239 145.97,82.68 L145.97,82.68 Z" id="Эллипс_1"></path>
                </g>
                <path d="M117.032,112.72 L86.268,112.72 C85.4036744,112.72 84.703,113.420674 84.703,114.285 C84.703,115.149326 85.4036744,115.85 86.268,115.85 L117.032,115.85 C117.896326,115.85 118.597,115.149326 118.597,114.285 C118.597,113.420674 117.896326,112.72 117.032,112.72 L117.032,112.72 Z M117.032,105.45 L86.268,105.45 C85.4009129,105.45 84.698,106.152913 84.698,107.02 C84.698,107.887087 85.4009129,108.59 86.268,108.59 L117.032,108.59 C117.899087,108.59 118.602,107.887087 118.602,107.02 C118.602,106.152913 117.899087,105.45 117.032,105.45 L117.032,105.45 Z M148.832,34.66 L148.832,33.2 C148.832555,29.2327466 145.61925,26.0149666 141.652,26.01 L62.175,26.01 C58.2059302,26.0133104 54.989654,29.2309292 54.988,33.2 L54.988,34.68 C51.1495817,35.1537286 48.2651746,38.4124612 48.261,42.28 L48.261,71.39 C48.2637497,74.424085 50.7209198,76.8839386 53.755,76.89 L54.987,76.89 L54.987,117.6 C54.9905371,121.870767 57.3116766,125.803149 61.049,127.87 L61.049,135.59 C61.0495417,136.454523 61.7484856,137.156148 62.613,137.16 L76.301,137.16 C77.1652862,137.155602 77.8639116,136.454297 77.865,135.59 L77.865,129.33 L125.97,129.33 L125.97,135.59 C125.970528,136.452972 126.667049,137.153958 127.53,137.16 L141.22,137.16 C142.082951,137.153958 142.779472,136.452972 142.78,135.59 L142.78,127.87 C146.516551,125.802626 148.836866,121.870344 148.84,117.6 L148.84,76.89 L150.18,76.89 C153.21366,76.8844842 155.670005,74.4236652 155.67,71.39 L155.67,42.28 C155.66775,38.3688275 152.722927,35.085792 148.835,34.66 L148.832,34.66 Z M152.532,42.28 L152.532,46.12 C151.795734,45.765438 150.989191,45.5808902 150.172,45.58 L148.832,45.58 L148.832,37.83 C150.978726,38.2249321 152.536746,40.0972488 152.535,42.28 L152.532,42.28 Z M62.175,29.14 L141.66,29.14 C143.898141,29.1460624 145.709457,30.9618507 145.71,33.2 L145.71,36.18 L58.111,36.18 L58.111,33.2 C58.1126562,30.9568482 59.9318477,29.1394473 62.175,29.14 L62.175,29.14 Z M137.31,115.24 L137.31,108.59 L145.71,108.59 L145.71,115.24 L137.31,115.24 L137.31,115.24 Z M125.77,115.24 L125.77,108.59 L134.18,108.59 L134.18,115.24 L125.77,115.24 L125.77,115.24 Z M124.206,105.45 C123.341486,105.453852 122.642542,106.155477 122.642,107.02 L122.642,116.8 C122.64256,118.530114 121.243106,119.934488 119.513,119.94 L84.313,119.94 C82.5830561,119.934487 81.1838886,118.529952 81.185,116.8 L81.185,107.02 C81.1839116,106.155703 80.4852862,105.454398 79.621,105.45 L58.111,105.45 L58.111,98.41 L145.705,98.41 L145.705,105.45 L124.205,105.45 L124.206,105.45 Z M58.116,108.59 L66.524,108.59 L66.524,115.24 L58.116,115.24 L58.116,108.59 L58.116,108.59 Z M69.652,108.59 L78.06,108.59 L78.06,115.24 L69.652,115.24 L69.652,108.59 L69.652,108.59 Z M123.534,39.31 L102.794,95.28 L76.575,95.28 L97.314,39.31 L123.529,39.31 L123.534,39.31 Z M106.134,95.28 L126.873,39.31 L132.123,39.31 L111.375,95.28 L106.127,95.28 L106.134,95.28 Z M54.99,37.85 L54.99,45.58 L53.758,45.58 C52.9393244,45.5819376 52.1313839,45.7664145 51.393,46.12 L51.393,42.28 C51.3943245,40.1415179 52.890323,38.2949663 54.982,37.85 L54.99,37.85 Z M51.39,71.39 L51.39,51.07 C51.3933067,49.7660283 52.4510242,48.7105469 53.755,48.71 L59.974,48.71 C61.2779758,48.7105469 62.3356933,49.7660283 62.339,51.07 L62.339,71.39 C62.3356933,72.6939717 61.2779758,73.7494531 59.974,73.75 L53.755,73.75 C52.4490728,73.752212 51.3883099,72.6959248 51.385,71.39 L51.39,71.39 Z M59.974,76.89 C63.0080802,76.8839386 65.4652503,74.424085 65.468,71.39 L65.468,51.07 C65.4624903,48.0386806 63.0053226,45.5833019 59.974,45.58 L58.116,45.58 L58.116,39.31 L93.975,39.31 L73.235,95.28 L58.111,95.28 L58.111,76.89 L59.969,76.89 L59.974,76.89 Z M74.736,134.02 L64.175,134.02 L64.175,129.05 C65.0056642,129.234925 65.8540013,129.328812 66.705,129.33 L74.733,129.33 L74.733,134.02 L74.736,134.02 Z M139.65,134.02 L129.09,134.02 L129.09,129.33 L137.12,129.33 C137.971017,129.329146 138.819391,129.235255 139.65,129.05 L139.65,134.02 L139.65,134.02 Z M137.12,126.2 L66.703,126.2 C62.2568347,126.191337 58.5488414,122.797977 58.147,118.37 L78.261,118.37 C78.9731028,121.131752 81.460926,123.063802 84.313,123.07 L119.513,123.07 C122.364536,123.066007 124.851821,121.132457 125.559,118.37 L145.679,118.37 C145.27597,122.800578 141.563868,126.194525 137.115,126.2 L137.12,126.2 Z M145.71,95.28 L114.711,95.28 L135.455,39.31 L145.705,39.31 L145.705,45.58 L143.955,45.58 C140.923643,45.5816551 138.466655,48.0386426 138.465,51.07 L138.465,71.39 C138.464995,74.4236652 140.92134,76.8844842 143.955,76.89 L145.705,76.89 L145.705,95.28 L145.71,95.28 Z M152.54,71.39 C152.537798,72.6924788 151.482479,73.747798 150.18,73.75 L143.96,73.75 C142.657521,73.747798 141.602202,72.6924788 141.6,71.39 L141.6,51.07 C141.602202,49.7675212 142.657521,48.712202 143.96,48.71 L150.18,48.71 C151.482479,48.712202 152.537798,49.7675212 152.54,51.07 L152.54,71.39 L152.54,71.39 Z M34.261,52.54 L11.575,52.54 C11.1592417,52.5402635 10.7606755,52.7059504 10.4672533,53.0004982 C10.1738311,53.295046 10.0096716,53.6942438 10.011,54.11 L10.011,93.64 C10.0126552,94.5024398 10.7125588,95.2005534 11.575,95.2 L21.352,95.2 L21.352,135.59 C21.352,136.453773 22.0522267,137.154 22.916,137.154 C23.7797733,137.154 24.48,136.453773 24.48,135.59 L24.48,95.2 L34.257,95.2 C35.1194412,95.2005534 35.8193448,94.5024398 35.821,93.64 L35.821,54.11 C35.8223289,53.6940706 35.6580322,53.294721 35.3643936,53.0001442 C35.0707551,52.7055675 34.6719316,52.5399979 34.256,52.54 L34.261,52.54 Z M32.697,92.07 L13.139,92.07 L13.139,55.67 L32.692,55.67 L32.692,92.07 L32.697,92.07 Z M17.836,63.27 L28.004,63.27 C28.8683256,63.27 29.569,62.5693256 29.569,61.705 C29.569,60.8406744 28.8683256,60.14 28.004,60.14 L17.831,60.14 C16.9666744,60.14 16.266,60.8406744 16.266,61.705 C16.266,62.5693256 16.9666744,63.27 17.831,63.27 L17.836,63.27 Z M17.836,71.38 L28.004,71.38 C28.8683256,71.38 29.569,70.6793256 29.569,69.815 C29.569,68.9506744 28.8683256,68.25 28.004,68.25 L17.831,68.25 C16.9666744,68.25 16.266,68.9506744 16.266,69.815 C16.266,70.6793256 16.9666744,71.38 17.831,71.38 L17.836,71.38 Z M17.836,79.49 L28.004,79.49 C28.8683256,79.49 29.569,78.7893256 29.569,77.925 C29.569,77.0606744 28.8683256,76.36 28.004,76.36 L17.831,76.36 C16.9666744,76.36 16.266,77.0606744 16.266,77.925 C16.266,78.7893256 16.9666744,79.49 17.831,79.49 L17.836,79.49 Z M17.836,87.61 L28.004,87.61 C28.8683256,87.61 29.569,86.9093256 29.569,86.045 C29.569,85.1806744 28.8683256,84.48 28.004,84.48 L17.831,84.48 C16.9666744,84.48 16.266,85.1806744 16.266,86.045 C16.266,86.9093256 16.9666744,87.61 17.831,87.61 L17.836,87.61 Z" id="Forma_1" fill="#FC571F" sketch:type="MSShapeGroup"></path>
            </g>
        </g>
    </g>
</svg>