<?xml version="1.0" encoding="UTF-8" standalone="no"?>
<svg width="162px" height="164px" viewBox="0 0 162 164" version="1.1" xmlns="http://www.w3.org/2000/svg" xmlns:xlink="http://www.w3.org/1999/xlink" xmlns:sketch="http://www.bohemiancoding.com/sketch/ns">
    <!-- Generator: Sketch 3.4.4 (17249) - http://www.bohemiancoding.com/sketch -->
    <title>network</title>
    <desc>Created with Sketch.</desc>
    <defs></defs>
    <g id="Page-1" stroke="none" stroke-width="1" fill="none" fill-rule="evenodd" sketch:type="MSPage">
        <g id="Desktop" sketch:type="MSArtboardGroup" transform="translate(-777.000000, -348.000000)">
            <g id="network" sketch:type="MSLayerGroup" transform="translate(776.000000, 347.000000)">
                <g id="round" fill="#FFFFFF" sketch:type="MSShapeGroup">
                    <path d="M79.094,33.59 C102.391571,33.5875732 123.396463,47.6198239 132.313739,69.1432765 C141.231015,90.6667292 136.304485,115.4425 119.831472,131.917229 C103.358459,148.391957 78.5832018,153.321069 57.0588203,144.406035 C35.5344389,135.491001 21.5000001,114.487571 21.5,91.19 C21.4999998,59.3807414 47.2847416,33.5933135 79.094,33.59 L79.094,33.59 Z M156.034,125.46 C154.471962,123.897882 154.472006,121.365259 156.034097,119.803194 C157.596189,118.24113 160.128811,118.24113 161.690903,119.803194 C163.252994,121.365259 163.253038,123.897882 161.691,125.46 C160.941894,126.212157 159.924055,126.634971 158.8625,126.634971 C157.800945,126.634971 156.783106,126.212157 156.034,125.46 L156.034,125.46 Z M2.168,126.6 C0.605962055,125.037882 0.606005558,122.505259 2.16809717,120.943194 C3.73018878,119.38113 6.26281122,119.38113 7.82490283,120.943194 C9.38699444,122.505259 9.38703795,125.037882 7.825,126.6 C7.07484856,127.35019 6.05740167,127.771646 4.9965,127.771646 C3.93559833,127.771646 2.91815144,127.35019 2.168,126.6 L2.168,126.6 Z M63.262,7.8 C61.6999621,6.23788156 61.7000056,3.70525911 63.2620972,2.14319434 C64.8241888,0.581129558 67.3568112,0.581129558 68.9189028,2.14319434 C70.4809944,3.70525911 70.4810379,6.23788156 68.919,7.8 C68.1688486,8.5501901 67.1514017,8.97164575 66.0905,8.97164575 C65.0295983,8.97164575 64.0121514,8.5501901 63.262,7.8 L63.262,7.8 Z M87.633,160.7 C88.3470582,159.464039 89.9220444,159.031743 91.167,159.73 C92.0839901,160.247985 92.5979223,161.267993 92.4685445,162.313193 C92.3391667,163.358392 91.5920378,164.222302 90.5764239,164.501064 C89.56081,164.779826 88.477347,164.41837 87.8325297,163.58567 C87.1877125,162.752969 87.1089256,161.613524 87.633,160.7 L87.633,160.7 Z M37.752,26.87 C38.4719678,25.6489738 40.0443697,25.2410258 41.267143,25.9580222 C42.4899164,26.6750186 42.9016869,28.2464239 42.1876661,29.4709372 C41.4736453,30.6954504 39.903246,31.111041 38.677,30.4 C37.4560253,29.6736674 37.0441252,28.1017677 37.752,26.87 L37.752,26.87 Z M145.97,82.68 C146.683701,81.4435768 148.259115,81.0111625 149.504,81.71 C150.42099,82.2279855 150.934922,83.2479934 150.805544,84.2931925 C150.676167,85.3383917 149.929038,86.2023018 148.913424,86.4810639 C147.89781,86.7598261 146.814347,86.3983705 146.16953,85.5656697 C145.524713,84.7329689 145.445926,83.5935239 145.97,82.68 L145.97,82.68 Z" id="Эллипс_1"></path>
                </g>
                <path d="M81.81,31.94 C77.1572444,31.9394222 72.6969264,33.796988 69.42,37.1 L69.35,37.17 C62.574356,44.0416768 62.6381034,55.1007676 69.4925147,61.8938773 C76.346926,68.686987 87.4061433,68.6513839 94.2166746,61.8142824 C101.027206,54.977181 101.019747,43.9179089 94.2,37.09 L94.19,37.1 C90.9158942,33.798885 86.4594222,31.9414217 81.81,31.94 L81.81,31.94 L81.81,31.94 Z M67.34,35.01 C71.1673665,31.1567469 76.3739509,28.9898223 81.805,28.9898223 C87.2360491,28.9898223 92.4426335,31.1567469 96.27,35.01 L96.27,35.01 L96.27,35.02 C104.245348,42.9969113 104.257867,55.9245154 96.2979841,63.9168586 C88.3381014,71.9092019 75.4105534,71.9492942 67.4012509,64.0064764 C59.3919484,56.0636585 59.3242832,43.1362254 67.25,35.11 L67.34,35.01 Z M81.81,39.58 C79.788769,39.5734108 78.0447343,40.9964077 77.6455783,42.9778447 C77.2464223,44.9592817 78.3034668,46.9465497 80.1695988,47.7230609 C82.0357308,48.4995722 84.1904986,47.8487632 85.3147729,46.1690532 C86.4390472,44.4893432 86.2192755,42.249192 84.79,40.82 C84.0024946,40.0247346 82.9291999,39.5781287 81.81,39.58 L81.81,39.58 L81.81,39.58 Z M76.74,38.73 C79.1697503,36.2864865 82.9877481,35.9009288 85.8569733,37.8093292 C88.7261984,39.7177296 89.8465898,43.3879456 88.5323489,46.5734151 C87.2181081,49.7588846 83.8357008,51.5713643 80.4555195,50.9014242 C77.0753383,50.2314841 74.6399203,47.2659317 74.64,43.82 C74.6305373,41.910652 75.3869643,40.077217 76.74,38.73 L76.74,38.73 Z M74.39,54.36 C74.0785238,54.7075745 73.794346,55.0786771 73.54,55.47 C73.2011438,55.9787931 72.9099116,56.51774 72.67,57.08 C73.6991853,58.3362751 74.9755934,59.3676128 76.42,60.11 C81.3681789,62.6560333 87.4230476,61.3925173 90.94,57.08 C90.6992444,56.5200435 90.411552,55.9814566 90.08,55.47 L90.02,55.38 C89.7823403,55.020869 89.5182774,54.6799271 89.23,54.36 C88.3406113,54.9956778 87.3725378,55.5133282 86.35,55.9 C84.8982374,56.4450669 83.3607088,56.7261569 81.81,56.73 C80.2555165,56.731914 78.7136849,56.4506568 77.26,55.9 C76.2397835,55.5150883 75.2747944,54.9972893 74.39,54.36 L74.39,54.36 L74.39,54.36 Z M71.09,53.84 C71.7171684,52.9009543 72.4596284,52.0442697 73.3,51.29 L73.3,51.29 C73.8563861,50.8028972 74.6886651,50.8071873 75.24,51.3 C76.1423451,52.0930812 77.1784549,52.7194874 78.3,53.15 C81.7268275,54.4517789 85.5928417,53.7471169 88.34,51.32 C88.8923541,50.8040587 89.7472848,50.7953792 90.31,51.3 C91.1215196,52.017946 91.8403936,52.8342375 92.45,53.73 L92.52,53.83 C93.142398,54.7702296 93.6367475,55.7891949 93.99,56.86 L93.99,56.86 C94.1403629,57.3064841 94.065876,57.7980976 93.79,58.18 C92.420335,60.090542 90.6178571,61.6497197 88.53,62.73 C84.3100477,64.9033152 79.2999523,64.9033152 75.08,62.73 C72.9921429,61.6497197 71.189665,60.090542 69.82,58.18 C69.5452255,57.7976482 69.4708223,57.306587 69.62,56.86 C69.975331,55.7931792 70.4695784,54.7777866 71.09,53.84 L71.09,53.84 Z M41.45,98.06 C33.0764382,98.0461388 25.8595683,103.95018 24.2141101,112.16049 C22.5686519,120.370801 26.9530487,128.599894 34.6852677,131.813851 C42.4174866,135.027808 51.3432432,132.331184 56.0024537,125.373563 C60.6616642,118.415942 59.7562194,109.135798 53.84,103.21 C50.5623727,99.9092464 46.1016439,98.0551098 41.45,98.06 L41.45,98.06 L41.45,98.06 Z M26.99,101.12 C33.9265256,94.1367335 44.8317986,93.0303026 53.0295563,98.4780698 C61.2273139,103.925837 64.4311881,114.408411 60.6797511,123.508308 C56.928314,132.608204 47.2678476,137.787447 37.6125378,135.875278 C27.9572281,133.963109 20.9999566,125.492835 21,115.65 C20.9723078,110.200332 23.1298001,104.966882 26.99,101.12 L26.99,101.12 Z M41.45,105.69 C40.3306665,105.687456 39.2571226,106.134166 38.47,106.93 C37.3715751,107.99128 36.9295369,109.561707 37.3130952,111.04013 C37.6966535,112.518554 38.8464068,113.67601 40.3222358,114.069433 C41.7980649,114.462855 43.3714087,114.031313 44.44,112.94 L44.44,112.94 L44.44,112.93 C45.2380303,112.136156 45.6846524,111.055619 45.68,109.93 C45.6780438,108.805689 45.2324269,107.727583 44.44,106.93 L44.36,106.85 C43.5764129,106.101714 42.5334781,105.685973 41.45,105.69 L41.45,105.69 L41.45,105.69 Z M36.39,104.84 C39.1418953,102.062063 43.6186985,102.021892 46.42,104.75 L46.52,104.84 C49.3197786,107.655822 49.3197786,112.204178 46.52,115.02 L46.52,115.02 C43.7015136,117.77309 39.1911057,117.741069 36.4119925,114.948238 C33.6328793,112.155408 33.6230657,107.644897 36.39,104.84 L36.39,104.84 Z M34.03,120.47 C33.7248056,120.820241 33.4441392,121.191122 33.19,121.58 L33.18,121.58 L33.19,121.59 C32.8514536,122.098979 32.5602371,122.637897 32.32,123.2 C34.5588867,125.944529 37.9131002,127.537001 41.455,127.537001 C44.9968998,127.537001 48.3511133,125.944529 50.59,123.2 C50.3519537,122.633669 50.0606451,122.091232 49.72,121.58 C49.4682545,121.192594 49.1874467,120.82487 48.88,120.48 C47.9881242,121.111664 47.0205807,121.629031 46,122.02 C42.0029931,123.547206 37.5061814,122.964912 34.03,120.47 L34.03,120.47 L34.03,120.47 Z M30.74,119.95 C31.3566559,119.020796 32.0892246,118.173974 32.92,117.43 C33.4743986,116.919192 34.325345,116.910553 34.89,117.41 C35.7846282,118.208469 36.8184962,118.835569 37.94,119.26 C41.3689,120.557436 45.2338568,119.857513 47.99,117.44 C48.541817,116.926308 49.3927971,116.913349 49.96,117.41 C50.7950735,118.162898 51.5339963,119.016018 52.16,119.95 C52.7777897,120.890754 53.275012,121.905356 53.64,122.97 L53.63,122.97 C53.7854063,123.419312 53.7106766,123.916264 53.43,124.3 C52.0640683,126.21016 50.2649097,127.76943 48.18,128.85 C43.9600477,131.023315 38.9499523,131.023315 34.73,128.85 C32.6421429,127.76972 30.839665,126.210542 29.47,124.3 C29.1896498,123.91613 29.1149452,123.419344 29.27,122.97 C29.6232971,121.902351 30.1176717,120.886697 30.74,119.95 L30.74,119.95 L30.74,119.95 Z M122.16,98.06 C113.785508,98.0413559 106.564732,103.942571 104.91557,112.153096 C103.266408,120.363622 107.648444,128.595372 115.38061,131.811903 C123.112776,135.028434 132.040294,132.333372 136.701029,125.375642 C141.361763,118.417911 140.456874,109.136472 134.54,103.21 C131.264435,99.912273 126.808045,98.0584435 122.16,98.06 L122.16,98.06 L122.16,98.06 Z M107.7,101.12 C111.527367,97.2667469 116.733951,95.0998223 122.165,95.0998223 C127.596049,95.0998223 132.802633,97.2667469 136.63,101.12 C144.616546,109.160463 144.616546,122.139537 136.63,130.18 C130.768897,136.03635 121.95494,137.780815 114.304918,134.598598 C106.654895,131.416381 101.678465,123.935463 101.7,115.65 C101.695906,110.203012 103.853892,104.97709 107.7,101.12 L107.7,101.12 Z M122.16,105.69 C121.036726,105.69106 119.95991,106.138433 119.166573,106.933645 C118.373237,107.728857 117.928408,108.806727 117.93,109.93 C117.929996,111.054701 118.37591,112.133524 119.17,112.93 C119.957516,113.728286 121.031558,114.178505 122.152914,114.180383 C123.27427,114.182262 124.349814,113.735643 125.14,112.94 L125.15,112.94 L125.14,112.93 C126.793351,111.271696 126.793351,108.588304 125.14,106.93 L125.07,106.85 C124.286413,106.101714 123.243478,105.685973 122.16,105.69 L122.16,105.69 L122.16,105.69 Z M117.09,104.84 C119.845783,102.061971 124.324858,102.02182 127.13,104.75 L127.23,104.84 C130.016726,107.661194 130.016726,112.198806 127.23,115.02 L127.22,115.02 C125.883276,116.371563 124.060935,117.131473 122.16,117.13 C119.258358,117.10851 116.652102,115.350347 115.545516,112.667912 C114.43893,109.985477 115.047491,106.901104 117.09,104.84 L117.09,104.84 Z M114.74,120.47 C114.431589,120.820104 114.147587,121.190977 113.89,121.58 L113.89,121.58 L113.89,121.59 C113.551454,122.098979 113.260237,122.637897 113.02,123.2 C114.049185,124.456275 115.325593,125.487613 116.77,126.23 C120.154309,127.963314 124.165691,127.963314 127.55,126.23 C128.994407,125.487613 130.270815,124.456275 131.3,123.2 C131.06193,122.636854 130.770607,122.097738 130.43,121.59 L130.37,121.5 C130.13255,121.143334 129.871992,120.802604 129.59,120.48 C128.695844,121.113768 127.724721,121.631253 126.7,122.02 C122.706105,123.54544 118.213091,122.963151 114.74,120.47 L114.74,120.47 L114.74,120.47 Z M111.45,119.95 C112.063633,119.018505 112.796522,118.171312 113.63,117.43 C114.184399,116.919192 115.035345,116.910553 115.6,117.41 C116.494628,118.208469 117.528496,118.835569 118.65,119.26 C120.912202,120.11334 123.407798,120.11334 125.67,119.26 C126.782773,118.843675 127.80976,118.226805 128.7,117.44 C129.251817,116.926308 130.102797,116.913349 130.67,117.41 C131.475898,118.134364 132.191105,118.953662 132.8,119.85 L132.87,119.95 C133.489711,120.889657 133.987056,121.90451 134.35,122.97 L134.34,122.97 C134.495406,123.419312 134.420677,123.916264 134.14,124.3 C129.90607,130.256801 121.937375,132.195708 115.44,128.85 C113.352143,127.76972 111.549665,126.210542 110.18,124.3 C109.90058,123.919554 109.82582,123.426143 109.98,122.98 C110.333253,121.909195 110.827602,120.89023 111.45,119.95 L111.45,119.95 L111.45,119.95 Z M108.32,83.74 C108.593006,84.1942154 108.600396,84.7602171 108.339343,85.2214059 C108.07829,85.6825947 107.589208,85.9675714 107.059261,85.9672803 C106.529315,85.9669892 106.040546,85.6814753 105.78,85.22 L104.86,83.61 L102.33,80.41 C102.06741,79.9562727 102.066827,79.3969211 102.328471,78.9426476 C102.590115,78.488374 103.074237,78.2081936 103.598471,78.2076475 C104.122706,78.2071014 104.60741,78.4862726 104.87,78.94 L105.8,80.54 L108.32,83.74 Z M78.31,117.13 C77.49538,117.13 76.835,116.46962 76.835,115.655 C76.835,114.84038 77.49538,114.18 78.31,114.18 L85.3,114.18 C86.11462,114.18 86.775,114.84038 86.775,115.655 C86.775,116.46962 86.11462,117.13 85.3,117.13 L78.31,117.13 L78.31,117.13 Z M57.83,85.22 C57.5674099,85.6737274 57.0827058,85.9528986 56.5584713,85.9523525 C56.0342367,85.9518064 55.5501154,85.671626 55.2884711,85.2173524 C55.0268269,84.7630789 55.0274097,84.2037273 55.29,83.75 L57.82,80.54 L58.75,78.94 C59.0125902,78.488059 59.4963412,78.2105386 60.0190287,78.2119779 C60.5417161,78.2134172 61.0239314,78.4935976 61.2840287,78.9469779 C61.5441259,79.4003581 61.5425902,79.958059 61.28,80.41 L58.76,83.62 L57.83,85.22 Z" id="Forma_1" fill="#FC571F" sketch:type="MSShapeGroup"></path>
            </g>
        </g>
    </g>
</svg>