<?xml version="1.0" encoding="UTF-8" standalone="no"?>
<svg width="164px" height="162px" viewBox="0 0 164 162" version="1.1" xmlns="http://www.w3.org/2000/svg" xmlns:xlink="http://www.w3.org/1999/xlink" xmlns:sketch="http://www.bohemiancoding.com/sketch/ns">
    <!-- Generator: Sketch 3.4.4 (17249) - http://www.bohemiancoding.com/sketch -->
    <title>passport</title>
    <desc>Created with Sketch.</desc>
    <defs></defs>
    <g id="Page-1" stroke="none" stroke-width="1" fill="none" fill-rule="evenodd" sketch:type="MSPage">
        <g id="Desktop" sketch:type="MSArtboardGroup" transform="translate(-68.000000, -555.000000)">
            <g id="passport" sketch:type="MSLayerGroup" transform="translate(68.000000, 554.000000)">
                <g id="round" transform="translate(82.500000, 81.500000) rotate(90.000000) translate(-82.500000, -81.500000) translate(1.000000, -1.000000)" fill="#FFFFFF" sketch:type="MSShapeGroup">
                    <path d="M79.094,33.59 C102.391571,33.5875732 123.396463,47.6198239 132.313739,69.1432765 C141.231015,90.6667292 136.304485,115.4425 119.831472,131.917229 C103.358459,148.391957 78.5832018,153.321069 57.0588203,144.406035 C35.5344389,135.491001 21.5000001,114.487571 21.5,91.19 C21.4999998,59.3807414 47.2847416,33.5933135 79.094,33.59 L79.094,33.59 Z M156.034,125.46 C154.471962,123.897882 154.472006,121.365259 156.034097,119.803194 C157.596189,118.24113 160.128811,118.24113 161.690903,119.803194 C163.252994,121.365259 163.253038,123.897882 161.691,125.46 C160.941894,126.212157 159.924055,126.634971 158.8625,126.634971 C157.800945,126.634971 156.783106,126.212157 156.034,125.46 L156.034,125.46 Z M2.168,126.6 C0.605962055,125.037882 0.606005558,122.505259 2.16809717,120.943194 C3.73018878,119.38113 6.26281122,119.38113 7.82490283,120.943194 C9.38699444,122.505259 9.38703795,125.037882 7.825,126.6 C7.07484856,127.35019 6.05740167,127.771646 4.9965,127.771646 C3.93559833,127.771646 2.91815144,127.35019 2.168,126.6 L2.168,126.6 Z M63.262,7.8 C61.6999621,6.23788156 61.7000056,3.70525911 63.2620972,2.14319434 C64.8241888,0.581129558 67.3568112,0.581129558 68.9189028,2.14319434 C70.4809944,3.70525911 70.4810379,6.23788156 68.919,7.8 C68.1688486,8.5501901 67.1514017,8.97164575 66.0905,8.97164575 C65.0295983,8.97164575 64.0121514,8.5501901 63.262,7.8 L63.262,7.8 Z M87.633,160.7 C88.3470582,159.464039 89.9220444,159.031743 91.167,159.73 C92.0839901,160.247985 92.5979223,161.267993 92.4685445,162.313193 C92.3391667,163.358392 91.5920378,164.222302 90.5764239,164.501064 C89.56081,164.779826 88.477347,164.41837 87.8325297,163.58567 C87.1877125,162.752969 87.1089256,161.613524 87.633,160.7 L87.633,160.7 Z M37.752,26.87 C38.4719678,25.6489738 40.0443697,25.2410258 41.267143,25.9580222 C42.4899164,26.6750186 42.9016869,28.2464239 42.1876661,29.4709372 C41.4736453,30.6954504 39.903246,31.111041 38.677,30.4 C37.4560253,29.6736674 37.0441252,28.1017677 37.752,26.87 L37.752,26.87 Z M145.97,82.68 C146.683701,81.4435768 148.259115,81.0111625 149.504,81.71 C150.42099,82.2279855 150.934922,83.2479934 150.805544,84.2931925 C150.676167,85.3383917 149.929038,86.2023018 148.913424,86.4810639 C147.89781,86.7598261 146.814347,86.3983705 146.16953,85.5656697 C145.524713,84.7329689 145.445926,83.5935239 145.97,82.68 L145.97,82.68 Z" id="Эллипс_1"></path>
                </g>
                <path d="M134.683,122.85 L106.938,25.34 C106.518247,23.8764696 105.182524,22.8659163 103.66,22.86 C103.344374,22.8583548 103.030154,22.9021368 102.727,22.99 L100.918,23.5 L99.29,17.78 C98.9803555,16.7060477 98.223721,15.8171752 97.213,15.34 C96.1997893,14.8692204 95.032016,14.8619218 94.013,15.32 C92.993984,15.7780782 31.7,43.22 31.694,43.23 C31.1552775,43.4769135 30.8774657,44.0801133 31.04,44.65 L59.989,146.39 C60.1389312,146.910274 60.6145541,147.268927 61.156,147.27 C61.2687117,147.268001 61.3806712,147.25119 61.489,147.22 L132.338,127.06 C134.146104,126.54246 135.194793,124.659739 134.683,122.85 L134.683,122.85 Z M95,18.54 C95.3765605,18.3655615 95.8108971,18.3661304 96.1869993,18.5415548 C96.5631015,18.7169792 96.8426581,19.0493897 96.951,19.45 L98.58,24.17 L48.089,38.54 L95,18.54 Z M130.673,123.72 L62.987,143.56 L38.998,60.26 L34.698,45.16 L102.384,26.33 C102.903314,26.1837126 103.443673,26.4824259 103.596,27 L131.344,122.51 C131.415851,122.759443 131.38548,123.027225 131.25959,123.254241 C131.133699,123.481256 130.922641,123.648839 130.673,123.72 L130.673,123.72 Z M83.173,59.92 C80.8661427,59.9215801 78.5705216,60.2412576 76.351,60.87 C63.133434,64.6355487 55.4693697,78.4013183 59.231,91.62 C62.30009,102.290676 72.0457887,109.653531 83.149,109.69 L83.149,109.69 C85.4555241,109.688353 87.750806,109.368676 89.97,108.74 C103.183255,104.975257 110.84639,91.2156323 107.09,78 C104.025357,67.3244095 94.2777076,59.9563131 83.171,59.92 L83.173,59.92 Z M104.389,77.5 L95.969,79.9 C94.8489689,76.4471793 93.130836,73.2180642 90.893,70.36 C92.3869803,68.9518783 93.7036961,67.3668495 94.814,65.64 C99.2870878,68.3598185 102.672271,72.5537255 104.387,77.5 L104.389,77.5 Z M94.938,92.66 C92.21532,92.3873239 89.4662944,92.5664025 86.802,93.19 L84.656,85.64 L94.291,82.9 C95.0662,86.0919386 95.2850747,89.3936647 94.938,92.66 L94.938,92.66 Z M71.375,76.96 C72.195,77.04 73.019,77.08 73.847,77.08 C75.7527761,77.077022 77.6521286,76.8589755 79.509,76.43 L81.657,83.97 L72.021,86.71 C71.2479344,83.5211038 71.0304156,80.2228016 71.378,76.96 L71.375,76.96 Z M81.175,73.42 L78.475,63.92 C81.8911439,65.2768389 84.9599482,67.3817086 87.456,70.08 C85.5568232,71.5218196 83.4385537,72.6494925 81.182,73.42 L81.175,73.42 Z M89.034,71.93 C91.0496384,74.5243514 92.6021166,77.4473001 93.623,80.57 L83.987,83.31 L81.841,75.76 C84.435586,74.8907949 86.8677083,73.5965017 89.038,71.93 L89.034,71.93 Z M78.84,74.09 C76.5122943,74.6160602 74.1161265,74.7713048 71.74,74.55 C72.4412079,70.9429419 73.9431254,67.539279 76.135,64.59 L78.84,74.09 Z M82.317,86.31 L84.464,93.85 C81.8662164,94.7185168 79.4324678,96.0165161 77.264,97.69 C75.2510338,95.0940768 73.6991184,92.1715508 72.676,89.05 L82.317,86.31 Z M85.129,96.19 L87.829,105.69 C84.4129357,104.337163 81.3436575,102.23562 78.847,99.54 C80.7508337,98.0932744 82.8749577,96.962164 85.138,96.19 L85.129,96.19 Z M87.464,95.53 C89.7904799,94.9958504 92.1874108,94.8371804 94.564,95.06 C93.8628429,98.670131 92.3609911,102.077062 90.169,105.03 L87.464,95.53 Z M92.658,64.48 C91.7001005,65.9485971 90.5748975,67.3009883 89.305,68.51 C86.9909018,65.9936876 84.2245684,63.9346264 81.15,62.44 C81.8166667,62.38 82.488,62.35 83.164,62.35 C86.4492804,62.3510606 89.6936985,63.0784167 92.665,64.48 L92.658,64.48 Z M73.08,64.74 C71.254114,67.6285816 69.9861953,70.8339941 69.342,74.19 C67.6223616,73.8337367 65.9505586,73.2765809 64.361,72.53 C66.5187502,69.1980523 69.5326001,66.5074849 73.087,64.74 L73.08,64.74 Z M63.14,74.63 C64.9923768,75.5287175 66.9518708,76.1873709 68.971,76.59 C68.5741064,80.2004444 68.8140815,83.8525337 69.68,87.38 L61.257,89.78 C60.0848163,84.6649242 60.7540642,79.3003183 63.147,74.63 L63.14,74.63 Z M61.924,92.11 L70.344,89.71 C71.461827,93.1666152 73.1797364,96.3993315 75.419,99.26 C73.920946,100.664019 72.6040902,102.249621 71.499,103.98 C67.0272684,101.255338 63.6441488,97.0582612 61.931,92.11 L61.924,92.11 Z M83.141,107.27 L83.141,107.27 C79.8568112,107.269392 76.6138615,106.538414 73.647,105.13 C74.6042792,103.660945 75.7295395,102.308485 77,101.1 C79.3135701,103.61604 82.0791954,105.675079 85.153,107.17 C84.49,107.23 83.819,107.27 83.148,107.27 L83.141,107.27 Z M93.226,104.88 C95.0500066,101.986949 96.3174191,98.7785669 96.963,95.42 C98.6842301,95.7751485 100.35655,96.3358339 101.944,97.09 C99.7847695,100.415133 96.7777651,103.104212 93.233,104.88 L93.226,104.88 Z M103.166,94.97 C101.309325,94.0832902 99.350613,93.428371 97.334,93.02 C97.7308936,89.4095556 97.4909185,85.7574663 96.625,82.23 L105.047,79.84 C106.223401,84.9466619 105.559759,90.3046707 103.173,94.97 L103.166,94.97 Z" id="Forma_1" fill="#FC571F" sketch:type="MSShapeGroup"></path>
            </g>
        </g>
    </g>
</svg>