<svg xmlns="http://www.w3.org/2000/svg" width="33" height="19" viewBox="0 0 33 19">
  <defs>
    <style>
      .cls-1 {
        fill: #49669d;
        fill-rule: evenodd;
      }
    </style>
  </defs>
  <path class="cls-1" d="M1186.81,5489h-0.15a6.626,6.626,0,0,1-3.79-2.56c-0.55-.62-1.39-2.02-2.39-1.86-1.43.23-.72,2.68-1.32,3.72-0.48.85-2.53,0.7-3.94,0.55-4.46-.48-6.73-2.86-8.73-5.43a47.873,47.873,0,0,1-5.33-8.76,7.955,7.955,0,0,1-1.16-3.41c0.72-.59,1.9-0.39,3.09-0.39,1.01,0,2.58-.22,3.32.15a6.287,6.287,0,0,1,1.24,2.18,27.412,27.412,0,0,0,2.55,4.41c0.43,0.62,1.08,1.79,1.85,1.63,0.75-.15.82-1.99,0.85-3.18a9.658,9.658,0,0,0-.38-3.72c-0.37-.67-1.03-0.68-1.7-1.08,0.56-1.13,2.09-1.24,3.94-1.24,1.55,0,3.72-.18,4.32.85,0.62,1.04.2,2.93,0.16,4.34-0.04,1.59-.32,3.23.77,3.96a3.016,3.016,0,0,0,1.78-1.56,20.817,20.817,0,0,0,2.55-4.41c0.34-.75.7-2.02,1.31-2.25,0.94-.36,2.42-0.08,3.79-0.08,1.12,0,3.12-.31,3.48.46,0.3,0.65-.58,2.27-0.85,2.72a48.093,48.093,0,0,1-3.17,4.26c-0.45.59-1.37,1.54-1.31,2.48a3.189,3.189,0,0,0,1.31,1.79,24.321,24.321,0,0,1,3.01,3.18,4.06,4.06,0,0,1,1.08,2.09C1192.76,5489.73,1188.31,5488.55,1186.81,5489Z" transform="translate(-1160 -5470)"/>
</svg>
