<?xml version="1.0" encoding="UTF-8" standalone="no"?>
<svg width="162px" height="164px" viewBox="0 0 162 164" version="1.1" xmlns="http://www.w3.org/2000/svg" xmlns:xlink="http://www.w3.org/1999/xlink" xmlns:sketch="http://www.bohemiancoding.com/sketch/ns">
    <!-- Generator: Sketch 3.4.4 (17249) - http://www.bohemiancoding.com/sketch -->
    <title>worker</title>
    <desc>Created with Sketch.</desc>
    <defs></defs>
    <g id="Page-1" stroke="none" stroke-width="1" fill="none" fill-rule="evenodd" sketch:type="MSPage">
        <g id="Desktop" sketch:type="MSArtboardGroup" transform="translate(-344.000000, -555.000000)">
            <g id="worker" sketch:type="MSLayerGroup" transform="translate(343.000000, 554.000000)">
                <g id="round" fill="#FFFFFF" sketch:type="MSShapeGroup">
                    <path d="M132.313739,69.1432765 C141.231015,90.6667292 136.304485,115.4425 119.831472,131.917229 C103.358459,148.391957 78.5832018,153.321069 57.0588203,144.406035 C35.5344389,135.491001 21.5000001,114.487571 21.5,91.19 C21.5,90.3004929 21.520163,89.4156946 21.5600568,88.5360375 C22.9467886,57.9586759 48.1742487,33.5932208 79.094,33.59 C102.391571,33.5875732 123.396463,47.6198239 132.313739,69.1432765 Z M156.034,125.46 C154.471962,123.897882 154.472006,121.365259 156.034097,119.803194 C157.596189,118.24113 160.128811,118.24113 161.690903,119.803194 C163.252994,121.365259 163.253038,123.897882 161.691,125.46 C160.941894,126.212157 159.924055,126.634971 158.8625,126.634971 C157.800945,126.634971 156.783106,126.212157 156.034,125.46 L156.034,125.46 Z M2.168,126.6 C0.605962055,125.037882 0.606005558,122.505259 2.16809717,120.943194 C3.73018878,119.38113 6.26281122,119.38113 7.82490283,120.943194 C9.38699444,122.505259 9.38703795,125.037882 7.825,126.6 C7.07484856,127.35019 6.05740167,127.771646 4.9965,127.771646 C3.93559833,127.771646 2.91815144,127.35019 2.168,126.6 L2.168,126.6 Z M63.262,7.8 C61.6999621,6.23788156 61.7000056,3.70525911 63.2620972,2.14319434 C64.8241888,0.581129558 67.3568112,0.581129558 68.9189028,2.14319434 C70.4809944,3.70525911 70.4810379,6.23788156 68.919,7.8 C68.1688486,8.5501901 67.1514017,8.97164575 66.0905,8.97164575 C65.0295983,8.97164575 64.0121514,8.5501901 63.262,7.8 L63.262,7.8 Z M87.633,160.7 C88.3470582,159.464039 89.9220444,159.031743 91.167,159.73 C92.0839901,160.247985 92.5979223,161.267993 92.4685445,162.313193 C92.3391667,163.358392 91.5920378,164.222302 90.5764239,164.501064 C89.56081,164.779826 88.477347,164.41837 87.8325297,163.58567 C87.1877125,162.752969 87.1089256,161.613524 87.633,160.7 L87.633,160.7 Z M37.752,26.87 C38.4719678,25.6489738 40.0443697,25.2410258 41.267143,25.9580222 C42.4899164,26.6750186 42.9016869,28.2464239 42.1876661,29.4709372 C41.4736453,30.6954504 39.903246,31.111041 38.677,30.4 C37.4560253,29.6736674 37.0441252,28.1017677 37.752,26.87 L37.752,26.87 Z M145.97,82.68 C146.683701,81.4435768 148.259115,81.0111625 149.504,81.71 C150.42099,82.2279855 150.934922,83.2479934 150.805544,84.2931925 C150.676167,85.3383917 149.929038,86.2023018 148.913424,86.4810639 C147.89781,86.7598261 146.814347,86.3983705 146.16953,85.5656697 C145.524713,84.7329689 145.445926,83.5935239 145.97,82.68 L145.97,82.68 Z" id="Эллипс_1"></path>
                </g>
                <path d="M137.78,136.5 L145.51,136.5 L130.81,97.05 L119.61,89.09 L112.196,103.19 L106.624,100.94 L87.207,136.5 L137.78,136.5 L137.78,136.5 Z M29.36,115.21 C27.3143219,126.138447 22.8,136.5 22.8,136.5 L31.909,136.5 C31.909,136.5 37.2139788,123.280348 39.197,115.3 C41.1800212,107.319652 41.277,98.8 41.277,98.8 L48.218,99.8 C48.218,99.8 53.815838,105.859667 54.463,115.9 C55.110162,125.940333 50.648,136.5 50.648,136.5 L59.488,136.5 C59.488,136.5 63.834,119.525626 63.834,113.17 C63.834,106.814374 60.488,100.87 60.488,100.87 L57.908,95.3 L81.826,108.91 L77.338,116.73 L94.76,122.76 L101.784,109.55 L88.363,97.52 L84.032,105.07 L56.184,89.22 L54.684,83.93 L56.1839998,75.3921574 C56.1839998,75.3921574 57.9079988,77.5199994 59.593,83.97 C61.2780012,90.4200006 63.0833032,93.3068227 63.0833032,93.3068227 L74.9429986,100.088675 L69.9429986,86.9700002 C66.4375016,77.5199994 66.858072,69.0999993 56.1839998,62.0325059 L53.37,55.96 C58.549,54.9 62.447,51.42 62.734,45.98 L39.466,42.88 C39.2910172,43.350423 39.2006247,43.8480895 39.199,44.35 C39.1929712,48.2965227 40.953868,51.9665629 44.2280004,54.17 L39.57,58.1 C39.57,58.1 34.0412919,58.3600472 31.625,59.53 C25.8669341,62.3180179 20.503,69.1 20.503,69.1 C20.503,69.1 17.503,73.25 17.503,77.52 C17.503,82 17.8864651,82.6451737 21.503,86.6 C25.1195349,90.5548263 30.909,93.18 30.909,93.18 C30.909,93.18 31.4056781,104.281553 29.36,115.21 Z M27.12,80.25 C27.12,80.25 25.5828189,78.2495769 27.12,75.02 C28.6571811,71.7904231 31.537,70.97 31.537,70.97 L30.537,82.24 L27.12,80.25 Z M61.629,45.73 L65.165,46.2 C65.636,35.64 61.065,28.74 52.8,27.64 C52.132481,27.5490442 51.4596834,27.5022757 50.786,27.5 C43.463,27.5 38.134,32.88 36.047,42.32 L39.128,42.73 L61.629,45.73 Z" id="Forma_1" stroke="#FC571F" stroke-width="3" sketch:type="MSShapeGroup"></path>
            </g>
        </g>
    </g>
</svg>