<?xml version="1.0" encoding="UTF-8" standalone="no"?>
<svg width="73px" height="37px" viewBox="0 0 73 37" version="1.1" xmlns="http://www.w3.org/2000/svg" xmlns:xlink="http://www.w3.org/1999/xlink" xmlns:sketch="http://www.bohemiancoding.com/sketch/ns">
    <!-- Generator: Sketch 3.4.4 (17249) - http://www.bohemiancoding.com/sketch -->
    <title>bear</title>
    <desc>Created with Sketch.</desc>
    <defs></defs>
    <g id="Page-1" stroke="none" stroke-width="1" fill="none" fill-rule="evenodd" sketch:type="MSPage">
        <g id="Desktop" sketch:type="MSArtboardGroup" transform="translate(-370.000000, -847.000000)" fill="#FFFFFF">
            <g id="bear" sketch:type="MSLayerGroup" transform="translate(370.000000, 847.000000)">
                <path d="M13.669511,36.9897787 C13.5698897,36.9516058 13.4922359,36.9614423 13.3850227,36.9344415 C13.2676387,36.9309635 13.1681305,36.9274485 13.0568402,36.926172 C13.0112645,36.9115385 12.9406936,36.8983795 12.9000143,36.8969217 C12.8027327,36.8624821 12.72365,36.7897105 12.6286751,36.7315798 C12.5663076,36.683687 12.4956108,36.6517171 12.4286734,36.6159807 C12.3138809,36.6448092 12.2040871,36.6240652 12.0864749,36.6288937 C11.864168,36.6366082 11.6521505,36.7008864 11.4252555,36.7126043 C11.3808515,36.7732917 11.3076215,36.8260741 11.2463234,36.8787565 C11.2079966,36.885398 11.173161,36.882438 11.1613569,36.8715415 C11.132719,36.8450995 11.1395299,36.7558481 11.1736209,36.7109171 C11.1890239,36.6567898 11.2299915,36.622156 11.2584232,36.577386 C11.2905797,36.4958491 11.3457786,36.4652316 11.3963238,36.3956568 C11.4033866,36.3696439 11.4253194,36.3274325 11.445044,36.3018544 C11.5127168,36.2141015 11.4754175,36.1154946 11.3844212,36.1415944 C11.360979,36.1483099 11.3196428,36.1682196 11.2925653,36.1858224 C11.0997668,36.2062575 10.9615887,36.2714552 10.7609373,36.313526 C10.6549358,36.3280115 10.5455672,36.3696902 10.4489481,36.3976455 C10.2460865,36.5350617 9.99945057,36.5992289 9.7619761,36.6649964 C9.67994417,36.6447408 9.68726607,36.6031065 9.7818686,36.551917 C9.8279024,36.5270068 9.8707315,36.4916089 9.87704052,36.473255 C9.88335502,36.454903 9.92001562,36.425044 9.9585213,36.4069066 C10.0840758,36.239243 10.241816,36.1086478 10.3865988,35.9609419 C10.5159493,35.8499438 10.5363272,35.8149066 10.4941752,35.7759863 C10.2172315,35.8207619 9.95639517,35.9472075 9.67488892,36.0123201 C9.5941564,36.0765558 9.50385722,36.1194092 9.41460195,36.1721657 C9.29381615,36.2241562 9.18893887,36.2922751 9.08228587,36.367213 C9.03364232,36.4233254 8.97695052,36.4189575 8.97710565,36.35911 C8.9772553,36.3010145 9.01816632,36.2434869 9.12072767,36.1571511 C9.15959287,36.1147787 9.20071377,36.0755809 9.23792735,36.03763 C9.2982947,36.020203 9.26184397,35.9455148 9.2734017,35.9010019 C9.27528145,35.8915854 9.27699695,35.8202087 9.2771977,35.742394 L9.2775627,35.6009153 L9.37301202,35.5275831 C9.42550815,35.4872494 9.50047732,35.4391716 9.53960715,35.4207438 C9.59775347,35.380904 9.65493255,35.3438115 9.71329422,35.3048783 C9.73055872,35.2787748 9.95830047,35.2074147 10.0243326,35.2074147 C10.0918175,35.2074147 10.1539295,35.1165039 10.1927163,34.960954 C10.2164339,34.865827 10.2357023,34.8235675 10.2577793,34.8182358 C10.2750256,34.8140733 10.3071419,34.7881862 10.3291368,34.7607174 C10.46943,34.7316428 10.5561303,34.6252752 10.654611,34.5289365 C10.6696672,34.5089879 10.7075013,34.4879571 10.7386759,34.4821999 C10.8289459,34.421211 10.9595192,34.3173335 11.0135647,34.269017 C11.1633534,34.234842 11.2789982,34.1163532 11.397313,34.0256754 C11.4379959,34.0186824 11.4903241,33.9420961 11.5769751,33.8946436 C11.6636261,33.8471911 11.8207166,33.7710414 11.933498,33.7003622 C12.0754903,33.6072091 12.1854246,33.5977242 12.3400861,33.5871718 C12.3826761,33.5800123 12.4565156,33.5759238 12.5041682,33.5781068 C12.6671516,33.5540364 12.823315,33.5048597 12.9862328,33.4765529 C13.0508871,33.4582934 13.1496889,33.4434989 13.2057949,33.4436821 C13.2619027,33.4438671 13.4956012,33.4381136 13.7251278,33.4308986 C13.9183753,33.4472526 14.1056933,33.4032559 14.2871147,33.3670791 C14.469111,33.3120398 14.6272874,33.2079477 14.7823394,33.1006218 C14.9707141,32.9898808 15.0782339,32.7928262 15.2274806,32.6361756 C15.257438,32.5421845 15.3116989,32.4600223 15.3569498,32.3734293 C15.4057868,32.2672837 15.4764964,32.1696278 15.5378456,32.0734278 C15.5603223,32.0734278 15.7004056,31.7625094 15.6941003,31.7266212 C15.7607146,31.6640672 15.795375,31.5714913 15.8428743,31.4868483 C15.8955565,31.4009472 15.9192012,31.310719 15.9660983,31.2171479 C16.0346872,31.1136237 16.1127626,31.0138717 16.1944185,30.9260134 C16.2299586,30.8806495 16.2883093,30.8314303 16.3309413,30.7828567 C16.3587488,30.6737104 16.4428722,30.5878981 16.5026264,30.5033827 C16.5443824,30.4898222 16.692065,30.3419739 16.6924464,30.3133489 C16.7711532,30.2455482 16.8377347,30.155838 16.9047432,30.0713522 C17.0692396,29.8041752 17.3126873,29.6025197 17.5090883,29.3674365 C17.5303423,29.3205575 17.5507731,29.2897346 17.5733192,29.2477063 C17.5883937,29.2477063 17.6155132,29.2266311 17.6335989,29.2008699 C17.6516847,29.1751123 17.6936104,29.1319278 17.7267652,29.1049048 C17.7498934,29.0564607 17.8007452,29.0350747 17.8287772,29.008616 C17.9457907,28.993298 18.0146279,28.8318023 18.110632,28.7368307 C18.1169465,28.7184417 18.1386859,28.6993867 18.1589215,28.6945008 C18.2492828,28.6336377 18.2486915,28.53509 18.2777966,28.4441551 C18.3037262,28.3082948 18.3513021,28.3010965 18.4531334,28.2209711 C18.4881661,28.1797069 18.524396,28.1392714 18.5591185,28.099465 C18.583329,28.0909735 18.6031375,28.0719499 18.6031375,28.0572073 C18.7017368,27.8851684 18.8031174,27.82622 18.8904892,27.672892 C18.901859,27.6107412 18.908575,27.6033727 18.9501028,27.6075296 C19.1595088,27.406714 19.1241969,27.3050306 19.1753297,27.1926338 C19.3419176,27.1176108 19.31311,26.9252681 19.3256349,26.7477255 C19.4272272,26.6326555 19.4772358,26.4939036 19.5212421,26.3534812 C19.551694,26.3153712 19.5676117,26.2729304 19.5676117,26.2298513 C19.6523939,26.1379414 19.6552336,26.0310706 19.6860834,25.9253413 C19.7185228,25.9253413 19.8496599,25.6256006 19.8958726,25.445825 C19.9727708,25.3700897 19.9912252,25.25583 19.9928494,25.1617445 C19.9944919,25.0676591 20.0329757,24.9360723 20.061338,24.8190117 C20.1091512,24.7015274 20.1197599,24.584045 20.1307428,24.4571258 C20.1750301,24.3478851 20.2027646,24.2329298 20.2364431,24.125702 C20.3190554,23.9946424 20.3301989,23.8493305 20.3421125,23.6967665 C20.36262,23.5440749 20.4091794,23.4389487 20.3951451,23.3256399 C20.4273655,23.3214034 20.4363865,23.3050512 20.4454294,23.2345403 C20.4514884,23.1872821 20.4520541,23.12796 20.4467069,23.1027112 C20.4380929,23.0621666 20.4731821,22.9681533 20.5309799,22.8769853 C20.5827734,22.7394896 20.6232428,22.5939353 20.6616499,22.4540142 C20.7775009,22.271323 20.8167804,22.0631925 20.8822906,21.8201487 C20.9167557,21.7898735 20.94345,21.6490792 20.9420174,21.5051437 C20.9563436,21.4306664 21.0149735,21.3733423 21.0641901,21.3107586 C21.0818744,21.3213776 21.0969033,21.2855283 21.1132607,21.2729132 C21.0737404,21.2596487 20.9791068,21.164616 20.9780009,21.1370843 C20.9776359,21.1267613 21.0064599,21.0905309 21.0421642,21.0565871 C21.1365149,20.9747246 21.0621334,20.9723455 21.0789361,20.9014628 C21.0872764,20.7646645 21.1414625,20.7408476 21.1825414,20.6399042 C21.2056057,20.6001126 21.204487,20.5927385 21.1715549,20.567473 C21.1589624,20.4910699 21.0944231,20.4617215 21.0560543,20.4091186 C20.958581,20.3561272 20.843617,20.3359603 20.7362267,20.3081992 C20.7137938,20.2971177 20.6859589,20.3046287 20.6380399,20.3346894 C20.561879,20.3824749 20.4997414,20.3879601 20.4475427,20.3515059 C20.3963697,20.3157676 20.3327484,20.3194639 20.3095289,20.3595164 C20.2517914,20.408447 20.1893143,20.4577125 20.1274286,20.5050836 C20.0996265,20.5614198 20.0595349,20.5594274 20.0330505,20.5003846 C20.0042137,20.436099 19.8484372,20.3486828 19.8093311,20.3748399 C19.7254413,20.397902 19.6998457,20.475652 19.6473988,20.5350462 C19.6312841,20.568361 19.6147204,20.5735799 19.5250417,20.5735799 C19.4331457,20.5735799 19.4142277,20.5799254 19.35912,20.6292371 C19.3201234,20.6641318 19.2782214,20.6848962 19.2467967,20.6848962 C19.2079972,20.634443 19.133873,20.5947994 19.0858555,20.5478908 C18.974598,20.595125 18.8996343,20.6869997 18.8257236,20.7790871 C18.7766147,20.8273518 18.7121557,20.8344743 18.6707191,20.7962181 C18.6335657,20.7619136 18.5677818,20.7635749 18.552981,20.7991966 C18.5217553,20.8743288 18.4781469,20.8918243 18.3518678,20.8798788 C18.249228,20.8701663 18.2328559,20.8641168 18.2414809,20.8390179 C18.2623644,20.7782639 18.1137163,20.6926977 18.0556211,20.7320324 C18.0243552,20.7532019 17.9911,20.8370624 17.9907989,20.8955021 C17.9906419,20.92567 17.9841194,20.9596379 17.9763084,20.9709876 C17.9607046,20.9936483 17.8521463,20.9871381 17.8175407,20.9614786 C17.8058789,20.9528206 17.7697859,20.9405089 17.7373411,20.9341079 C17.6662847,20.9619485 17.5995426,20.9606017 17.5211972,20.9817509 C17.4108832,20.9722419 17.4006377,20.9745544 17.3406226,21.022388 C17.30563,21.050286 17.2491919,21.0878762 17.2152067,21.1059248 C17.1583343,21.1361242 17.1542828,21.1438128 17.1643349,21.20248 C17.1737336,21.2572992 17.1688061,21.2701252 17.1291981,21.294092 C17.1038617,21.3094285 17.0519988,21.3231203 17.0139439,21.3245393 C16.9490834,21.3412078 16.915894,21.3796434 16.8617261,21.410087 C16.786235,21.3535602 16.7938234,21.3651727 16.7266579,21.3207449 C16.7029092,21.3328254 16.6689258,21.3406435 16.651143,21.3381349 C16.556327,21.4363311 16.4337454,21.4982062 16.3200369,21.5576652 C16.2013992,21.5584052 16.1775701,21.5750737 16.1210754,21.6967685 C16.075611,21.7947131 15.9987731,21.8318888 15.905897,21.8008791 C15.8077029,21.7680934 15.765372,21.7746831 15.765372,21.8227517 C15.8030491,21.8975731 15.7943384,21.9769658 15.8017515,22.0624025 C15.8214834,22.1410627 15.7999083,22.1919617 15.7468245,22.1919617 C15.6987996,22.1919617 15.6726346,22.1417749 15.6726346,22.0496597 C15.6726346,22.0078331 15.6674151,21.9495266 15.6610459,21.9200931 C15.6507894,21.8727461 15.6421827,21.8665763 15.5863961,21.8665763 C15.5387161,21.8665763 15.5189404,21.8759743 15.5052949,21.9051081 C15.4953669,21.9263017 15.4773067,21.9564475 15.4651504,21.9720985 C15.4770859,22.0885948 15.4529229,22.1944555 15.4409363,22.3080233 C15.4363373,22.4036461 15.4161966,22.4309651 15.3499472,22.431459 C15.3171867,22.431644 15.3154876,22.421099 15.325474,22.2787933 L15.336205,22.1258686 C15.1013038,22.073003 15.0936844,22.1407241 15.1254065,22.3560345 C15.1508671,22.4023715 15.1717342,22.4614771 15.1717761,22.487379 C15.1718437,22.5281826 15.1645126,22.5344744 15.1168637,22.5344744 C15.0808565,22.5344744 15.0550218,22.5226529 15.0420205,22.5002235 C15.031107,22.481385 15.0067177,22.4659726 14.9878326,22.4659726 C14.961381,22.4659726 14.9506354,22.4835846 14.941045,22.5426385 C14.9255143,22.6383001 14.9043479,22.6509782 14.8369854,22.6049946 C14.7717909,22.5604873 14.6956847,22.5573811 14.6826962,22.5987046 C14.6775132,22.6151881 14.6676765,22.6727545 14.6608291,22.7266339 C14.6471598,22.834315 14.6342078,22.850151 14.5474911,22.8652951 C14.4754182,22.8778936 14.4403782,22.8482196 14.4752777,22.8041434 C14.4883264,22.7876784 14.494995,22.7549001 14.4901149,22.7313089 C14.4852239,22.7077195 14.4904799,22.6781251 14.5017949,22.6655451 C14.5131099,22.6529651 14.5260108,22.5832312 14.5304803,22.5105817 L14.5386015,22.378488 L14.4889141,22.382003 C14.3916543,22.4181187 14.3710464,22.3275057 14.2988221,22.2941113 C14.2301564,22.2617659 14.2141512,22.2604506 14.1217733,22.2795333 C14.0064078,22.3033706 13.9825897,22.3239685 14.0318921,22.3572555 C14.1277648,22.34684 14.1482285,22.363194 14.232633,22.3675045 C14.2402432,22.3941242 14.2324505,22.4139802 14.2072308,22.4317254 C14.1744702,22.4548227 14.1730157,22.4643224 14.1928133,22.5259163 C14.2049313,22.5635934 14.2327078,22.6213911 14.2545494,22.6543581 C14.3054395,22.7311627 14.3324623,22.9540674 14.2925933,22.9681921 C14.2396775,22.9869437 14.2096489,22.9394746 14.2009692,22.8233519 C14.1962972,22.760883 14.182774,22.6930176 14.170895,22.6725381 C14.1476062,22.6323561 14.0822438,22.6025766 14.0455942,22.6154489 C14.0033619,22.6302859 14.0000823,22.7280436 14.0380569,22.8402683 C14.0790045,22.9612953 14.0752778,22.9888455 14.015989,23.003479 C13.9624235,23.0167065 13.9291701,22.9738938 13.9291701,22.8917168 C13.9291701,22.8388605 13.9180924,22.8195502 13.8671402,22.7836731 C13.8323393,22.7591643 13.7805604,22.7399872 13.7491832,22.7399872 C13.695999,22.7399872 13.6935134,22.7368422 13.6984536,22.6757663 C13.7013189,22.6404443 13.7089656,22.5990524 13.7154626,22.5837825 C13.7058814,22.4908218 13.6093243,22.4766656 13.561106,22.4404759 C13.548915,22.4517239 13.5249272,22.6188733 13.5226861,22.7081839 C13.5208611,22.7791554 13.5567698,22.8031832 13.6146569,22.7698037 C13.6707428,22.737462 13.7151469,22.7728562 13.7193499,22.8532461 C13.7212661,22.8898539 13.7309386,22.9543763 13.7408429,22.9966303 C13.7507527,23.0388843 13.7520302,23.0852509 13.7436717,23.0996661 C13.7346014,23.1153171 13.7387442,23.1430097 13.7539829,23.1684065 C13.7817941,23.2147971 13.7905231,23.3907599 13.7650242,23.3907599 C13.7563372,23.3907599 13.7237262,23.3825459 13.6925388,23.3725004 C13.6273115,23.3515047 13.6077639,23.3036452 13.6246324,23.2062353 C13.6412946,23.1100464 13.6045829,23.0052809 13.5391476,22.9622592 C13.4840125,22.8974093 13.4668265,22.9832049 13.416597,22.9977533 C13.3501214,23.0210892 13.3579342,23.1123904 13.4376757,23.2440493 C13.492256,23.3341684 13.502591,23.3680067 13.502591,23.4566199 C13.502591,23.5561721 13.5001455,23.5620088 13.4584935,23.5620088 C13.3973743,23.5620088 13.3658364,23.5211849 13.3792192,23.4594023 C13.3453599,23.3883419 13.2499435,23.228711 13.224377,23.195028 C13.224377,23.16792 13.1427028,23.0482416 13.1242046,23.0482416 C13.0687775,23.0482416 13.0492318,23.0978068 13.0727049,23.1788424 C13.0884182,23.2331066 13.0892212,23.2651708 13.0754789,23.2889044 C13.0510385,23.3310752 13.0794757,23.4369303 13.1317108,23.4982541 L13.2905351,23.7224612 L13.2555207,23.7878013 C13.2362651,23.8237394 13.2135073,23.8531452 13.2049517,23.8531452 C13.182663,23.8531452 13.131647,23.7818406 13.131647,23.7506866 C13.131647,23.711955 13.0431509,23.6305125 13.0010627,23.6305125 C12.9697165,23.6305125 12.9647197,23.6425375 12.9647197,23.7179509 C12.9809257,23.8391536 12.9982522,23.9613239 13.016703,24.081733 L13.011082,24.1528415 L12.9364194,24.147458 C12.8620707,24.1421115 12.8616619,24.1424075 12.8391177,24.2202407 C12.8266712,24.2632291 12.8083117,24.2984032 12.7983326,24.2984032 C12.7883499,24.2984032 12.7663988,24.2737778 12.7495431,24.243682 C12.7237467,24.1976207 12.7222046,24.1757297 12.7397976,24.1053705 C12.7853496,23.9231529 12.7599474,23.8518391 12.6617642,23.8863083 C12.5599274,23.9220558 12.5378303,24.0258316 12.6058718,24.1487733 C12.6461294,24.2215079 12.6610908,24.4565134 12.6271221,24.4825429 C12.605744,24.4989154 12.5928102,24.4984714 12.5660813,24.4804339 C12.5398871,24.4627479 12.5316107,24.4326003 12.5297255,24.3480017 C12.5276815,24.2565395 12.5085938,24.1522513 12.4711156,24.0278592 C12.4663888,24.0121897 12.4452918,24.0089485 12.3995628,24.0168702 C12.3439569,23.9523496 12.2132577,23.9833889 12.2123306,23.9832224 C12.2192108,24.0085378 12.2151046,24.0380249 12.2027858,24.0517242 C12.2003038,24.0719965 12.2646825,24.1022921 12.301272,24.1321825 C12.2593353,24.181781 12.2617388,24.2355383 12.3081705,24.2864892 C12.3426849,24.3243605 12.3531366,24.353252 12.3489702,24.3992522 C12.3440974,24.4529633 12.3372719,24.4608794 12.2969978,24.4594327 C12.2714953,24.4585077 12.2360227,24.4519032 12.2181706,24.4447622 C12.1872241,24.4599322 12.1565002,24.6083836 12.1489721,24.6409233 C12.1038562,24.6409233 12.0812956,24.7086536 12.1099463,24.7580819 C12.1327277,24.7973889 12.1374764,24.9771885 12.11606,24.9894115 C12.1083585,24.9938145 12.0796184,24.9934445 12.0522069,24.9886715 C12.0040433,24.9801615 12.0026782,24.9767945 12.0115514,24.8880962 L12.0207311,24.7963177 L11.9525802,24.7700274 C11.8281699,24.722031 11.7679723,24.7486266 11.8154862,24.8306001 C11.8450165,24.8815491 11.8624653,25.1890006 11.8358258,25.1890006 C11.824967,25.1890006 11.8071404,25.1735901 11.7962215,25.1547478 C11.7505709,25.0759933 11.6807537,25.1349269 11.6666665,25.2641069 C11.658673,25.3373373 11.6510263,25.3516933 11.6200195,25.3516933 C11.5782654,25.3049826 11.5571611,25.1479324 11.5458278,25.0905288 C11.5254261,25.0881793 11.4899627,25.0997603 11.4670225,25.1162771 C11.4548132,25.2179586 11.4082064,25.3524 11.3835068,25.4256637 C11.3456253,25.4207057 11.3413019,25.4096057 11.3363215,25.3045978 C11.3323065,25.2198845 11.3239662,25.1890006 11.3051121,25.1890006 C11.2767699,25.1890006 11.2673894,25.2114799 11.2480608,25.3257248 C11.2342821,25.4072025 11.1598348,25.514386 11.1170331,25.514386 C11.0781752,25.514386 11.0852234,25.4117813 11.1305929,25.3170983 C11.1638498,25.2302001 11.1661731,25.1327532 11.1747287,25.0411375 C11.211548,24.9597763 11.1927597,24.918168 11.1125637,24.9034179 C11.0587554,24.9014014 11.0069217,24.8887659 10.9544019,24.8814714 C10.8835061,24.8437906 10.8962793,24.7547464 10.8796207,24.6824595 C10.9112972,24.5984898 10.7970467,24.6283562 10.7508085,24.5980606 C10.6773468,24.4970414 10.6030383,24.6359727 10.5835163,24.6409806 C10.5742818,24.6942569 10.5634559,24.7094824 10.534776,24.7094824 C10.5018895,24.7094824 10.4979,24.6978459 10.4979,24.6019771 C10.4979,24.4830017 10.4684245,24.4266859 10.3921303,24.3999034 C10.365009,24.3903759 10.3496699,24.3741866 10.3551923,24.360898 C10.3716173,24.3213561 10.3364386,24.2876436 10.2990791,24.3071426 C10.2809203,24.3166146 10.2284972,24.3241441 10.1825911,24.3238481 C10.0997726,24.3232931 10.099174,24.3229231 10.1051637,24.2680798 C10.1102372,24.2216929 10.1049867,24.212837 10.0724524,24.212837 C9.99533155,24.2604967 9.94643432,24.218831 9.87391065,24.222013 C9.80550417,24.239847 9.70924455,24.235555 9.66276545,24.212578 C9.57088217,24.148185 9.57481322,24.2777627 9.54128615,24.3026119 C9.52898565,24.3139709 9.42243485,24.2615142 9.42225783,24.244015 C9.42207532,24.2197578 9.36235038,24.1785713 9.32745455,24.1785713 C9.30743612,24.1785713 9.26658167,24.2016907 9.23666627,24.2299476 C9.1727931,24.2902798 9.0900184,24.2997 9.07545855,24.2482996 C9.0690163,24.2255687 9.04321992,24.2117029 8.9926948,24.2038201 C8.93169418,24.1943111 8.90753665,24.1998796 8.84977175,24.23685 C8.7665992,24.2621191 8.6735461,24.3028284 8.60070487,24.3255223 C8.57852748,24.3646036 8.56291278,24.3701702 8.4656421,24.373676 C8.29878965,24.3796885 8.22830633,24.4297291 8.14368655,24.6022583 C8.12591105,24.6384887 8.11728245,24.6400205 7.98787535,24.6299213 C7.82460902,24.6130123 7.75151412,24.7524135 7.5937155,24.812224 C7.50067518,24.8207155 7.45086727,24.8942308 7.40045712,24.9390563 C7.40045712,24.9929875 7.39408787,24.9993904 7.31593955,25.0239769 C7.19898625,25.0607715 7.06809177,25.1403382 7.06727782,25.175133 C7.06636532,25.2154926 7.05780607,25.2183841 6.87096075,25.2417219 C6.75223537,25.2430169 6.65347915,25.2990904 6.5522391,25.3431167 C6.51851127,25.3794895 6.40270955,25.3910317 6.37013878,25.3612652 C6.35913402,25.3512012 6.30400077,25.3576207 6.22308757,25.3783962 C6.06243647,25.4196401 5.998191,25.42048 5.97405355,25.3816522 C5.9015682,25.3912907 5.7937545,25.3751032 5.71058012,25.3698492 C5.67763887,25.3442544 5.6227155,25.3241708 5.56879587,25.3180048 C5.52038957,25.3124733 5.42083765,25.2999673 5.3475712,25.2902215 C5.27430475,25.280472 5.1785981,25.2720545 5.13488752,25.2714939 C4.94350342,25.2667024 4.8022466,25.2121182 4.6458514,25.1033641 C4.4827621,25.0965561 4.5304165,25.0292253 4.46495923,24.9256808 L4.35865663,24.8608846 L4.35865663,24.7361132 C4.35865663,24.6443051 4.35007912,24.6005193 4.32619718,24.5703791 C4.25888205,24.4854234 4.24736995,24.4496647 4.24736995,24.3255205 C4.24736995,24.1991192 4.24773495,24.1979352 4.29837687,24.1925647 C4.3455951,24.1875512 4.3505591,24.1795222 4.36525218,24.0843915 C4.38378505,23.9643857 4.3839055,23.9474267 4.36671217,23.8788842 C4.29742422,23.7920341 4.2274446,23.701262 4.15230752,23.6196937 C4.10303617,23.5712699 4.11837712,23.5278097 4.18474325,23.5278097 C4.21850392,23.5278097 4.25602592,23.5489404 4.3012476,23.59342 C4.33793375,23.6295061 4.38255682,23.6639438 4.40040898,23.6699471 C4.4312752,23.7603769 4.52675008,23.7327509 4.58072628,23.759587 C4.61238638,23.6284793 4.60161523,23.4847066 4.59233328,23.3520264 C4.6334633,23.3140459 4.7672139,23.4840332 4.81764778,23.6383861 C4.8481855,23.7318444 5.0635866,23.8196398 5.19029635,23.7902766 C5.22728363,23.7817111 5.23246663,23.7720726 5.22446583,23.7267754 C5.21928282,23.6974066 5.20393275,23.6444781 5.19036205,23.6091561 C5.16864638,23.5526293 5.15840265,23.5449352 5.1048535,23.5449352 C5.05556208,23.5449352 5.04033793,23.5359997 5.02463563,23.4978712 C4.98248178,23.4545405 4.9770889,23.3888618 4.9565613,23.3417959 C4.92758213,23.3250719 4.9244413,23.1693981 4.95125055,23.0782172 C4.97241508,23.0047019 5.03633753,22.9651063 5.0783837,22.9092141 C5.0818877,22.8814197 5.10133307,22.8572902 5.12992535,22.8452615 C5.2351293,22.73169 5.3426145,22.6358563 5.44152403,22.5353902 C5.51413895,22.5066504 5.52725158,22.4953081 5.51002358,22.4761402 C5.48167403,22.4668347 5.43042985,22.4506676 5.41963863,22.4472136 C5.60775962,22.2883745 5.7211195,22.1204 5.76186445,21.8837536 C5.7681242,21.8033933 5.76314195,21.763178 5.7438517,21.7391372 C5.67668075,21.7015082 5.56512215,21.7597018 5.48325995,21.7797299 C5.33420855,21.847057 5.2343701,21.9562828 5.08203918,22.0296927 C5.02092723,22.0761554 4.95129983,22.1260277 4.88666563,22.1685944 C4.7676373,22.2922317 4.6115925,22.370298 4.47729622,22.4731876 C4.41716065,22.5006731 4.34805155,22.537279 4.32372248,22.554534 C4.16570485,22.6083042 4.0088023,22.6576715 3.84640285,22.6963901 C3.78809227,22.7117821 3.74317172,22.7805244 3.71701765,22.8018401 C3.7230949,22.824362 3.7332054,22.8639798 3.73948887,22.8898816 C3.77098655,22.9399963 3.78728015,22.9949968 3.81154352,23.0483619 C3.81924502,23.0904623 3.83694387,23.1547276 3.85087045,23.1911782 C3.8647952,23.227625 3.87158602,23.2643327 3.86594495,23.2727502 C3.84908195,23.2979491 3.7833637,23.2900477 3.77145192,23.2613727 C3.66085145,23.220595 3.5697584,23.1382663 3.47867447,23.0544595 C3.44938688,22.9997587 3.38384565,22.977061 3.3385601,22.9400999 C3.3385601,22.9120261 3.23762848,22.8266098 3.15308352,22.7831366 C3.11737922,22.7647846 3.046436,22.7442441 2.99542907,22.7375082 C2.94442397,22.7307742 2.87866558,22.7197852 2.84930315,22.7131012 C2.8199389,22.7064042 2.725528,22.7110477 2.63950298,22.7234057 C2.48803893,22.7451617 2.47858542,22.7444809 2.3404895,22.7018865 C2.26205465,22.6776959 2.147806,22.6481939 2.08659915,22.6363299 C1.98063783,22.591225 1.88061505,22.563007 1.77059675,22.5311981 C1.51654398,22.4854439 1.30460308,22.3880821 1.10025783,22.2330484 C1.05762583,22.1927017 0.99004425,22.1442872 0.9500731,22.1254598 C0.91010195,22.1066305 0.8646996,22.0733305 0.849177975,22.0514561 C0.81277105,22.0001519 0.780014125,21.8585566 0.79825135,21.8313116 C0.823617025,21.7934144 0.87173315,21.8281851 0.87173315,21.8844011 C0.87173315,21.9296114 0.87790165,21.9366913 0.913275625,21.932033 C0.9762363,21.923745 0.977803975,21.8663617 0.916305125,21.821083 L0.863960475,21.7825438 L0.909351875,21.7670408 C0.9379113,21.7572913 0.965952425,21.7579943 0.984972575,21.7689648 C1.02811558,21.7938436 1.07266018,21.7726648 1.0868313,21.7205299 C1.10545543,21.6520133 1.0751878,21.6373077 0.971303325,21.6643972 C0.907851725,21.6809362 0.8793507,21.6978193 0.874713375,21.7215863 C0.863453125,21.7792859 0.8371275,21.7892611 0.818094575,21.743037 C0.801943325,21.7038318 0.788332475,21.6988109 0.6810097,21.6925006 C0.566569425,21.6871541 0.470019625,21.6258229 0.3706356,21.5733735 C0.29655885,21.5190372 0.221286725,21.4606179 0.1538402,21.3945303 C0.06899595,21.3415463 0,21.2107569 0,21.102913 C0,21.0410471 0.0114975,21.0170693 0.068789725,20.9595417 C0.1287574,20.9100764 0.186757725,20.8633898 0.248127,20.815373 C0.316674,20.7929177 0.372371175,20.7328445 0.42659375,20.6968287 C0.42659375,20.6834717 0.5000281,20.6467733 0.59963295,20.6103708 C0.7921084,20.5400301 0.8658749,20.4770746 0.845148375,20.4008269 C0.8953742,20.2893921 0.9996693,20.2080883 1.08377077,20.1269103 C1.18761692,20.0262204 1.2783103,19.9069102 1.3632458,19.7833986 C1.44422287,19.7533361 1.4938501,19.6170374 1.5579952,19.5275288 C1.72414502,19.403947 1.80193017,19.2578395 1.95000155,19.1126589 C1.99662847,19.0367627 2.06091592,18.9768819 2.1144231,18.9101431 C2.15557503,18.8180594 2.22279342,18.7347816 2.2809361,18.653944 C2.2816661,18.6240277 2.34571082,18.5785047 2.3871876,18.5785047 C2.43531285,18.5785047 2.46336858,18.5473729 2.4785982,18.4770618 C2.53949115,18.3888002 2.62908222,18.3019741 2.69317257,18.2188684 C2.7179287,18.2188684 2.73820263,18.1983538 2.75691435,18.1543737 C2.86057617,18.036599 2.93593772,17.8928374 3.0348655,17.7785851 C3.1106833,17.6910227 3.18403553,17.6072806 3.25509738,17.5167194 C3.33038957,17.429059 3.37869915,17.3518678 3.4403513,17.259834 C3.45522505,17.2362872 3.48025493,17.1919741 3.49596818,17.1613622 C3.57508192,17.0936762 3.5999512,17.0046246 3.64676245,16.9134936 C3.72174987,16.7675101 3.75148642,16.6806526 3.7484989,16.5797555 C3.78358635,16.5136032 3.78250412,16.4377809 3.79365305,16.3912312 C3.76681825,16.3773562 3.70364953,16.0838038 3.72168418,16.0567623 C3.75737205,16.0329602 3.77203775,16.0913962 3.80260285,16.1124196 C3.8915351,16.0772696 3.7668584,15.9801057 3.7563391,15.9411651 C3.71550655,15.9411651 3.72146153,15.918608 3.77442485,15.8726614 C3.82930443,15.8250591 3.83193425,15.802922 3.78833135,15.7555971 C3.76659743,15.7320059 3.7282925,15.718488 3.67240918,15.7146807 C3.57674998,15.7064482 3.54058943,15.6158999 3.48632305,15.5455685 C3.42954913,15.4819118 3.38564693,15.3873158 3.34650615,15.3302821 C3.3535689,15.3036329 3.3642634,15.2587149 3.37028225,15.2304617 C3.37510025,15.1190917 3.43395468,15.0288949 3.47006595,14.9388258 C3.53967875,14.8688514 3.58929868,14.7679413 3.63531423,14.6762664 C3.63531423,14.6629279 3.68121845,14.5889723 3.73732442,14.5119124 C3.80145675,14.4398993 3.83311867,14.3508496 3.87844073,14.2684191 C3.88970098,14.1684248 3.94336693,14.109345 3.9782372,14.0183972 C4.0160658,13.9007797 4.05373197,13.8518417 4.1064325,13.8518417 C4.2476656,13.547426 4.41761873,13.2595956 4.56238868,12.952577 C4.6596338,12.7684428 4.72876115,12.7035837 4.801502,12.5919306 C4.87424285,12.4802776 4.9203095,12.4368155 4.9707379,12.3143418 C4.99097533,12.2546849 5.0359123,12.2068809 5.06841555,12.1532864 C5.1414338,12.1327014 5.19066865,12.0716588 5.2540436,12.0333009 C5.28207195,12.0295454 5.2975224,12.0117262 5.3059612,11.9733924 C5.4088401,11.775398 5.60570833,11.6424662 5.7269303,11.4695523 C5.7793078,11.4188197 5.83796695,11.352562 5.89259285,11.2985512 C5.92295902,11.1194657 5.86424512,10.9473306 5.8130922,10.7780056 C5.78909893,10.7441969 5.78502735,10.7143416 5.7949152,10.6448001 C5.8019232,10.5955013 5.8105007,10.5292639 5.81398645,10.4976011 C5.8174722,10.4659421 5.83543568,10.4141088 5.85391928,10.3824164 C5.85337178,10.2475255 5.87855677,10.1360038 5.8983635,10.0332622 C5.92972248,9.92432685 5.9699108,9.81703055 6.01493173,9.70479475 C6.03146623,9.68953225 6.04656993,9.6224457 6.05498683,9.5268969 C6.06546233,9.4080603 6.07699815,9.3650182 6.1062164,9.33584185 C6.14086402,9.27405925 6.16629723,9.20644915 6.19488037,9.13818785 C6.28491675,9.00289365 6.42717368,8.8686484 6.52217405,8.7031733 C6.57011863,8.63631615 6.63823857,8.5955477 6.69653638,8.5414093 C6.7714727,8.4944341 6.86485065,8.4392412 6.9685508,8.4420902 C7.07225095,8.4449392 7.21957408,8.50174345 7.33635035,8.5211185 C7.38247175,8.56865425 7.45505748,8.6683156 7.4676007,8.7013233 C7.56267773,8.74171065 7.66651293,8.79104275 7.76035625,8.84211755 C7.88354375,8.9208665 7.98819108,9.02197825 8.08209462,9.1143136 C8.28887808,9.23645245 8.38520522,9.29085355 8.56874183,9.3465182 C8.66606907,9.36695515 8.73232935,9.30674875 8.81178803,9.26218595 C8.8351389,9.26218595 8.9236879,9.24130685 9.00855953,9.2157861 C9.0988222,9.18211795 9.23500918,9.18801575 9.2920386,9.1858087 C9.41239005,9.15220715 9.46208298,9.0538519 9.5232807,8.99511255 C9.53669445,8.95078285 9.57884283,8.94341245 9.60683833,8.91736445 C9.65804783,8.90088095 9.6614332,8.89433935 9.65784343,8.8187798 C9.65545268,8.73122115 9.71492395,8.6608268 9.75612698,8.58869345 C9.78045788,8.5001432 9.8206681,8.41439385 9.85571722,8.3288406 C9.88072703,8.24300985 9.94108343,8.19618635 9.99003357,8.13576165 C10.0585842,8.0242566 10.1308834,7.9229617 10.1870149,7.80604725 C10.220042,7.77333555 10.255582,7.7314904 10.26599,7.7130607 C10.3933695,7.610234 10.4676251,7.52161345 10.6353846,7.4420246 C10.7604737,7.39207275 10.8591332,7.3024088 10.9599864,7.21625245 C11.0919102,7.20311745 11.2486777,7.2595332 11.3996198,7.27506025 C11.4348532,7.30362425 11.47902,7.32699345 11.4977719,7.32699345 C11.6427882,7.3875976 11.7671383,7.4783216 11.8578371,7.555955 L11.9434059,7.5451325 C11.9434625,7.67850825 12.0228427,7.67798285 12.1038854,7.75276355 C12.1336439,7.76547305 12.1501437,7.80158875 12.1752977,7.90907745 C12.2041619,8.03242805 12.2148783,8.052828 12.2664291,8.08255935 C12.3567191,8.1346313 12.5515671,8.09663785 12.6570119,8.00641335 C12.7036096,7.96653845 12.8093885,7.92351855 12.9137347,7.9020086 C12.9702549,7.86459605 12.983488,7.7891512 13.020384,7.72945355 C13.1104806,7.6682426 13.1609601,7.61541585 13.220842,7.52026665 C13.2675146,7.4665519 13.2864489,7.4506826 13.3297379,7.40476745 C13.2564605,7.39002295 13.2760957,7.35973845 13.3853439,7.3189959 C13.471566,7.2292117 13.5423559,7.29444825 13.6231742,7.28655985 C13.6509635,7.27671785 13.6513887,7.2499576 13.6255467,7.13679125 C13.6929878,7.0171906 13.8078697,7.00091615 13.9114768,6.9541907 C14.0057435,6.9541907 14.0775901,6.91879465 14.0775901,6.87235225 C14.0775901,6.86069725 14.0902373,6.84667055 14.1056896,6.8411927 C14.2619844,6.71304135 14.4179964,6.5836431 14.5698601,6.4482971 C14.5796421,6.42777505 14.6001679,6.4094656 14.6154687,6.4076119 C14.6307622,6.4057619 14.7079743,6.3992684 14.7870333,6.3932004 C14.9305549,6.3821744 14.9590103,6.36511185 14.9001231,6.3253535 C14.8560201,6.2955759 14.8835521,6.268059 14.9798263,6.245674 C15.0272142,6.234648 15.0677037,6.21415185 15.0728027,6.1985878 C15.1986109,6.0693653 15.3633464,5.98839635 15.5107699,5.8881615 C15.7339984,5.78270595 15.9368015,5.7553389 16.1246178,5.59525655 C16.2116447,5.55969955 16.3089829,5.4957617 16.3771102,5.4516318 C16.4264089,5.4660803 16.5481601,5.4669498 16.5951064,5.4531118 C16.6720904,5.4011897 16.7295286,5.3212253 16.7900401,5.25026115 C16.8077426,5.17589855 16.8795692,5.15670665 16.916885,5.11771235 C16.9296235,5.20032225 17.0376653,5.180962 17.0793154,5.2027735 C17.0870352,5.1817168 17.118615,5.15356905 17.1822527,5.11103015 C17.2229648,5.06385515 17.2639835,5.02101285 17.3050114,4.9758229 C17.3087161,4.9169966 17.3948014,4.94370135 17.4051819,4.9399884 C17.4105839,4.9529569 17.439512,4.96358145 17.4694858,4.96358145 C17.5119189,4.96358145 17.5406079,4.94524795 17.5990791,4.88076435 L17.674176,4.79794355 L17.7754343,4.80569505 C17.8706409,4.81298405 17.8770649,4.81102305 17.8829031,4.77291675 C17.8869363,4.74659865 17.9033175,4.7305166 17.9296213,4.72705895 C17.95727,4.72343295 17.9739432,4.70569515 17.9821466,4.6712019 C18.0070049,4.56670465 18.1953686,4.48600025 18.2190699,4.56969055 C18.2243989,4.5885291 18.2424098,4.60394145 18.2590812,4.60394145 C18.2888177,4.60394145 18.3898041,4.5458015 18.4267823,4.5073918 C18.4499817,4.4832937 18.5964762,4.4640241 18.7355011,4.4667843 C18.8281819,4.4686343 18.8444207,4.4636578 18.8792454,4.42277465 C18.9008388,4.3974278 18.9185048,4.3619226 18.9185048,4.343874 C19.0263714,4.2504675 19.1947459,4.20518135 19.3341303,4.15284485 C19.3972242,4.1213782 19.470967,4.0905091 19.4979989,4.08424315 C19.6710344,3.97881905 19.8199143,3.8345542 19.9710188,3.70464165 C19.9808738,3.68836165 20.0496142,3.6683095 20.1559898,3.65066235 C20.289735,3.6284716 20.3271493,3.61593415 20.3342303,3.59092955 C20.339322,3.57298455 20.3598478,3.5592816 20.3816712,3.5592816 C20.4071555,3.5592816 20.4240458,3.5449441 20.4316871,3.5168426 C20.4465609,3.4621455 20.5292571,3.4223631 20.5824978,3.4443004 C20.6368463,3.46669095 20.7709802,3.41094305 20.7847644,3.36023455 C20.7978131,3.31226775 20.9739603,3.2271548 21.0073085,3.25270885 C21.1170567,3.25825885 21.1751812,3.09239895 21.1998552,3.0429022 C21.2245292,2.99340545 21.2158969,2.98331555 21.2783521,2.9408266 C21.3408036,2.89833765 21.4215142,2.8786925 21.5267674,2.8608622 C21.6931837,2.8528332 21.6983046,2.8512977 21.7751974,2.7863923 C21.8183769,2.7499473 21.8641533,2.72012715 21.876921,2.72012715 C21.9573816,2.72012715 22.1086851,2.6247541 22.1086851,2.57403635 C22.1086851,2.56249235 22.1212046,2.5434725 22.1365072,2.53174535 C22.1518007,2.52001635 22.1643293,2.4959571 22.1643293,2.47827295 C22.1643293,2.4585797 22.1774328,2.4461181 22.1981302,2.4461181 C22.229334,2.4461181 22.3312566,2.32693925 22.3312566,2.2904517 C22.3312566,2.2818862 22.3472984,2.2748562 22.3669116,2.2748562 C22.391217,2.2748562 22.4093903,2.25577345 22.423994,2.2149162 C22.4468028,2.15110415 22.4528345,2.1482681 22.5541676,2.1536664 C22.648803,2.1587169 22.7136963,2.13018805 22.7618271,2.06239295 C23.0373619,1.83519445 23.3106429,1.6904412 23.6110379,1.55078655 C23.6569439,1.50417395 23.7267702,1.44699045 23.7662103,1.4237119 C23.8612089,1.3137183 23.9922311,1.2702692 24.1149258,1.21878 C24.2194436,1.1986483 24.3223152,1.1547663 24.422734,1.11713545 C24.5034957,1.07486295 24.5813265,1.0207708 24.6573377,0.9670616 C24.688965,0.9447876 24.7565247,0.9181217 24.8074677,0.9078024 C24.9386487,0.88123455 25.0966518,0.82706285 25.1126424,0.80317195 C25.1201067,0.79201645 25.164038,0.78005435 25.210269,0.77657635 C25.3373984,0.76701185 25.4293128,0.73891775 25.5199258,0.68192665 C25.5916574,0.63681255 25.6125957,0.6316973 25.6878094,0.64090845 C25.7615558,0.64993645 25.781494,0.64544095 25.8284275,0.60920685 C25.9391904,0.52178695 26.0647321,0.50961025 26.1981524,0.48778395 C26.2195469,0.51479765 26.286935,0.5280603 26.4302687,0.53346045 C26.5149286,0.5612826 26.5150874,0.47774215 26.5682825,0.44279935 C26.6211728,0.42423275 26.833632,0.4152584 26.8505479,0.43088535 C26.8752949,0.45373285 26.9069258,0.44165235 26.926561,0.40187365 C26.9502039,0.3539642 27.0245088,0.33643175 27.0969339,0.36167315 C27.2220942,0.35214565 27.3509082,0.2710065 27.4744023,0.2229805 C27.5404052,0.18264865 27.5509501,0.18095775 27.6049445,0.2020459 C27.6896738,0.235135 27.889692,0.2184184 27.9853548,0.17025735 C28.0528744,0.11685155 28.1615914,0.15214585 28.1737405,0.15089895 C28.1737405,0.2535906 28.2242857,0.2610461 28.321507,0.17269565 C28.3737842,0.1341324 28.4175568,0.08480585 28.4647896,0.041588 C28.4730386,0.0280645 28.5027277,0.01170865 28.5307798,0.0052281 C28.5779378,-0.0056684 28.5817867,-0.0026714 28.5817867,0.04490505 C28.5817867,0.0823694 28.599617,0.11081685 28.647348,0.14951515 C28.7994271,0.2314572 28.975744,0.1307469 29.1539772,0.13845215 C29.3520608,0.1623042 29.5452718,0.16497745 29.7427805,0.2100231 C29.8814495,0.25934225 29.9249557,0.1777369 30.0319646,0.1213267 C30.1571833,0.1404964 30.1088007,0.09923585 30.2255606,0.0656676 C30.3254885,0.1048617 30.3964956,0.1087393 30.4875485,0.13976195 C30.6411441,0.0893883 30.6566858,0.17080125 30.7677462,0.22181685 C30.8219377,0.23833735 30.840644,0.23565485 30.9052088,0.2021495 C31.0138912,0.16530305 31.1317826,0.18010305 31.2503473,0.16576555 C31.2923643,0.17738355 31.3413692,0.2009433 31.3592414,0.21810575 C31.4074014,0.26435205 31.5898284,0.2773187 31.6735667,0.24044635 L31.7385093,0.21185275 C31.7872003,0.29810345 31.8654636,0.31662935 31.9392921,0.36878455 C32.0649325,0.4383871 32.0617132,0.3467936 32.1510962,0.3225512 C32.2311516,0.3225512 32.2432149,0.3408662 32.2375501,0.45379945 C32.2379151,0.59896525 32.2997588,0.5616415 32.4267241,0.59435875 C32.6340076,0.57672825 32.8222016,0.64140425 33.0269483,0.6214187 C33.0667133,0.6306317 33.0714692,0.6403701 33.0678375,0.70512565 C33.0367924,0.7894764 33.077145,0.8379649 33.0799372,0.87768625 C33.1100972,0.88467925 33.169083,0.87283925 33.2462823,0.8443326 C33.3305134,0.81321745 33.392129,0.80169935 33.4545787,0.8053901 L33.5601349,0.89125785 C33.5803121,0.98767245 33.6298152,1.0117095 33.7754046,0.9957884 C33.8588819,0.9866494 33.8725439,0.9901274 33.913433,1.03086625 C33.9613246,1.07858145 34.0601283,1.09224925 34.1250928,1.06014805 C34.1635547,1.04114115 34.1791858,1.05006555 34.2341585,1.1224801 C34.288841,1.20564315 34.238064,1.1764446 34.2434295,1.25059075 C34.2573542,1.26675975 34.3110841,1.28198895 34.3778991,1.2887026 C34.5319912,1.2991736 34.6699575,1.38396095 34.7953788,1.44437825 C34.8604364,1.5697324 34.9963697,1.60478435 35.1167194,1.6495044 C35.1452167,1.7273413 35.2165834,1.6627504 35.247977,1.6669129 C35.2627048,1.61270605 35.2923939,1.6127449 35.3558309,1.6670572 C35.4003919,1.7052079 35.4098271,1.7611038 35.3717084,1.7611038 C35.3645179,1.7611038 35.3410721,1.7762183 35.3195973,1.79469055 C35.2242173,1.8690476 35.3616526,1.8997206 35.3807896,1.9475135 C35.3498248,1.9937746 35.5886425,2.03956395 35.664745,2.00195715 C35.7238549,1.9727475 35.7838664,1.99466815 35.7716754,2.04101065 C35.7548306,2.105078 35.8164682,2.15165545 35.943021,2.17047365 C36.0899919,2.18590265 36.1538285,2.3003788 36.2742895,2.3860338 C36.473397,2.443702 36.6372418,2.51495475 36.8296735,2.55633555 C36.9907224,2.56834205 37.1529814,2.62939575 37.2871371,2.66927435 C37.3078436,2.70685525 37.3206788,2.7110344 37.4021669,2.7067313 C37.4526172,2.7040673 37.5372114,2.6896743 37.5901601,2.67473925 C37.6823281,2.64874675 37.6898307,2.6491297 37.766362,2.68369325 C37.8803461,2.76377605 37.9876433,2.7745042 38.1204686,2.78852165 C38.2261562,2.78859565 38.3075694,2.79803065 38.352313,2.815404 C38.6475742,2.830796 38.9409375,2.8622312 39.2382191,2.86508575 C39.3233863,2.89178495 39.3341356,2.89115225 39.5375866,2.84747375 C39.706817,2.80551205 39.8752043,2.82040825 40.0429254,2.83938925 C40.0689974,2.85226525 40.1300053,2.84776975 40.2668584,2.82286875 C40.4162109,2.7969188 40.5673136,2.78511025 40.7177831,2.7692021 C40.8023481,2.7535141 40.8724737,2.7554566 41.080792,2.7792476 C41.2716596,2.80103505 41.3488005,2.80386925 41.3766245,2.7901256 C41.3973255,2.7798951 41.4377656,2.77125375 41.4664893,2.77092075 C41.5685232,2.7493701 41.6688088,2.7162255 41.7691838,2.69077135 C41.8543128,2.66648825 41.9432176,2.6452003 42.0309673,2.62632845 C42.1466321,2.58279425 42.2906684,2.5637485 42.4857993,2.5661905 C42.6006118,2.5516125 42.7156233,2.5037234 42.8232199,2.46326575 C42.864463,2.46326575 42.9539172,2.45133325 43.0220098,2.43675525 C43.0901024,2.42217725 43.2027578,2.41007825 43.2723524,2.40987475 C43.3726708,2.40931975 43.4644646,2.37412165 43.5598738,2.34575375 C43.7497012,2.296035 43.9109837,2.32361665 44.0997417,2.2501661 C44.2548904,2.2101173 44.4105793,2.19648835 44.5697887,2.15286165 C44.6924779,2.11340115 44.8228395,2.10337045 44.9500128,2.08564005 C44.990818,2.07455855 45.0826283,2.0598862 45.1540369,2.0530227 C45.3138941,2.0376492 45.7614991,1.9352184 45.7786194,1.9100843 C45.8813194,1.89078325 45.9879651,1.87390755 46.0914864,1.85492655 C46.1420207,1.83079515 46.1850104,1.8269305 46.3215496,1.83423615 L46.6525133,1.76791735 C46.742192,1.72649955 46.8343217,1.6926131 46.8572491,1.6926131 C46.9083911,1.6926131 47.0792312,1.63828415 47.1155085,1.61048605 C47.1717861,1.59220805 47.2377251,1.59194165 47.2994247,1.58258065 C47.3742041,1.56754015 47.5689298,1.54838155 47.7321487,1.5400177 C47.8945116,1.51178115 48.0598238,1.51817845 48.2183944,1.5132519 C48.3467849,1.5492233 48.4119411,1.54474445 48.6092272,1.4863936 C48.7718475,1.43829545 48.7931161,1.4357961 48.8868809,1.4537707 C48.9974923,1.47497355 49.4172898,1.4462782 49.4611573,1.4145174 C49.4736038,1.4055079 49.6184121,1.3950184 49.7829541,1.39121665 C49.9819612,1.38661015 50.1430211,1.37284615 50.2640204,1.35007635 C50.417335,1.32393955 50.4895393,1.330594 50.6203407,1.34491485 C50.6642411,1.38159665 51.1662548,1.41287645 51.2546213,1.3844327 C51.2846882,1.3747572 51.3375146,1.3717232 51.3720144,1.3776987 C51.4065142,1.3836742 51.4845786,1.3788087 51.5454935,1.3668577 C51.6454159,1.3472773 51.6634341,1.34832625 51.7297455,1.3775877 C51.7993345,1.46229735 51.8692977,1.4364399 51.9576077,1.4682562 C52.25315,1.4556762 52.5219597,1.595218 52.8219769,1.6368356 C52.8808405,1.65960725 52.9383243,1.66719965 53.1480387,1.6799036 C53.1786422,1.6817536 53.242842,1.6772581 53.2907063,1.6699136 C53.3659291,1.6583511 53.387309,1.6622361 53.4483607,1.69845355 C53.5510991,1.7594092 53.6431229,1.77051475 53.6856837,1.72708785 C53.7378313,1.67388185 53.8074788,1.6832077 53.8693025,1.75167435 C54.0529321,1.81011585 54.2022737,1.79789475 54.3821238,1.8078607 C54.5198146,1.8099142 54.6516562,1.8661357 54.7883104,1.8979002 C54.8963121,1.8839512 54.9703177,1.9161412 55.072556,1.96661105 C55.1149799,1.98760485 55.1772033,2.00086195 55.2333221,2.00086195 C55.3584842,2.01057445 55.4551107,2.11673485 55.5499486,2.1813202 C55.5499486,2.21997225 55.6235947,2.2451304 55.7103168,2.2361061 C55.8111262,2.25875565 55.8950488,2.28937315 56.0168292,2.30800265 C56.0674146,2.35288365 56.1167243,2.3791222 56.1644827,2.3865703 C56.2580997,2.4369532 56.3337368,2.43664055 56.428062,2.4581875 C56.4612186,2.52706855 56.5413306,2.5206879 56.5924215,2.54888005 C56.7112527,2.56560405 56.8301934,2.6004451 56.9440479,2.63450915 C57.0983717,2.70358815 57.2362924,2.7861407 57.3896198,2.85087405 C57.4810085,2.86498955 57.5401075,2.92680545 57.6122442,2.98590185 C57.646014,2.99252485 57.686164,3.00763195 57.7014648,3.01945345 C57.7279949,3.0399533 57.9340373,3.06818245 58.0379547,3.06555545 C58.0771246,3.06463045 58.1031492,3.0848454 58.1676392,3.16661725 L58.2483224,3.26891855 C58.3455037,3.26155555 58.4424185,3.25123255 58.5394117,3.24185305 C58.6122384,3.23336155 58.6636723,3.26306885 58.6685798,3.3164728 C58.6700398,3.3322903 58.6735255,3.3711736 58.6763178,3.40289185 C58.6791283,3.43461195 58.6902608,3.4687241 58.7010556,3.4786919 C58.7118596,3.4886634 58.785575,3.50124155 58.8648822,3.50664725 C59.0215621,3.51023625 59.1188675,3.60135985 59.2445242,3.679169 C59.3013784,3.72923925 59.3588495,3.7647981 59.3829231,3.7647981 C59.4055659,3.7647981 59.4934652,3.78492425 59.5782547,3.8095237 C59.698628,3.84444615 59.7439701,3.866944 59.785133,3.9121728 C60.0111629,4.0412066 60.2313236,4.08364005 60.4464984,4.24659915 C60.4961475,4.2963993 60.5441469,4.3403738 60.7279444,4.3733371 C60.9602323,4.3639206 60.828188,4.46723015 60.9106981,4.5445139 C60.9343757,4.56778505 60.9722663,4.58682525 60.9949,4.58682525 C61.1577557,4.65817975 61.3096486,4.75700305 61.461808,4.8322481 C61.4901247,4.8896277 61.5951388,4.960812 61.6721867,4.97484795 C61.7658767,4.99192345 61.8561138,5.0298244 61.8561138,5.05211135 C61.9752808,5.2274451 62.1468564,5.31009755 62.3423741,5.3705611 L62.44979,5.4689737 C62.5239744,5.7135881 62.7557384,5.8380265 62.9135517,6.0382187 C62.9585543,6.0594123 63.0145526,6.07675235 63.0379948,6.07675235 C63.129451,6.08100735 63.1713201,6.1638522 63.2262052,6.2049888 C63.2828514,6.28246495 63.3351851,6.3696943 63.3899515,6.44535745 C63.3960652,6.48016335 63.4269588,6.5444046 63.458597,6.58811455 C63.5043388,6.6513087 63.5346904,6.6732719 63.606787,6.6953535 C63.7023075,6.7135575 63.7642882,6.78942415 63.8321015,6.8376851 C63.872549,6.92706785 63.9272716,6.97345845 64.0858386,7.0527883 C64.1816493,7.16033065 64.277949,7.2625302 64.3724713,7.36700525 C64.4233596,7.41257075 64.4437941,7.47602205 64.4811573,7.5331334 C64.5069701,7.5654381 64.537026,7.61940815 64.5479468,7.6530652 C64.7218128,7.7744289 64.829433,8.00316845 64.8954798,8.16171345 C64.945149,8.18275165 64.996249,8.2116061 65.0090386,8.22583445 C65.1392943,8.23970945 65.1398235,8.31541515 65.2123217,8.3954554 C65.2403409,8.53236835 65.339703,8.5861053 65.4362455,8.6698289 C65.6570103,8.73946845 65.6848926,8.93724825 65.7856345,9.13019585 C65.8012747,9.14712335 65.8458102,9.1774393 65.8846006,9.19756915 C65.9855888,9.24711585 66.0275546,9.35510035 66.0849582,9.4421521 C66.1652217,9.60638585 66.3332111,9.7056365 66.4350534,9.88919535 C66.4767583,9.90693685 66.5157695,9.9349329 66.5217428,9.9514164 C66.5968853,9.9819562 66.6363747,10.0533625 66.6970285,10.1092454 C66.6970285,10.1492646 66.7728591,10.2553954 66.801455,10.2553954 C66.8435158,10.2773549 66.8790339,10.3173704 66.9184193,10.3488334 C66.9999037,10.4106456 67.0185132,10.5332691 67.0448534,10.6270826 C67.1701853,10.6989496 67.250854,10.8125081 67.345263,10.9196953 C67.4906316,11.0457339 67.4729565,11.2336551 67.554169,11.4071444 C67.5931364,11.4783675 67.6421139,11.5503751 67.6820996,11.6220126 C67.7102558,11.6964437 67.7555614,11.7366719 67.792107,11.7937148 C67.8591922,11.8701568 67.9329879,11.94947 67.9953737,12.0231888 C67.995381,12.0446137 68.0215496,12.1122367 68.0535236,12.1734606 C68.0854995,12.2346845 68.1277227,12.3425765 68.1473524,12.4132188 C68.1669857,12.483861 68.1938643,12.5801924 68.2070846,12.6272878 C68.2203159,12.6743833 68.2529852,12.7514487 68.2797032,12.7985442 C68.336479,12.9248437 68.4087416,13.0457097 68.4706238,13.1661466 C68.5106752,13.210097 68.517331,13.2307264 68.508206,13.2826466 C68.3895992,13.3902371 68.4922737,13.4160594 68.4904122,13.5117802 C68.5158381,13.6962437 68.5058517,13.8434242 68.4581791,13.9770811 C68.4105046,14.1107418 68.325142,14.2308789 68.1998102,14.361254 C68.1829654,14.4307381 68.1138344,14.4263795 68.0690215,14.4603252 C68.0367793,14.4961948 68.0742958,14.6502369 68.1355939,14.7336312 C68.1604814,14.7674918 68.1808429,14.8032726 68.1808429,14.8131424 C68.236281,14.8985217 68.2743651,14.9938282 68.3123743,15.0883576 C68.3212803,15.2001087 68.3681281,15.2959221 68.4034126,15.3980162 C68.4728612,15.4653266 68.4467965,15.5610474 68.4581207,15.6419276 C68.4298733,15.6580411 68.4381588,15.7188284 68.4854774,15.8426174 C68.511564,15.9293177 68.5371614,16.0019339 68.5632626,16.0883862 C68.6443893,16.3052377 68.6596062,16.5031969 68.7664964,16.7085858 C68.8051389,16.7723701 68.8101084,16.7987733 68.802781,16.9013114 C68.7961928,16.9934932 68.8022335,17.0373918 68.8300374,17.0971302 C68.8838037,17.1638301 68.9132958,17.2311756 68.9598405,17.3017494 C68.9598405,17.3328128 69.1224462,17.5906602 69.1569114,17.6142459 C69.1773751,17.7241007 69.1820361,17.8517526 69.2038869,17.9717325 C69.1136972,18.0617757 69.1735864,18.1328823 69.1642533,18.2193013 C69.2424491,18.3187721 69.2644842,18.4393477 69.3030866,18.5533577 C69.3361775,18.7025047 69.3669397,18.8490746 69.3864343,19.0003251 C69.4086044,19.1044801 69.4162384,19.2086961 69.4370927,19.310707 C69.4274932,19.4210706 69.4638271,19.5503523 69.5121877,19.5779506 C69.5329526,19.5898091 69.5655982,19.7018858 69.5813899,19.8155516 C69.6186911,19.947699 69.7008106,20.065322 69.7651984,20.1868725 C69.8035581,20.3126078 69.7734839,20.4449568 69.7832659,20.582125 C69.8223866,20.6535924 69.8251606,20.678473 69.8214522,20.9246377 C69.7921501,21.1645365 69.7792874,21.3449041 69.8684606,21.5618166 C69.904331,21.6198566 69.9134104,21.7333893 69.8837906,21.7535543 C69.8263031,21.7926947 69.8103453,21.8452865 69.8325957,21.9223039 C69.9014164,22.0678138 69.8597207,22.1901765 69.8793595,22.3427349 C69.890784,22.4603745 69.9099428,22.5812387 69.9279538,22.6991318 C69.9788913,22.7727692 69.9746245,22.8651656 69.9814537,22.956304 C69.9948492,22.9927231 70.0068467,23.0811846 70.0081169,23.1528795 C70.0339096,23.3111118 70.0469328,23.4708852 70.0455075,23.6255822 C70.056713,23.7948406 70.0509825,23.9518556 70.0806789,24.1155769 C70.1241084,24.1849612 70.099783,24.3285064 70.0981077,24.3940907 C70.1343996,24.4534332 70.1661856,24.5321914 70.1932431,24.6015257 C70.2289456,24.6615008 70.2581583,24.7164662 70.2581583,24.7236664 C70.2581583,24.7308629 70.2297668,24.7462438 70.1950644,24.7578285 C70.1012886,24.7891397 70.0816425,24.8179313 70.1103662,24.8819598 C70.1891186,24.9439403 70.1956046,25.0294455 70.2371526,25.1104403 C70.2460038,25.1154908 70.2575908,25.1552788 70.2629125,25.1988611 C70.2682232,25.2424434 70.2888311,25.2984928 70.3086889,25.323416 C70.3285468,25.3483355 70.3506566,25.3905063 70.3578252,25.4171259 C70.368465,25.4566086 70.362187,25.471823 70.3237817,25.4997155 C70.2552529,25.5494879 70.2695865,25.6884247 70.345981,25.7149001 C70.4187437,25.7401119 70.4443065,25.8117309 70.4025688,25.8734395 C70.4199428,25.9712213 70.4824417,26.0993042 70.5178248,26.2103874 C70.5819389,26.2760865 70.5554034,26.3545709 70.5728102,26.4379448 C70.582647,26.4549278 70.5945022,26.5025801 70.5991486,26.5438536 C70.6226017,26.7522358 70.6358129,26.8263597 70.6530938,26.8465358 C70.6256987,26.9042706 70.6661061,26.9543427 70.6727381,27.0093192 C70.7257452,27.0551437 70.7660887,27.161848 70.7534633,27.2228277 C70.7483716,27.2474623 70.7600333,27.3133926 70.7793875,27.369344 C70.772124,27.4546234 70.8410889,27.501495 70.8698783,27.5631592 C70.9230332,27.6044568 70.9757903,27.7247345 70.9546221,27.7563603 C70.9558996,27.8024919 70.9849591,27.8448994 70.999946,27.888639 C71.0823229,27.9618842 71.1218286,28.0690343 71.1669755,28.1701979 C71.1669828,28.1851089 71.2114781,28.2256128 71.265854,28.2601911 C71.320228,28.2947695 71.381152,28.3403627 71.4012416,28.3615082 C71.4540571,28.4171081 71.5168043,28.5772293 71.5169722,28.6568404 C71.5171547,28.7607179 71.6004677,28.9203155 71.6653428,28.9411965 C71.7271355,28.9813433 71.7862053,29.0292935 71.8441655,29.076968 C71.8570317,29.1144212 71.9381931,29.1962967 71.9624419,29.1962967 C71.9887912,29.2507218 72.0271254,29.303506 72.0581321,29.3548972 C72.0855582,29.3707147 72.0943675,29.3949608 72.0943675,29.4546473 C72.1101902,29.5476616 72.166006,29.6279109 72.2163651,29.7085191 C72.2513613,29.7469233 72.2633023,29.7782419 72.2609352,29.8254299 C72.2540185,29.9632604 72.2618477,29.9971524 72.3131923,30.0514388 C72.3417353,30.0816253 72.4089135,30.1867071 72.4624791,30.2849551 C72.5160447,30.3832049 72.565723,30.4638353 72.5728752,30.464135 C72.6940096,30.5332251 72.679749,30.6742598 72.6986049,30.8061019 C72.7049012,30.8579075 72.7153402,30.9079999 72.7218025,30.9174183 C72.728263,30.9268348 72.7384465,30.9885526 72.7444234,31.0545625 C72.7536031,31.1558944 72.7659255,31.1888521 72.8236028,31.2662728 C72.8611723,31.3167038 72.8919126,31.3630944 72.8919126,31.369364 C72.8919126,31.3756355 72.8742283,31.3947423 72.8526148,31.4118289 C72.8174234,31.4396511 72.8146621,31.453922 72.8261961,31.5483589 C72.8284409,31.6140746 72.8660304,31.6724014 72.884107,31.7286932 C72.8778108,31.7380912 72.8863153,31.8368368 72.9029867,31.9481236 C72.9196672,32.0594103 72.9358878,32.2275272 72.9390432,32.3217181 C72.9447007,32.4907008 72.9686283,32.7508108 72.9944976,32.9246831 C73.0055571,32.9990401 73.0012319,33.024128 72.9684366,33.0754396 C72.9468031,33.1092946 72.9235471,33.1809007 72.9167618,33.2345618 C72.9099728,33.2882229 72.8939529,33.3398342 72.8811615,33.3492525 C72.8528375,33.3701076 72.8415791,33.547197 72.862802,33.637982 C72.8828022,33.7235242 72.8558487,33.7396377 72.7521157,33.7041399 L72.6733341,33.6771798 L72.5461426,33.7982512 C72.4549273,33.885081 72.390096,33.9302228 72.316939,33.9578581 C72.260833,33.9790517 72.1872764,34.0222566 72.1534792,34.0538657 C72.0877336,34.1098671 72.0135291,34.1449264 71.9412445,34.1864922 C71.7834897,34.2696423 71.6311277,34.3816136 71.4879291,34.4881051 C71.4774354,34.4881051 71.4387563,34.5101886 71.4019716,34.5371801 C71.3433599,34.5741301 71.280089,34.6099887 71.2226325,34.6443117 C71.2226325,34.6723929 71.0002563,34.8648669 70.9676034,34.86505 C70.9497549,34.8651481 70.880894,34.9157419 70.8145862,34.9774745 C70.7441412,35.0430607 70.6724899,35.0937692 70.6422132,35.0994635 C70.543081,35.1728493 70.4426549,35.2424519 70.3322497,35.3070021 C70.2867616,35.3797256 70.2134477,35.4509598 70.1834666,35.4872901 C70.0918005,35.5039586 70.0154954,35.5158911 69.9379566,35.5354475 C69.8894043,35.5801379 69.8329753,35.6144351 69.7807438,35.6537328 C69.7669286,35.6717148 69.720486,35.6883666 69.6643398,35.6954965 C69.5640251,35.708243 69.5162557,35.7386774 69.5162557,35.7898613 C69.5162557,35.8074733 69.5084812,35.8263137 69.4989912,35.8317324 C69.4386311,35.8277364 69.4635917,35.7312293 69.4481248,35.6873177 C69.4272504,35.6878727 69.3678777,35.8006579 69.3678777,35.8397336 C69.3678777,35.8600466 69.3508322,35.8742935 69.3200463,35.8797269 C69.2639786,35.8896244 69.2443909,35.8598246 69.2737114,35.8092401 C69.2846979,35.790285 69.2936878,35.7602225 69.2936878,35.7424347 C69.2936878,35.7134415 69.2804018,35.7105296 69.1653812,35.7143018 C69.0960567,35.7309703 68.9647735,35.7385312 68.9295839,35.7434781 C68.9206049,35.7117932 68.8990097,35.7084798 68.6361129,35.6984639 C68.4800316,35.6925069 68.3295239,35.6796476 68.3016525,35.6698611 C68.2290266,35.6443662 67.6550477,35.6670491 67.5594889,35.6991836 C67.5186837,35.7129106 67.4239005,35.726595 67.3488565,35.7296013 C67.2738125,35.7325983 67.2032854,35.7434948 67.1921291,35.7537937 C67.1789709,35.7659297 67.0565444,35.7725231 66.8439666,35.7725231 C66.5815626,35.7725231 66.5116761,35.7676206 66.4939772,35.7479181 C66.4818045,35.7343946 66.4244502,35.718579 66.3665083,35.712794 C66.1452927,35.6907069 66.1275902,35.6860523 66.1071374,35.6446086 C66.0836533,35.5970118 65.8961547,35.5455059 65.7325525,35.541706 C65.623496,35.5391715 65.5965225,35.532197 65.4846883,35.4776905 C65.40093,35.436861 65.1724144,35.425896 65.1002776,35.459246 C65.0756876,35.470605 64.9554091,35.503831 64.8329954,35.5330591 C64.5017141,35.6121559 64.4678075,35.6224992 64.3981874,35.6656671 C64.3094358,35.7207009 64.2752535,35.7109699 64.2825517,35.6327501 C64.3757143,35.5043138 64.5078188,35.4272798 64.6308457,35.335666 C64.6907513,35.2934767 64.7495309,35.2068782 64.7495309,35.1608095 C64.7495309,35.147508 64.7407526,35.1214804 64.7300216,35.1029693 C64.7106785,35.0695953 64.7100616,35.0696045 64.6576056,35.1040793 C64.628506,35.123212 64.577563,35.1388648 64.5443954,35.1388648 C64.5086583,35.1388648 64.4593413,35.1562918 64.4233304,35.1816572 C64.2822579,35.2173455 64.2096594,35.273456 64.0920217,35.3363542 C64.0535562,35.3562398 64.0131343,35.3872736 64.0021952,35.4053222 C63.9464707,35.4972616 63.8549341,35.5099304 63.8728867,35.4232117 C63.9313998,35.2644354 63.8937574,35.2185221 64.0162623,35.1119399 C64.0381787,35.0634181 64.0847947,35.0482481 64.120895,35.0146965 C64.1399207,34.9811153 64.1801181,34.9349301 64.3179184,34.788312 C64.3385427,34.7663673 64.3498121,34.7245 64.3501862,34.668432 L64.3507337,34.5822757 C64.1386797,34.5666617 64.0031205,34.7181656 63.8592229,34.8308287 C63.8592229,34.8649631 63.8294079,34.8893442 63.7867558,34.8900842 C63.7724113,34.8902692 63.7431894,34.9175086 63.7218387,34.9504756 C63.6700507,35.0304419 63.5782952,35.121732 63.5497102,35.121732 C63.5262133,34.9790378 63.5992389,34.8075335 63.687025,34.6625916 C63.7088739,34.6596686 63.7577182,34.6211349 63.7955632,34.5769625 C63.9116278,34.4478584 64.0687822,34.2966764 64.1615524,34.1941142 C64.2891181,34.1133858 64.3859909,34.0773274 64.4786717,33.977618 C64.5247621,33.9525098 64.543868,33.9277013 64.5534547,33.8805152 C64.5755664,33.7716815 64.61935,33.7679612 64.6746858,33.7175894 C66.2440708,32.2890157 64.7772691,33.6730876 64.8201292,33.6392141 C64.8629911,33.6053388 64.9276947,33.5700685 64.9639136,33.5608333 C65.0001362,33.5516018 65.0349317,33.5316274 65.0412389,33.5164481 C65.0701852,33.4467975 65.1696076,33.3860879 65.3003779,33.3582176 C65.353427,33.3469141 65.4066148,33.3267769 65.4185704,33.3134754 C65.5251595,33.2765142 65.6264251,33.2214157 65.7276999,33.1687499 C65.765638,33.130836 65.8213735,33.1250751 65.8694458,33.1026623 C65.9600333,33.0592003 66.0613026,33.0491844 66.1591207,33.0316538 C66.2050268,33.0220338 66.3051828,33.007219 66.3816923,32.9987238 C66.4581999,32.9902323 66.5469551,32.9746238 66.5789237,32.9640492 C66.6108922,32.9534672 66.7193939,32.9422692 66.8200408,32.9391538 C67.0051232,32.9334188 67.0580956,32.9290713 67.3090697,32.8988978 C67.4840634,32.877867 67.5080348,32.8684838 67.5420802,32.8077002 C67.5667049,32.7637294 67.579354,32.7583995 67.6590773,32.7583995 C67.7456644,32.7583995 67.809857,32.7245205 67.809857,32.6788181 C67.809857,32.6449205 67.9299639,32.5186414 67.9622061,32.5186414 C67.9825476,32.5186414 67.9953317,32.5059134 67.9953317,32.4856448 C68.0669374,32.4199013 68.0712152,32.3377965 68.0943015,32.2434335 L68.094849,31.9392454 C68.0273221,31.8768949 68.0267199,31.8767265 68.0082363,31.914979 C67.9687323,32.0027707 67.9513985,31.8977925 67.909064,31.8849942 C67.8500051,31.8450675 67.8778984,31.7670622 67.8683318,31.7308651 C67.8495106,31.7308651 67.8191827,31.7156396 67.8009364,31.6970175 C67.7826864,31.678401 67.7613485,31.6668292 67.7535101,31.6713025 C67.7399868,31.679017 67.6688575,31.5854662 67.6392943,31.5210751 C67.6317205,31.5045916 67.6157536,31.491107 67.603798,31.491107 C67.5918443,31.491107 67.5727931,31.4798775 67.5614653,31.4661634 C67.3661027,31.3301903 67.1762024,31.3450976 66.988826,31.2576925 C66.9456136,31.2515875 66.8869326,31.23572 66.8584261,31.2224444 C66.8161408,31.2027512 66.7950164,31.2021703 66.7437248,31.2192994 C66.6760082,31.2419083 66.6227675,31.2211679 66.6227675,31.172191 C66.6227675,31.1430258 66.4538692,31.1392018 66.3974365,31.167085 C66.3690377,31.1811265 66.3525634,31.1796835 66.3291012,31.161128 C66.3120922,31.1476785 66.2842026,31.1321163 66.2671115,31.1265404 C66.2336683,31.1156254 66.120084,31.1382879 66.0526539,31.1693143 C66.0215084,31.1836518 65.9858078,31.1828008 65.9097016,31.1659473 C65.8422515,31.1509993 65.7482512,31.146785 65.6291736,31.1533488 C65.4631278,31.1624878 65.4494074,31.1608043 65.4407423,31.1302201 C65.3936081,31.0897957 65.3079718,31.0782739 65.2428047,31.0616887 C65.1860198,31.0335872 65.152677,31.0284793 65.0834329,31.0372742 C64.9307643,30.9878145 64.840717,30.9353133 64.6553171,30.957049 C64.6407901,30.943951 64.5886425,30.919185 64.5394314,30.9020152 C64.4655609,30.8678605 64.4052921,30.8241024 64.3375317,30.7811362 L64.0177661,30.7290272 L63.9877522,30.6538469 C63.9558877,30.5740342 63.911177,30.5426397 63.8025785,30.5238289 C63.7504492,30.5148009 63.7305239,30.5196294 63.7027054,30.5480047 C63.5479418,30.6197218 63.4231829,30.5243229 63.2821707,30.4615672 C63.22845,30.4084685 63.2249934,30.3977144 63.2344524,30.3130973 C63.2424459,30.241617 63.2386316,30.2197389 63.2168046,30.2120114 C63.176244,30.1976369 63.1450931,30.2347886 63.1450931,30.297524 C63.1450931,30.3462345 63.1391071,30.3524597 63.0907592,30.3540341 C63.0094719,30.3566796 62.8902665,30.3281803 62.8532427,30.2972409 C62.83523,30.2822004 62.8205095,30.2532905 62.8205095,30.2330034 C62.8205095,30.2127163 62.8086653,30.181159 62.7941839,30.1628736 C62.7683948,30.1303099 62.7668746,30.1304838 62.7198498,30.1712726 C62.6739091,30.2111234 62.6692535,30.2117746 62.6116328,30.1864056 C62.5329625,30.1695336 62.461397,30.1295588 62.3885558,30.1019512 C62.3703058,30.0842097 62.3487105,30.0696946 62.3405637,30.0696946 C62.332406,30.0696946 62.3101191,30.0272334 62.2910132,29.9753372 C62.2371976,29.8291521 62.0807038,29.7433232 62.0415119,29.8385001 C62.0307262,29.8647128 62.0093208,29.8813128 61.9863294,29.8813128 C61.9358645,29.8646073 61.9420604,29.7813074 61.9199961,29.7314647 C61.9041734,29.7149812 61.8765265,29.6831778 61.8585685,29.660791 C61.7295975,29.6368039 61.7077578,29.5355386 61.645215,29.4568729 C61.5497803,29.4680839 61.3674537,29.4197526 61.3324721,29.4165762 C61.3134099,29.3455362 61.2806238,29.280653 61.2514457,29.2122677 C61.2287829,29.1677641 61.1672858,29.1273139 61.1462837,29.1061147 C61.1337095,29.1150872 61.0873746,29.1189167 61.0433355,29.1146247 C60.9565677,29.1061887 60.928658,29.0720544 60.928658,28.9743688 C60.917635,28.9313471 60.8921981,28.9003041 60.8730155,28.8613375 C60.8730155,28.835567 60.85524,28.8029904 60.8312833,28.7848493 C60.8047715,28.594512 60.7170821,28.5573252 60.5574256,28.4852584 C60.5334049,28.458537 60.5056777,28.3601892 60.4923297,28.2543766 C60.5023672,28.1723846 60.5010167,28.0530836 60.5016737,28.0376657 C60.4414012,27.873469 60.3376554,28.0329297 60.2967116,28.0317457 C60.2545468,28.0317457 60.2290862,27.9840379 60.2165211,27.8814887 C60.2248431,27.7903892 60.2363077,27.7564158 60.2423065,27.7185037 C60.2114147,27.6711197 60.1788129,27.6230197 60.1483318,27.5771785 C60.1022323,27.563914 60.0823653,27.5411942 60.0441772,27.4580385 C60.018222,27.4015247 59.9875182,27.3367766 59.9759459,27.3141548 C59.9499433,27.263326 59.9550843,27.1240599 59.9858557,27.0454756 C60.0198536,26.9586643 59.9808187,26.9301022 59.8164646,26.9215274 C59.6839642,26.9146084 59.6519847,26.9260969 59.6257813,26.9900366 C59.5568401,27.0382957 59.4827762,27.0899218 59.4237064,27.1296062 C59.3521883,27.1455902 59.2695997,27.1907339 59.2042337,27.2269291 C59.1637662,27.2269809 59.1197161,27.2416736 59.0887532,27.2654609 C59.0450079,27.2990606 59.037363,27.3199675 59.0281358,27.4312339 C59.0223323,27.5012638 59.0140833,27.5617921 59.0098,27.5657418 C58.9424758,27.5440487 58.8872367,27.5200117 58.8240771,27.4964464 C58.7200612,27.5023849 58.6287528,27.5860789 58.6287528,27.675469 C58.5651041,27.7554686 58.49782,27.7997779 58.4260975,27.9123837 C58.3824818,28.0505177 58.2396938,28.0322119 58.1107375,28.1460165 C58.0468917,28.2164553 57.9841646,28.2666698 57.9393317,28.283231 C57.8809408,28.3048057 57.8648151,28.3217221 57.846764,28.3803394 C57.7778666,28.5378502 57.6228548,28.5539471 57.4788039,28.6345664 C57.4568856,28.5418055 57.3584324,28.590899 57.2850528,28.5801135 C57.222083,28.5580097 57.1693879,28.5996347 57.1540214,28.6836154 C57.1469952,28.7219992 57.1316487,28.7564851 57.119914,28.7602517 C57.0979118,28.7673187 57.0050832,28.7813768 56.9640845,28.7838651 C56.9513278,28.7846051 56.9153388,28.8372912 56.8841276,28.9008702 C56.8509802,29.0134223 56.7725471,29.061045 56.7078728,29.1328565 C56.6843102,29.2319055 56.6496297,29.2625193 56.5545545,29.2681877 C56.4716795,29.2731272 56.4672338,29.2760687 56.4510405,29.3365877 C56.4360755,29.3925151 56.4285693,29.3988957 56.3861235,29.3917825 C56.3100867,29.379036 56.2874402,29.406009 56.2752018,29.5238447 L56.2639415,29.6322899 L56.0997189,29.6503089 C55.918157,29.6702389 55.8719607,29.6988529 55.89268,29.7785509 C55.9236228,29.8975688 55.9237907,29.9840655 55.8932275,30.0689842 C55.8115715,30.163843 55.7120798,30.2453595 55.6141156,30.326569 C55.6089326,30.326569 55.5727976,30.3070811 55.5338156,30.2832605 C55.4539335,30.295452 55.4285879,30.21674 55.4014648,30.1995942 C55.4014648,30.1503639 55.3920843,30.1335048 55.3562796,30.118444 C55.2834731,30.0878154 55.2469256,30.1110625 55.2607664,30.1791961 C55.2696907,30.2230948 55.2654384,30.2394728 55.2430822,30.2473964 C55.2537402,30.2585149 55.3093516,30.3349587 55.3386446,30.3736644 C55.3344471,30.4184048 55.3301766,30.460792 55.3291546,30.4678553 C55.3025443,30.4787148 55.2703185,30.4894393 55.2426387,30.4995939 C55.1333449,30.4456664 55.0100351,30.5658221 54.9859798,30.5730963 C55.0024048,30.6126308 54.9579569,30.734531 54.9114523,30.7774695 C54.8834896,30.8032899 54.8633635,30.8477806 54.8552186,30.9017932 C54.8482471,30.9480543 54.8312089,31.000067 54.8173699,31.0173793 C54.7360917,31.0491771 54.6550799,30.943544 54.5879528,30.8745889 C54.5495657,30.8745889 54.5297426,30.9060038 54.5297426,30.9668336 C54.5297426,31.0197732 54.4205182,31.1245702 54.3505531,31.1387615 C54.281225,31.1528215 54.2287581,31.2017355 54.2258308,31.2550396 C54.2001312,31.3100475 54.1392218,31.3414068 54.0954674,31.3850372 C54.0545728,31.457313 53.9712013,31.5202519 53.8855212,31.5435304 C53.8161311,31.5623838 53.8056027,31.5720241 53.7949793,31.6264585 C53.7780798,31.7129886 53.7464325,31.7639709 53.6948489,31.7877156 C53.6584456,31.8044766 53.6494611,31.8234484 53.6446833,31.8936596 C53.6564363,31.9770761 53.5791713,32.0192912 53.54646,32.0820192 C53.5114181,32.0922867 53.5091898,32.1019751 53.5205431,32.1946342 C53.5299236,32.2711521 53.5272044,32.2960124 53.5094289,32.2960124 C53.475889,32.3462843 53.4274754,32.3157167 53.3947751,32.3235792 C53.3126446,32.2926824 53.282669,32.4039543 53.2436067,32.4663308 C53.149882,32.4994328 53.0720092,32.6388747 53.0515984,32.8101496 L53.0366699,32.9354723 L52.9308163,32.9367673 C52.8443642,32.9132353 52.7956878,32.9877237 52.7256662,33.0141287 C52.6578109,33.1409573 52.5701269,33.2237337 52.4839979,33.3254837 C52.3740836,33.3819383 52.3777044,33.4570039 52.3195344,33.5363319 C52.2747817,33.6001051 52.20424,33.6363466 52.1486286,33.6839009 C52.1162458,33.7837435 52.0512338,33.8616618 51.9993491,33.9497718 C51.9527349,34.0020491 51.9222373,34.0549924 51.8933695,34.0943826 C51.7839261,34.1052791 51.7552772,34.1952372 51.7017262,34.2850954 C51.6791492,34.3423825 51.633119,34.377662 51.5997836,34.4226392 C51.5200968,34.4909911 51.4922783,34.6044313 51.4521666,34.702078 C51.3178941,34.8535264 51.3152077,35.0064048 51.2847338,35.0753395 C51.1141054,35.3284047 51.1654354,35.3500682 51.3766627,35.4141189 C51.3766627,35.4632993 51.336677,35.4760699 51.2335134,35.4598343 C51.1430189,35.4455893 51.1359744,35.4408903 51.1251193,35.3874604 C51.1069058,35.2977706 51.0248903,35.2920689 50.9968054,35.3785434 C51.0185265,35.5030984 50.8583937,35.4646535 50.845407,35.4727343 C50.7943618,35.4256019 50.7066194,35.4408181 50.6418575,35.5080323 C50.590564,35.5612679 50.5692845,35.5702626 50.4744575,35.5787967 C50.414707,35.5841802 50.3533013,35.5983456 50.3380005,35.6102892 C50.322707,35.6222402 50.2475808,35.6414284 50.1710714,35.6529354 C50.0945619,35.6644424 49.9944059,35.6810554 49.9484998,35.6898466 C49.7763111,35.7228229 49.7404334,35.7244601 49.6579124,35.7031296 C49.5407602,35.6728433 49.3123687,35.6726231 49.2730436,35.7027596 C49.1847757,35.6883296 49.1092882,35.7224621 49.0288513,35.7333586 C48.9990965,35.7354121 48.9163291,35.7437001 48.8449205,35.7517846 C48.7735119,35.7598506 48.6414695,35.7641981 48.5514915,35.7614231 C48.3707454,35.7122575 48.2968438,35.7070923 48.1298399,35.7184476 C48.0232526,35.7173376 47.8685492,35.7520936 47.8444336,35.7825446 C47.7472724,35.7893341 47.6304195,35.7894266 47.5203556,35.8012462 C47.4531755,35.8046317 47.3523059,35.8116432 47.2961981,35.8168232 C47.1265772,35.8078137 46.9863496,35.8696444 46.8329438,35.9182717 C46.7846342,35.9666288 46.7076466,35.9786612 46.6476661,36.0106921 C46.5400368,36.0327367 46.5326619,36.0319671 46.4367199,35.9886253 C46.3820392,35.9639241 46.3276998,35.9437129 46.3159651,35.9437129 C46.3319886,35.9819579 46.3208743,36.0368086 46.3224438,36.0667101 C45.2731619,35.68058 46.1906259,36.0349549 45.0009303,36.0344998 C44.867156,35.924989 44.7377872,36.0140924 44.5842646,36.0464693 C44.5043606,36.0865828 44.4010583,36.0374413 44.3286496,36.0209393 C44.3196706,35.9991278 44.3051783,35.9772071 44.2964456,35.9722251 C44.2877221,35.9672486 44.1933021,35.9590716 44.0866418,35.9540581 C43.9207803,35.9462696 43.8882333,35.9398686 43.861769,35.909906 C43.8223873,35.8510464 43.765398,35.7917983 43.6826726,35.7531351 C43.6430482,35.680284 43.6325435,35.6728396 43.5528403,35.6611328 C43.4404732,35.6366758 43.2993733,35.6618728 43.2011573,35.6721588 C43.1487816,35.6608553 43.1072811,35.6224585 43.0606943,35.5977943 L43.0142609,35.5430103 C43.0126184,35.602251 42.9510593,35.623069 42.9189667,35.6637209 C42.9189667,35.708095 42.9081444,35.7169029 42.8123173,35.7504841 C42.6343433,35.8128568 42.6222052,35.8142055 42.6222052,35.7716388 C42.6599134,35.6947103 42.7270442,35.6290427 42.7842433,35.5640559 C42.8203729,35.5057864 42.820955,35.4995593 42.7922551,35.4782806 C42.7058614,35.4142244 42.5356199,35.361442 42.4154127,35.361442 L42.325442,35.361442 C42.2448701,35.449108 42.167793,35.5314015 42.037446,35.5840747 C41.9343043,35.6351588 41.9138005,35.6402185 41.8986475,35.6183256 C42.0081347,35.4692212 42.0785341,35.3970064 42.1151965,35.2157397 C42.0946251,35.0986625 41.9948378,35.0902154 41.9377335,35.0306602 C41.8202437,35.205487 41.8019736,35.2843877 41.6769319,35.3690936 C41.6602149,35.3968492 41.598174,35.4500552 41.5390696,35.487329 C41.45257,35.5418799 41.4283906,35.5504084 41.4151174,35.5310556 C41.3903667,35.4949565 41.3947394,35.4641947 41.4246256,35.4641947 C41.5696182,35.3516093 41.62193,35.1786935 41.7010894,35.0222908 C41.5206006,34.9473306 41.3526111,35.0420432 41.1762212,35.1803807 C41.1432015,35.2697468 40.9936482,35.3462461 40.9217104,35.4078012 C40.8914391,35.2716911 40.9740021,35.1875938 41.0456626,35.0876013 C41.1060427,35.0295724 41.1555714,34.9537076 41.2142597,34.8890945 C41.2543093,34.855628 41.2580834,34.8163395 41.2301555,34.7235139 C41.2146795,34.6720821 41.2019702,34.659293 41.1662987,34.659293 C41.0165502,34.720911 40.953365,34.8734361 40.872001,35.0116366 C40.8823853,35.052098 40.8359317,35.0967847 40.803016,35.0780017 C40.7657386,35.0567267 40.7959715,34.8866155 40.8497725,34.8149335 C40.8869496,34.7325567 40.9264043,34.652757 40.9600682,34.5697512 C41.0745395,34.41814 41.081292,34.3599852 41.2786329,34.3296249 C41.45912,33.9516329 41.8575905,33.941173 42.141367,33.7174617 C42.2260087,33.7169067 42.29353,33.6626666 42.3650481,33.6226844 C42.4449047,33.6064969 42.5324426,33.5625797 42.5897239,33.5099861 C42.743367,33.3177359 42.8810997,33.2493081 43.0769259,33.1798924 C43.2062271,33.1026216 43.379593,33.1292357 43.5402934,33.0907317 C43.5650714,33.0757467 43.6378104,33.0593039 43.7019336,33.0542053 C43.7660532,33.0490993 43.8289682,33.0372963 43.8417432,33.0279556 C44.1573113,33.0074706 44.4718391,32.9675883 44.786825,32.9346546 C44.9581359,32.9304921 45.1191648,32.9276986 45.1446691,32.9284386 C45.7208216,32.9451996 45.810128,32.9431646 45.8400398,32.9126396 C45.8575415,32.8947871 45.8851757,32.8855722 45.9060993,32.8906246 C45.9258823,32.8953976 46.0109601,32.8898846 46.0951583,32.8785441 C46.1793565,32.8671296 46.3113971,32.8581108 46.38858,32.8585215 C46.527322,32.8592615 46.5292966,32.8586492 46.5627708,32.8045293 C46.5813931,32.7744224 46.6170609,32.7293804 46.642036,32.704435 C46.6801584,32.6663565 46.6840566,32.6532455 46.6663432,32.6226854 C46.6495897,32.5937791 46.6511592,32.5808365 46.6739352,32.5598057 C46.6897032,32.5452462 46.7077597,32.5143919 46.7140505,32.4912558 C46.7521985,32.4484135 46.7788818,32.3842796 46.8012691,32.3473369 C46.8319619,32.3473369 46.8410669,32.3168156 46.8778224,32.0907604 C46.8973645,31.970577 46.8987515,31.9252502 46.8831514,31.9163535 C46.8559662,31.900832 46.8324948,31.9145035 46.8324948,31.9458962 C46.8324948,31.9777939 46.778796,31.9780547 46.7655684,31.9462662 C46.7883116,31.8845113 46.7731604,31.8209398 46.7770294,31.7572979 C46.7600204,31.6816644 46.7614622,31.6543066 46.7851689,31.6018998 C46.82122,31.5222314 46.8229939,31.5285861 46.7629459,31.5222073 C46.7148079,31.5171013 46.7118331,31.5117363 46.7100483,31.4268787 C46.7775569,31.3186056 46.6944628,31.3174641 46.6841187,31.2449626 C46.6841187,31.1934475 46.6917289,31.1817259 46.7311471,31.1725943 C46.7447799,31.1574243 46.7280446,31.1316612 46.7265116,31.1111947 C46.6869091,31.1041462 46.651203,31.0008773 46.6793773,30.9748626 C46.6950723,30.9263593 46.6779173,30.8686763 46.6772786,30.816116 C46.6836296,30.797653 46.6898346,30.6857372 46.6911121,30.567402 C46.6931743,30.3731261 46.6898346,30.3495404 46.6570375,30.3243397 C46.628792,30.3026614 46.6190045,30.2691635 46.6131992,30.1743047 C46.6085819,30.0989043 46.6137467,30.0432896 46.6266129,30.028941 C46.6467372,30.0065541 46.6677959,29.8334237 46.6692924,29.6780644 C46.6413699,29.5620805 46.5926643,29.4716081 46.5619185,29.3699506 C46.5122822,29.3490678 46.505975,29.3004591 46.5349341,29.1620199 C46.5438036,29.1196345 46.5444058,29.0772492 46.5362116,29.067829 C46.5165472,29.0450555 46.4766563,28.8925859 46.4734845,28.8280708 C46.4720245,28.7998139 46.4602167,28.7689134 46.4470932,28.7594025 C46.4144019,28.6556138 46.4396107,28.5096692 46.4522397,28.4146772 C46.4291169,28.3820969 46.4250143,28.3540768 46.4354679,28.3001123 C46.4592002,28.1775091 46.4546432,28.077474 46.4216709,27.99748 C46.4042057,27.9550947 46.3908156,27.9050022 46.3919143,27.8861637 C46.2952933,27.6707275 46.3211079,27.5374072 46.2797699,27.3585122 C46.2920886,27.3378921 46.2999233,27.30748 46.2971804,27.2909336 C46.3336621,27.2589896 46.3734946,27.1954847 46.3811121,27.1859572 C46.3556333,27.1500487 46.3553796,27.1349471 46.3788856,27.0534084 C46.3934674,27.0027924 46.4055124,26.9361461 46.4056328,26.9052992 C46.4058044,26.861334 46.4158711,26.8457015 46.4522232,26.8329402 C46.4777258,26.8239862 46.498591,26.8095895 46.498591,26.8009444 C46.498591,26.7755014 46.4492467,26.7654725 46.4266623,26.7863294 C46.3921004,26.8182419 46.3582649,26.7739899 46.3808128,26.7263728 C46.3942083,26.527927 46.4375338,26.4105241 46.4244887,26.1910938 C46.4063482,26.1168311 46.4128635,26.096544 46.454864,26.096544 C46.5193577,26.096544 46.4613793,26.0530246 46.3858224,26.0447236 C46.285619,26.0337161 46.2574738,26.0186941 46.2574738,25.9762348 C46.2574738,25.946731 46.2908604,25.8628871 46.3339286,25.7842344 C46.3428893,25.7678804 46.3502623,25.7331984 46.3503353,25.7071689 C46.4120659,25.6380992 46.3507003,25.53439 46.3508828,25.5142731 C46.3297566,25.5142731 46.3132057,25.5029881 46.3132057,25.488584 C46.3634023,25.472082 46.4074122,25.4213939 46.443038,25.395986 C46.443038,25.3706225 46.433183,25.3407764 46.4211563,25.3296635 C46.4048043,25.314549 46.4045123,25.2996454 46.4200613,25.27058 C46.4378733,25.2371598 46.4526211,25.1704969 46.4646296,25.0690077 C46.4662721,25.0548737 46.4809268,25.0342351 46.4971146,25.0231351 C46.4822043,24.9607994 46.5310705,24.7618485 46.5530654,24.6098026 C46.5359469,24.5396987 46.5539779,24.4989691 46.619948,24.4590794 C46.6450911,24.4438724 46.6656643,24.4226751 46.6656643,24.4119839 C46.6656625,24.381729 46.5508937,24.3045674 46.4892726,24.2933934 C46.4587732,24.2878619 46.3962596,24.2754854 46.3503554,24.2659042 C46.1509486,24.2174527 45.9692169,24.3159745 45.9230882,24.4982975 C45.8880829,24.6539843 45.7778182,24.7797898 45.7451854,24.7012721 C45.7394184,24.6873971 45.7488171,24.6276736 45.766067,24.5685476 C45.8340428,24.335566 45.8387915,24.2339917 45.78074,24.2545582 C45.765921,24.2598122 45.7294375,24.2641042 45.6996699,24.2641042 C45.6425237,24.3032002 45.5927413,24.3949695 45.543532,24.4696114 C45.5282385,24.4813404 45.5157117,24.5167827 45.5157117,24.5483789 C45.5157117,24.6214594 45.4416149,24.6764729 45.3931776,24.6393563 C45.3605374,24.5474946 45.4167639,24.3949547 45.4322472,24.3387998 C45.4027314,24.2900911 45.3460871,24.2848353 45.2997394,24.2558051 C45.1280927,24.1931493 45.165976,24.2685886 45.1643171,24.4959869 C45.1331589,24.55944 45.1076636,24.639508 45.1076636,24.6739199 C45.1076636,24.7286447 45.0996519,24.7398372 45.0437448,24.7632379 C44.9656695,24.7959107 44.94049,24.7786669 44.9413404,24.6931007 C44.9418879,24.6350551 44.9962163,24.464054 45.0214743,24.4407329 C45.0476284,24.416583 45.0310921,24.3840878 44.9875257,24.3739905 C44.9145695,24.3570815 44.8169612,24.4523176 44.8016075,24.5553885 C44.7868432,24.6545559 44.7308705,24.7436223 44.6833274,24.7436223 C44.633545,24.7436223 44.6219873,24.7018863 44.6511672,24.6275145 C44.6896638,24.5294053 44.7197763,24.3614956 44.7018438,24.3449381 C44.5842062,24.3533186 44.4927645,24.4580082 44.4121306,24.5209896 C44.3604739,24.5209896 44.3519457,24.4895729 44.3888107,24.4350701 C44.4179341,24.3920113 44.391895,24.3492134 44.3238352,24.3282659 C44.2648549,24.3101174 44.1856663,24.3515629 44.1599338,24.4140559 C44.139085,24.4646904 44.1049995,24.4568908 44.0717516,24.3938798 C44.0534943,24.3592811 44.0522351,24.3412362 44.0671161,24.3274981 C44.0783581,24.3171196 44.0875507,24.3003031 44.0875507,24.2901226 C44.0875507,24.269841 43.9859748,24.2244291 43.9349387,24.2218946 C43.9173092,24.2209696 43.8916114,24.2060586 43.877829,24.1886575 C43.8562356,24.1613922 43.8465576,24.159988 43.8078676,24.1785195 C43.735614,24.2131071 43.6980519,24.2498832 43.6980519,24.2860359 C43.6980519,24.3140967 43.6890364,24.3181075 43.6444881,24.3098806 C43.5757915,24.3447475 43.518105,24.3240331 43.4539855,24.3312277 C43.3979543,24.2819419 43.3356105,24.2440576 43.2790775,24.1996187 C43.2180367,24.1823212 43.2010314,24.1841342 43.1498328,24.2133457 C43.0547886,24.2675822 43.0428805,24.2597789 43.0573655,24.152736 C43.067987,24.0742109 43.0650488,24.0566896 43.0397725,24.04773 C43.0204914,24.0409035 42.9993269,24.050283 42.9817357,24.0734802 C42.966497,24.0935564 42.9349464,24.1099844 42.9116028,24.1099844 C42.8674652,24.1099844 42.8220354,24.1475283 42.8014184,24.2010414 C42.7929504,24.2230175 42.7744194,24.2305618 42.7383209,24.2267286 C42.6927798,24.2219001 42.6878432,24.2152401 42.6930335,24.1656416 L42.6988552,24.1099844 L42.5492892,24.1099844 C42.4362907,24.1099844 42.3997213,24.1156269 42.3997213,24.1330428 C42.3997213,24.1764604 42.3423543,24.2623115 42.3062777,24.2728843 C42.2513452,24.2889793 42.234192,24.2694248 42.245715,24.2038608 C42.2542925,24.1550633 42.250387,24.1442353 42.2241709,24.1442353 C42.0965651,24.0730343 42.0322521,24.1318403 41.9292637,24.1668053 C41.9157769,24.2164149 41.8447169,24.2470416 41.7316308,24.251983 C41.6656151,24.254869 41.6485842,24.249541 41.6429705,24.224307 C41.6391562,24.2071205 41.6491937,24.1796128 41.6653139,24.1631737 C41.6929517,24.1349779 41.6891065,24.1340103 41.5973874,24.1460797 C41.5439149,24.1531097 41.4555649,24.1594367 41.4010539,24.1601212 C41.3197976,24.1612312 41.3002756,24.1672622 41.2926891,24.1940391 C41.2736452,24.2612829 41.157035,24.2482349 41.157035,24.1788691 C41.157035,24.1528322 41.1267765,24.1476041 40.9112787,24.1364042 C40.5685984,24.1185887 40.5434335,24.1188292 40.5292697,24.1399932 C40.508076,24.1716578 40.3896973,24.1396232 40.3690018,24.0966588 C40.3454228,24.0476801 40.2736492,24.0458338 40.2571677,24.0937728 C40.2475682,24.1217023 40.2397389,24.1248269 40.2190416,24.1089613 C40.1986855,24.0933658 40.1904949,24.0950308 40.1815214,24.1166203 C40.1654432,24.1553205 40.1369184,24.1510784 40.1369184,24.1099788 C40.1369184,24.0636937 40.1067767,24.0664483 40.093321,24.1139563 C40.0867327,24.1372404 40.0763302,24.1456117 40.0667472,24.1353627 C40.0516362,24.1191937 40.0028338,24.0140878 39.9814193,23.9515578 C39.97578,23.9350743 39.9591561,23.9215878 39.9444904,23.9215878 C39.9261656,23.9215878 39.9141991,23.9496985 39.9062238,24.0114978 C39.8998363,24.0609464 39.8855703,24.1496724 39.8745144,24.2086652 C39.8553556,24.3108999 39.8569032,24.3205292 39.9075652,24.4141725 C39.936798,24.4682091 39.9672682,24.5168956 39.9752745,24.5223642 C39.9917725,24.6624961 40.0365379,24.7890528 40.0903499,24.9189487 C40.1071399,24.9729964 40.1349164,25.0245707 40.1520805,25.033558 C40.1808498,25.048617 40.1805304,25.0517805 40.1479925,25.0739768 C40.1528105,25.1300559 40.157519,25.1685988 40.164746,25.2402585 C40.1494343,25.2519875 40.1369239,25.2726557 40.1369239,25.2861977 C40.1369239,25.322861 40.253233,25.4800167 40.2803707,25.4800167 C40.2932917,25.4800167 40.3038512,25.4943727 40.3038512,25.5119125 C40.4412919,25.6605526 40.4896033,25.792478 40.5424827,25.9717004 C40.5381757,26.0963553 40.5621361,26.1591924 40.6457886,26.2425349 C40.6931328,26.3019902 40.7186153,26.3754407 40.7524727,26.4432136 C40.772252,26.4690526 40.7843974,26.4962235 40.7794644,26.5035958 C40.7629847,26.5282211 40.8437081,26.7208561 40.8960545,26.7818099 C40.9795793,26.8790662 41.0069434,26.9928856 40.9586502,27.0421604 C40.9267729,27.0746852 40.9359618,27.1958898 40.9711332,27.2067123 C41.0360028,27.3537929 41.1428383,27.4815853 41.23453,27.609054 C41.2842083,27.6371333 41.4028771,27.8053279 41.3883373,27.8270488 C41.3817856,27.8368353 41.3896148,27.8635104 41.4058391,27.8863135 C41.4294528,27.9445423 41.450099,28.0031725 41.4724224,28.0621135 C41.5194472,28.1333255 41.5194234,28.1798179 41.4723549,28.2069611 C41.4300641,28.2313459 41.4217111,28.3057381 41.4612589,28.3057381 C41.489008,28.3057381 41.5280484,28.3900093 41.5278987,28.4495793 C41.5277162,28.5389491 41.5954456,28.6561337 41.7082069,28.7613395 C41.8280364,28.8731405 41.8363146,28.8894002 41.8487794,29.0374372 C41.8995892,29.1427059 41.9109954,29.2561941 41.936894,29.3570395 C41.8924352,29.5372905 41.8922034,29.531402 41.9452708,29.5699504 C41.9795643,29.5948551 41.9981556,29.6276279 42.0050943,29.6753912 C42.0137083,29.734717 42.0081238,29.7507102 41.9663221,29.7864874 C41.9282946,29.8190289 41.9174194,29.8445774 41.9172004,29.901883 C41.9168354,29.9990413 41.8732325,30.1124352 41.8361485,30.1126794 C41.8201798,30.112783 41.7929344,30.1259624 41.7756133,30.1419501 C41.747824,30.1676077 41.7469699,30.1790111 41.7683315,30.2388031 C41.762455,30.3429914 41.8153508,30.4137114 41.8432825,30.5053345 C41.8432825,30.5386067 41.831566,30.5508537 41.7922755,30.5586145 C41.7642235,30.564146 41.7120577,30.578317 41.6763534,30.590083 C41.6150461,30.6102905 41.6118268,30.6152226 41.6184443,30.6788071 C41.6156703,30.8402973 41.533788,30.8838223 41.4460712,31.0058242 C41.4488087,31.0702153 41.4607625,31.1598108 41.4726268,31.2049249 C41.4966985,31.2964629 41.4746708,31.3453954 41.4169825,31.3284938 C41.3748141,31.3161358 41.2868546,31.3819329 41.2868546,31.4258371 C41.2098414,31.4802345 41.169518,31.569127 41.1197083,31.6452286 C41.1110578,31.6452286 41.111076,31.6680872 41.1197466,31.6960241 C41.1346021,31.7438558 41.1445447,31.8329555 41.1403527,31.8807059 C41.0880902,31.9007488 41.0328711,31.9351421 40.9792782,31.9622853 C40.9157244,32.0176299 40.9119576,32.0260622 40.9323465,32.0673783 C40.946034,32.0951061 40.949757,32.14153 40.9421102,32.1886791 C40.931799,32.2521433 40.9209475,32.2678794 40.8779232,32.2817267 C40.8142453,32.3022247 40.8010888,32.3279397 40.7874853,32.4584738 C40.7769368,32.5596799 40.7759513,32.5611488 40.7118847,32.5718344 C40.6050327,32.5896499 40.5078606,32.6360239 40.5078606,32.6691833 C40.5078606,32.6857963 40.4937716,32.717977 40.4765345,32.7406913 C40.4469658,32.779669 40.4420274,32.8937733 40.4587225,33.1522812 C40.3322646,33.2701854 40.3066982,33.422544 40.2761531,33.5810131 C40.2938921,33.6427846 40.2078416,33.6494576 40.1679069,33.6894694 C40.1244372,33.6995334 40.0814183,33.7625851 40.0810807,33.816705 C40.0809822,33.8327445 40.0603469,33.8866294 40.0352276,33.9364518 C40.0001675,34.0059877 39.9743511,34.0329034 39.9241216,34.0522803 C39.8681908,34.1078617 39.8011951,34.1054049 39.731721,34.1354933 C39.6653056,34.1681106 39.4061446,34.2483192 39.3671626,34.2483192 C39.330064,34.2838263 39.2839572,34.3066183 39.2401317,34.3373264 C39.1833267,34.5466909 39.1139968,34.4116261 39.0460685,34.4593931 C38.9731159,34.4848343 38.8887443,34.4343719 38.8157206,34.4074118 C38.7659729,34.338318 38.7620966,34.4464709 38.7461224,34.4581074 C38.7294237,34.4932944 38.6647712,34.4698364 38.6146531,34.4770699 C38.4372631,34.431941 38.4733178,34.5684599 38.3909008,34.6107194 C38.3986753,34.6621013 38.3548625,34.6636609 38.2999774,34.6139569 C38.2703358,34.5871134 38.2458534,34.5507184 38.2455687,34.5330823 C38.2452037,34.5064294 38.2403127,34.5046404 38.217033,34.5224818 C38.2013563,34.5344883 38.1421149,34.5435441 38.0825615,34.5430187 C38.008337,34.5422787 37.9657816,34.5506962 37.9419818,34.5705115 C37.9101428,34.5970257 37.9062647,34.5969388 37.8842935,34.5692165 C37.8646328,34.5443914 37.8299067,34.5394741 37.6742178,34.5394741 C37.5883315,34.5371801 37.5013684,34.5547181 37.4316351,34.5608804 C37.3739013,34.5294064 37.1709978,34.5325736 37.1574544,34.5651539 C37.1398432,34.607506 37.063529,34.5944098 36.9699521,34.5329769 C36.8689803,34.4666877 36.8088046,34.4457346 36.775325,34.4652058 C36.7426155,34.4842275 36.5346549,34.4715698 36.5044713,34.4487038 C36.4853982,34.4342738 36.4716432,34.4394908 36.4459599,34.4709297 C36.4131811,34.5110525 36.4063921,34.5119627 36.1602215,34.5091711 C36.0215325,34.5075061 35.9080613,34.5119461 35.9080613,34.5188466 C35.7955555,34.5835207 35.6587827,34.6117943 35.5327245,34.6434607 C35.4127873,34.6427207 35.3152228,34.6538947 35.1944899,34.6704023 C35.0345761,34.7495786 35.005263,34.7550601 34.8234273,34.6859053 C34.6799987,34.7058168 34.5506135,34.6783573 34.4063034,34.6593448 C34.2975845,34.6078094 34.1284673,34.6676698 34.0774822,34.6758653 C33.7949376,34.5419401 33.5283142,34.6432332 33.285675,34.7291897 C33.2436708,34.7948462 33.185143,34.824881 33.1700357,34.7885322 C33.0977,34.700881 33.0997111,34.8520131 33.0712502,34.8777022 C33.0578365,34.9412811 33.0437128,34.9984554 33.0398621,35.0047565 C33.0327263,35.0164485 32.9219032,34.9716692 32.9219032,34.9571023 C32.9219032,34.9526993 32.9377259,34.9282183 32.9570819,34.9026975 C32.9764287,34.8771768 32.9970877,34.8312487 33.0029861,34.8006367 C33.0130236,34.748537 33.0103409,34.7449795 32.9608049,34.7449795 C32.8147903,34.7999911 32.665706,34.8493602 32.5113402,34.8883267 C32.4470637,34.9020722 32.410029,34.8646134 32.4388038,34.8149687 C32.5997943,34.7128487 32.7910598,34.6268403 32.9691652,34.5220748 C33.032938,34.5026424 33.0698614,34.4434036 33.0431124,34.4034399 C33.0256289,34.3773327 32.9534757,34.3811973 32.9115354,34.4104884 C32.660012,34.4408043 32.5293293,34.4480008 32.2932491,34.6366435 C32.2139291,34.64532 32.198548,34.6425265 32.198548,34.6194385 C32.198548,34.604287 32.2224665,34.5755491 32.2517011,34.5555931 C32.3321727,34.4514862 32.420729,34.373592 32.5223012,34.2911541 C32.6745993,34.1888843 32.7756313,34.0400407 32.9033557,33.9068388 C32.9033557,33.8682867 32.874205,33.8458517 32.8571741,33.8712985 C32.8507683,33.8808815 32.8303612,33.888707 32.8118301,33.888707 C32.6665163,33.9096804 32.560128,33.9677445 32.4410996,34.0475794 C32.4104907,34.0582539 32.3701747,34.0939349 32.3484937,34.1295548 C32.3049711,34.2010536 32.2099889,34.2336746 32.1728046,34.1898925 C32.2308742,34.0788537 32.2970305,33.985573 32.3689592,33.8801452 C32.4898563,33.7290057 32.5919651,33.5625094 32.7048432,33.4099307 C32.9186802,33.2315 33.0576741,33.0124415 33.2469266,32.825068 C33.2559786,32.7869783 33.2740972,32.7718472 33.3286957,32.7567419 C33.3844823,32.7413129 33.4069079,32.7219841 33.438338,32.6622513 C33.4690765,32.6038302 33.4879616,32.5871617 33.5234049,32.5871617 C33.6196463,32.5478584 33.705352,32.4687006 33.7936382,32.4068496 C33.8395424,32.3737827 33.920921,32.3270461 33.9744774,32.3029961 C34.0583891,32.23176 34.1412769,32.1920942 34.2406792,32.142899 C34.2793929,32.1230189 34.4857055,32.0782322 34.5874365,32.0676225 C34.6370601,32.0624425 34.7035777,32.0364296 34.7636384,31.9987044 C34.8254512,31.95838 34.8987979,31.9324726 34.9621346,31.901437 C34.9621346,31.8782824 35.077626,31.8501069 35.2032536,31.8426125 C35.3859543,31.820703 35.5742304,31.8275535 35.7063148,31.8325115 C35.8383627,31.8402445 35.9513995,31.8134306 36.0899481,31.8079472 L36.3253804,31.8079472 C36.4613976,31.5900246 36.4802699,31.3845063 36.4170757,31.1486128 C36.4005777,31.1486128 36.3719416,31.1146505 36.3502551,31.0693828 C36.3103989,30.9861902 36.1572267,30.7592451 36.0916471,30.6862219 C36.0466189,30.6103571 35.9614115,30.600776 35.889001,30.5685046 C35.7385845,30.4906436 35.612059,30.3896281 35.486103,30.2741733 C35.3841804,30.2194706 35.4991335,30.2005303 35.5000095,30.1955742 C35.6421606,30.2099302 35.4071681,30.1115712 35.3666586,30.0931064 C35.1885696,29.8800067 34.9878689,29.7543307 34.8415696,29.530847 C34.8224965,29.4092428 34.7111076,29.3601771 34.6223086,29.2927834 C34.5727088,29.2812949 34.4797871,29.2073893 34.4476744,29.1538965 C34.3073027,29.074785 34.1829216,28.9724763 34.0610755,28.8777914 C34.0076523,28.8130507 33.917771,28.819324 33.848171,28.8007574 C33.7956986,28.7773161 33.7485917,28.735519 33.7046019,28.7066997 C33.7015359,28.6886992 33.6823132,28.6310532 33.6618713,28.5786076 C33.6158576,28.4455593 33.5083158,28.4439165 33.3976862,28.4013239 C33.3613614,28.4141999 33.3113965,28.3627921 33.3113965,28.3125554 C33.2978915,28.2378894 33.2709618,28.1651973 33.2478902,28.0927384 C33.2346042,28.0272521 33.1278727,27.9118805 33.0805632,27.9118731 L32.9493804,27.6978059 L32.8217618,27.6978059 C32.6513743,27.6711826 32.6120018,27.5895365 32.5318405,27.449486 C32.5148497,27.4259373 32.4813829,27.3786328 32.4574608,27.3443671 C32.3523645,27.2729127 32.2414976,27.2190074 32.13266,27.123849 C32.0854272,27.111639 32.0443556,27.0932148 32.0413863,27.0829048 C32.0086695,26.9693037 31.9822855,26.9149451 31.9455337,26.8854413 C31.9214692,26.8661218 31.9017811,26.8431559 31.9017811,26.8344054 C31.9017811,26.8032014 31.7744618,26.7774272 31.7149449,26.796584 C31.5405808,26.8366439 31.5921096,26.7269185 31.5203798,26.6538916 C31.4968209,26.5630048 31.4905539,26.3855343 31.4877215,26.3330831 C31.4424067,26.3230561 31.3973256,26.3147496 31.3515801,26.3054737 C31.2993924,26.3105982 31.2989946,26.3098952 31.3001845,26.2164425 C31.3009145,26.1646369 31.3050207,26.0952786 31.3094555,26.0623116 C31.288207,25.9784067 31.1715329,25.9445202 31.0953903,25.8834499 C31.0129952,25.8720354 30.9769879,25.8508103 31.0090276,25.8325268 C31.0182621,25.8272543 31.0103051,25.7789156 30.9914346,25.7243073 C30.9405554,25.4887635 30.7489195,25.420097 30.5617238,25.3121902 C30.5515038,25.3371097 30.5211741,25.3578667 30.5010005,25.3805921 C30.3692483,25.5195031 30.24851,25.6567065 30.0934926,25.7637271 C30.0115136,25.7779351 29.9728401,25.8435158 29.9728401,25.9683482 L29.9728401,26.0467383 C29.9030758,25.9832056 29.8528153,26.0825857 29.825933,26.0906147 C29.808121,26.1926737 29.7601783,26.2824135 29.7156465,26.3756257 C29.7015392,26.4338119 29.6821103,26.4733261 29.6675942,26.4733261 C29.6541805,26.4733261 29.6200876,26.4844076 29.5918111,26.4979551 C29.5310203,26.527076 29.492449,26.6109753 29.4729671,26.7564538 C29.453049,26.9051975 29.4340471,26.9307571 29.3479619,26.9246021 C29.2493918,26.9175536 29.2296088,26.9348511 29.2185694,27.0377111 C29.1646461,27.2734751 28.9742895,27.4570358 28.826136,27.6094111 C28.8289647,27.6669387 28.8644409,27.7138288 28.8840067,27.7671643 C28.887529,27.8114459 28.8809407,27.8163669 28.795069,27.8335275 C28.7310097,27.865551 28.6466929,27.9211139 28.5825405,27.977994 C28.5138128,28.0206143 28.5027989,28.0361136 28.4978678,28.0971432 C28.4902758,28.1911399 28.484308,28.1972097 28.3860956,28.2108072 C28.2864488,28.1930472 28.3213903,28.2869144 28.279554,28.3361207 C28.2492535,28.367036 28.2405154,28.3679074 28.1737058,28.3466472 C28.0383966,28.3036032 28.0145603,28.3507542 28.0801508,28.5317138 C28.0995925,28.5853471 28.1212005,28.6643384 28.1281702,28.707251 C28.1426425,28.7964081 28.13005,28.802452 28.0189768,28.7596023 C27.9562242,28.7353914 27.9512985,28.7358983 27.9323915,28.7685193 C27.9162585,28.8040541 27.9253835,28.8409357 27.9216605,28.8795323 C27.9105463,28.9204173 27.9026823,28.9235734 27.8237182,28.9188522 C27.6651111,28.9016472 27.6587455,28.9668356 27.5314682,29.073181 C27.518602,29.0798225 27.4747217,29.1329286 27.4339402,29.1911888 C27.3513206,29.309217 27.3003648,29.3300073 27.1426136,29.3100421 C27.0576854,29.2552099 27.087484,29.4647372 27.0872285,29.5376864 C27.0686446,29.608941 27.0524769,29.6690346 27.0512979,29.671225 C27.0502029,29.673408 27.0240489,29.666452 26.993367,29.655759 C26.8088595,29.657239 26.7202411,29.7846781 26.5996944,29.908469 C26.6016289,29.9728046 26.5414769,30.1768318 26.5152881,30.194812 C26.4222715,30.203914 26.3250501,30.2031925 26.2315609,30.2036735 C26.2204284,30.2100375 26.2058758,30.2537826 26.1992164,30.300878 C26.179156,30.4427915 26.1718633,30.4617374 26.1291674,30.4828329 C26.0167602,30.4660719 25.9963311,30.5520877 25.9280688,30.5924732 C25.8900559,30.6714164 25.8755234,30.6858834 25.8340813,30.6860295 C25.7823919,30.6862145 25.7625432,30.7127824 25.7625432,30.7817948 C25.7556812,30.8222968 25.7161991,30.8336244 25.6893096,30.8636961 C25.6743263,30.9000634 25.6574159,30.9054118 25.5230612,30.9162324 C25.4403577,30.9228924 25.367166,30.9374945 25.3593532,30.9488868 C25.2758157,30.9587473 25.2759635,31.0474696 25.243212,31.0861901 C25.243212,31.1736951 25.239854,31.1769067 25.0623728,31.2590245 C24.9884147,31.2932439 24.9279031,31.3313114 24.9279031,31.3436157 C24.9134674,31.3927887 24.870777,31.4268176 24.8423307,31.4682502 C24.8252487,31.4942427 24.8006915,31.4990638 24.7001541,31.4961704 C24.5672667,31.4923409 24.5345828,31.5094904 24.5428227,31.5787322 C24.4729051,31.7713838 24.3816204,31.7601784 24.2560002,31.821023 C24.1943754,31.813068 24.1848872,31.8169715 24.1683582,31.8571073 C24.1581565,31.881864 24.137096,31.9021196 24.1215415,31.9021196 C24.0875545,31.9426716 24.0887225,32.0340265 24.078831,32.0935521 C24.0664758,32.1049666 24.0149323,32.1151675 23.9642977,32.1162275 C23.8606687,32.1025005 23.8212012,32.1840226 23.7588118,32.2275069 C23.6976779,32.2275069 23.6060775,32.2708228 23.5414068,32.3303077 C23.491035,32.3766446 23.4815468,32.3975774 23.4839814,32.4569975 C23.5024504,32.5610064 23.416356,32.5977881 23.3699079,32.6648117 C23.3699079,32.7020134 23.2837004,32.6959269 23.2400738,32.6556542 C23.1920106,32.6112746 23.1473364,32.6116853 23.1473364,32.6565792 C23.1275826,32.7441675 23.1071517,32.8371318 23.0649577,32.8954864 C23.0399917,33.0311173 22.9610203,33.077025 22.8860585,33.1682855 C22.8022636,33.2453066 22.752275,33.2722481 22.6931742,33.2722481 C22.5663823,33.3143319 22.4771252,33.4219242 22.39006,33.5087891 C22.3006915,33.60668 22.208018,33.7240792 22.1272198,33.819258 C22.1272198,33.8650381 22.1110686,33.8705825 22.0217257,33.8554976 C21.918511,33.8380706 21.8984725,33.8531481 21.900011,33.94713 C21.901106,34.013532 21.895777,34.0257753 21.865878,34.0257753 C21.8202694,33.9953021 21.7668644,34.0036993 21.7122604,33.9915244 L21.5940625,33.9915244 L21.5849557,34.0728708 C21.5731662,34.1781228 21.4674385,34.3362645 21.4131448,34.3298543 C21.3955518,34.2583795 21.3493537,34.1968504 21.3277238,34.1265226 C21.2618851,34.2386918 21.19628,34.372926 21.1442055,34.4733532 C21.0445659,34.528202 21.0675299,34.623675 21.0528423,34.7247793 C21.0515648,34.7950664 21.0489551,34.7984352 21.0004612,34.793283 C20.9433113,34.7742927 20.9268644,34.6566494 20.909901,34.6113984 C20.8666357,34.6057004 20.776718,34.6933164 20.7274521,34.7891797 C20.7002833,34.8420434 20.6980952,34.8428056 20.6251864,34.8248384 C20.5629795,34.799573 20.5276566,34.76552 20.4788068,34.735809 C20.410008,34.8211736 20.3864874,34.9711401 20.3466604,35.08409 C20.3466604,35.1289081 20.2936332,35.1464332 20.2551987,35.1143153 C20.1996804,35.0679247 20.0950002,35.0356422 20.0712369,35.0575832 C20.0527496,35.0905243 20.0265353,35.1159211 20.0035294,35.1459448 C19.9536795,35.1919728 19.9455309,35.2454674 19.9768022,35.3214154 C19.9931177,35.3610202 19.9907452,35.3729731 19.9628957,35.3918468 C19.9335479,35.4117306 19.9242331,35.4086818 19.8885708,35.3674971 C19.7649197,35.2183982 19.8328754,35.1928423 19.6675469,35.3230379 C19.6728576,35.3395214 19.6829864,35.375391 19.6900747,35.402747 C19.7023934,35.4503438 19.7006414,35.4520569 19.6492239,35.4424813 C19.619668,35.4369683 19.5821551,35.4276998 19.5658597,35.4218797 C19.5270857,35.4080232 19.3784614,35.5214874 19.3563606,35.5818233 C19.3472539,35.6066799 19.3239705,35.6479034 19.3046182,35.6734297 C19.2744127,35.7132732 19.2628038,35.7175152 19.2225918,35.7033997 C19.1243922,35.6689268 19.0827238,35.6930027 19.0683355,35.7925364 L19.0576045,35.8667751 L18.8350348,35.8667751 C18.6183489,35.8667751 18.6106237,35.8680701 18.542668,35.9160776 C18.4730971,35.9652173 18.4583822,35.9919942 18.4474103,36.0894078 C18.3858256,36.1487613 18.2353909,36.2210353 18.1760182,36.2551567 C18.1754707,36.3173019 18.1401241,36.3490442 18.0282187,36.3882198 C17.9493203,36.4909928 17.8537305,36.5014213 17.7660903,36.5603623 C17.6957019,36.5669298 17.5994623,36.6648207 17.5706,36.6908631 C17.4219136,36.5992733 17.2111534,36.6030455 17.0878345,36.5998505 L16.386759,36.5860495 C16.2874552,36.5674533 16.1883924,36.600202 16.0964964,36.6122233 C15.8700704,36.6672331 15.6558355,36.6384323 15.4232009,36.6973659 C15.2601153,36.5525294 15.1342815,36.5824106 14.9327687,36.6245813 C14.8758469,36.7265274 14.8251448,36.7678305 14.7720318,36.7555225 C14.6461324,36.7953086 14.5425527,36.771044 14.4501785,36.7841919 C14.3445803,36.7029307 14.2926299,36.8023034 14.2074206,36.8780461 C14.1393773,36.9329967 14.0168304,36.9430829 13.9270422,36.9556721 C13.8653481,36.9962334 13.7434746,37.0123913 13.669542,36.9898065 L13.669511,36.9897787 Z" id="path2180" sketch:type="MSShapeGroup"></path>
            </g>
        </g>
    </g>
</svg>