<?xml version="1.0" encoding="UTF-8" standalone="no"?>
<svg width="81px" height="82px" viewBox="0 0 81 82" version="1.1" xmlns="http://www.w3.org/2000/svg" xmlns:xlink="http://www.w3.org/1999/xlink" xmlns:sketch="http://www.bohemiancoding.com/sketch/ns">
    <!-- Generator: Sketch 3.4.4 (17249) - http://www.bohemiancoding.com/sketch -->
    <title>calendar</title>
    <desc>Created with Sketch.</desc>
    <defs></defs>
    <g id="Page-1" stroke="none" stroke-width="1" fill="none" fill-rule="evenodd" sketch:type="MSPage">
        <g id="Desktop" sketch:type="MSArtboardGroup" transform="translate(-817.000000, -718.000000)" fill="#204B76">
            <g id="calendar" sketch:type="MSLayerGroup" transform="translate(817.000000, 717.000000)">
                <path d="M0.008,28.977 C-0.00494903625,28.5163982 0.23338175,28.0851331 0.630256272,27.8510128 C1.02713079,27.6168925 1.51986921,27.6168925 1.91674373,27.8510128 C2.31361825,28.0851331 2.55194904,28.5163982 2.539,28.977 L2.539,75.131 C2.540416,76.5372806 3.09712512,77.8861052 4.088,78.884 C5.06940751,79.8817632 6.40947036,80.4450146 7.809,80.448 L73.193,80.448 C74.5928088,80.4449469 75.9331573,79.8817268 76.915,78.884 C77.9070755,77.8869037 78.4639983,76.5375613 78.464,75.131 L78.464,28.977 C78.4639998,28.5250589 78.7051075,28.1074481 79.0964999,27.8814775 C79.4878923,27.6555069 79.9701077,27.6555069 80.3615001,27.8814775 C80.7528925,28.1074481 80.9940002,28.5250589 80.994,28.977 L80.994,75.131 C80.994964,77.2129667 80.1720591,79.2107309 78.705,80.688 C77.2505995,82.164507 75.2655215,82.9971449 73.193,83 L7.809,83 C5.73669,82.9975481 3.75177346,82.1648268 2.298,80.688 C0.830574398,79.2108937 0.00730181413,77.2131096 0.008,75.131 L0.008,28.977 L0.008,28.977 Z M24.524,33.55 L12.344,33.55 L12.344,47.479 L24.524,47.479 L24.524,33.55 L24.524,33.55 L24.524,33.55 Z M11.079,31 L25.789,31 C26.4904952,31.0038555 27.0566638,31.5744962 27.055,32.276 L27.055,48.757 C27.0572145,49.4587298 26.4907255,50.0296934 25.789,50.033 L11.079,50.033 C10.3775048,50.0291445 9.81133621,49.4585038 9.813,48.757 L9.813,32.274 C9.81189008,31.5730501 10.378057,31.0033055 11.079,31 L11.079,31 Z M68.658,33.552 L56.479,33.552 L56.479,47.481 L68.658,47.481 L68.658,33.55 L68.658,33.55 L68.658,33.552 Z M55.211,31 L69.924,31 C70.6253343,31.0038561 71.1912161,31.5746586 71.189,32.276 L71.189,48.757 C71.1912161,49.4583414 70.6253343,50.0291439 69.924,50.033 L55.213,50.033 C54.5111819,50.029147 53.944439,49.4588285 53.945,48.757 L53.945,32.274 C53.9449862,31.5735016 54.5105154,31.0043987 55.211,31 L55.211,31 Z M46.589,33.552 L34.409,33.552 L34.409,47.481 L46.589,47.481 L46.589,33.55 L46.589,33.55 L46.589,33.552 Z M33.143,31 L47.857,31 C48.558104,31.0044041 49.1236661,31.5748841 49.122,32.276 L49.122,48.757 C49.1242161,49.4583414 48.5583343,50.0291439 47.857,50.033 L33.143,50.033 C32.4416657,50.0291439 31.8757839,49.4583414 31.878,48.757 L31.878,32.274 C31.8779825,31.573889 32.4429065,31.0049458 33.143,31 L33.143,31 Z M24.524,56.631 L12.344,56.631 L12.344,70.56 L24.524,70.56 L24.524,56.629 L24.524,56.629 L24.524,56.631 Z M11.079,54.076 L25.789,54.076 C26.4906563,54.0804041 27.0566661,54.6513319 27.055,55.353 L27.055,71.836 C27.0572145,72.5377298 26.4907255,73.1086934 25.789,73.112 L11.079,73.112 C10.3775048,73.1081445 9.81133621,72.5375038 9.813,71.836 L9.813,55.353 C9.80967749,54.6503268 10.3763296,54.0778561 11.079,54.074 L11.079,54.076 Z M68.658,56.631 L56.479,56.631 L56.479,70.56 L68.658,70.56 L68.658,56.629 L68.658,56.629 L68.658,56.631 Z M55.211,54.076 L69.924,54.076 C70.6254953,54.080405 71.1912181,54.6514943 71.189,55.353 L71.189,71.836 C71.1912161,72.5373414 70.6253343,73.1081439 69.924,73.112 L55.213,73.112 C54.5111819,73.108147 53.944439,72.5378285 53.945,71.836 L53.945,55.353 C53.9427795,54.6507774 54.5087914,54.0789534 55.211,54.074 L55.211,54.076 Z M46.589,56.631 L34.409,56.631 L34.409,70.56 L46.589,70.56 L46.589,56.629 L46.589,56.629 L46.589,56.631 Z M33.143,54.076 L47.857,54.076 C48.5582651,54.0809521 49.1236689,54.6517194 49.122,55.353 L49.122,71.836 C49.1242161,72.5373414 48.5583343,73.1081439 47.857,73.112 L33.143,73.112 C32.4416657,73.1081439 31.8757839,72.5373414 31.878,71.836 L31.878,55.353 C31.8757766,54.6511647 32.4411828,54.0795011 33.143,54.074 L33.143,54.076 Z M60.749,16.044 C60.761949,16.5046018 60.5236183,16.9358669 60.1267437,17.1699872 C59.7298692,17.4041075 59.2371308,17.4041075 58.8402563,17.1699872 C58.4433817,16.9358669 58.205051,16.5046018 58.218,16.044 L58.218,2.276 C58.218,1.57791208 58.7839121,1.012 59.482,1.012 C60.1800879,1.012 60.746,1.57791208 60.746,2.276 L60.746,16.042 L60.746,16.042 L60.749,16.044 Z M22.785,16.044 C22.797949,16.5046018 22.5596183,16.9358669 22.1627437,17.1699872 C21.7658692,17.4041075 21.2731308,17.4041075 20.8762563,17.1699872 C20.4793817,16.9358669 20.241051,16.5046018 20.254,16.044 L20.254,2.276 C20.241051,1.8153982 20.4793817,1.38413311 20.8762563,1.15001283 C21.2731308,0.915892549 21.7658692,0.915892549 22.1627437,1.15001283 C22.5596183,1.38413311 22.797949,1.8153982 22.785,2.276 L22.785,16.042 L22.785,16.044 Z M16.517,7.39 C17.2217153,7.39 17.793,7.96128466 17.793,8.666 C17.793,9.37071534 17.2217153,9.942 16.517,9.942 L7.809,9.942 C6.41073097,9.94886201 5.07306268,10.5136633 4.093,11.511 L4.032,11.573 C3.07416808,12.5602564 2.53647796,13.8804648 2.532,15.256 L2.532,21.11 L78.457,21.11 L78.457,15.256 C78.4542109,13.8513655 77.89551,12.5049466 76.903,11.511 L76.842,11.447 C75.8656631,10.4879948 74.552546,9.94953785 73.184,9.947 L64.53,9.947 C63.8252847,9.947 63.254,9.37571534 63.254,8.671 C63.254,7.96628466 63.8252847,7.395 64.53,7.395 L73.184,7.395 C75.213958,7.40330622 77.1599279,8.20631947 78.605,9.632 L78.693,9.712 C80.1603056,11.1863265 80.9852572,13.1809479 80.988,15.261 L80.988,22.391 C80.9902161,23.0923414 80.4243343,23.6631439 79.723,23.667 L1.271,23.667 C0.933909032,23.6656765 0.611150474,23.530497 0.373728855,23.2912001 C0.136307237,23.0519031 0.00367130605,22.7280909 0.005,22.391 L0.005,15.261 C0.00980918125,13.2214518 0.805220922,11.2632119 2.224,9.798 L2.303,9.709 C3.75504665,8.23204053 5.73781274,7.39766548 7.809,7.392 L16.517,7.392 L16.517,7.392 L16.517,7.39 Z M54.481,7.39 L26.581,7.39 C25.8762847,7.39 25.305,7.96128466 25.305,8.666 C25.305,9.37071534 25.8762847,9.942 26.581,9.942 L54.481,9.942 C55.1862676,9.942 55.758,9.37026763 55.758,8.665 C55.758,7.95973237 55.1862676,7.388 54.481,7.388 L54.481,7.39 Z M59.044,41.016 C58.6369788,40.4489938 58.7455662,39.6625046 59.291,39.227 C59.5503435,39.0234781 59.881994,38.9356135 60.2080852,38.9840354 C60.5341765,39.0324573 60.8259855,39.2129006 61.015,39.483 L61.827,40.604 L64.435,37.004 C64.6253384,36.7347649 64.9174579,36.5550326 65.2435881,36.5065003 C65.5697182,36.4579679 65.9015139,36.5448535 66.162,36.747 C66.7073619,37.1811433 66.8164413,37.9666914 66.41,38.533 L62.827,43.48 L62.814,43.499 C62.745148,43.5963842 62.6618588,43.6827083 62.567,43.755 C62.3076565,43.9585219 61.976006,44.0463865 61.6499148,43.9979646 C61.3238235,43.9495427 61.0320145,43.7690994 60.843,43.499 L59.044,41.016 Z" id="Forma_1" sketch:type="MSShapeGroup"></path>
            </g>
        </g>
    </g>
</svg>