<svg xmlns="http://www.w3.org/2000/svg" width="29" height="24" viewBox="0 0 29 24">
  <defs>
    <style>
      .cls-1 {
        fill: #67b7eb;
        fill-rule: evenodd;
      }
    </style>
  </defs>
  <path id="twitter_copy" data-name="twitter copy" class="cls-1" d="M1118.03,5472.96a5.361,5.361,0,0,1,.04.8,18.284,18.284,0,0,1-1.5,7.03,16.418,16.418,0,0,1-15.44,10.21,16.844,16.844,0,0,1-9.12-2.71c0.45,0.03.93,0.07,1.38,0.07a11.751,11.751,0,0,0,7.4-2.6,6.01,6.01,0,0,1-5.56-4.2,5.477,5.477,0,0,0,1.13.11,5.4,5.4,0,0,0,1.58-.23,5.938,5.938,0,0,1-4.77-5.92v-0.08a6.024,6.024,0,0,0,2.7.77,6.057,6.057,0,0,1-2.66-5.05,6.149,6.149,0,0,1,.79-3.06,16.981,16.981,0,0,0,12.28,6.35,5.406,5.406,0,0,1-.15-1.38,6.008,6.008,0,0,1,5.97-6.07,5.885,5.885,0,0,1,4.32,1.91,12.127,12.127,0,0,0,3.79-1.46,6.06,6.06,0,0,1-2.63,3.33,10.706,10.706,0,0,0,3.42-.96A11.7,11.7,0,0,1,1118.03,5472.96Z" transform="translate(-1092 -5467)"/>
</svg>
