<svg width="177" height="245" xmlns="http://www.w3.org/2000/svg"><path d="M174.697 244.81H2.114c-1.164 0-2.108-.943-2.108-2.107V191.62c0-.792.446-1.517 1.152-1.877.707-.36 1.555-.293 2.196.173l5.632 4.094 5.637-4.094c.642-.465 1.49-.532 2.196-.173.705.36 1.15 1.086 1.15 1.878v13.956h8.51V191.62c0-.792.446-1.517 1.152-1.877.707-.36 1.556-.292 2.197.174l5.63 4.093 5.633-4.093c.642-.467 1.49-.533 2.197-.174.706.36 1.15 1.085 1.15 1.878v13.956h7.473v-31.334c0-1.163.944-2.107 2.108-2.107h1.055v-10.04c0-1.164.944-2.107 2.108-2.107 1.164 0 2.108.943 2.108 2.106v10.04h3.163V132.64c0-1.163.944-2.106 2.108-2.106h3.69V82.345c0-1.163.943-2.106 2.107-2.106h4.195L85.94 19.943c.188-.996 1.058-1.716 2.07-1.716 1.014 0 1.884.72 2.072 1.716L101.47 80.24h4.195c1.164 0 2.107.942 2.107 2.106v48.186h3.69c1.163 0 2.107.943 2.107 2.107v39.496h2.898v-10.04c0-1.165.943-2.108 2.107-2.108 1.164 0 2.108.943 2.108 2.107v10.04h1.054c1.164 0 2.108.944 2.108 2.108v31.334h8.526V191.62c0-.79.446-1.516 1.152-1.876.708-.36 1.555-.293 2.197.173l5.63 4.094 5.633-4.093c.642-.466 1.49-.533 2.197-.173.706.36 1.15 1.085 1.15 1.877v13.957h8.512V191.62c0-.79.445-1.516 1.15-1.876.707-.36 1.555-.293 2.197.173l5.636 4.093 5.632-4.093c.642-.467 1.49-.533 2.197-.174.706.36 1.15 1.085 1.15 1.877v51.083c0 1.164-.944 2.107-2.108 2.107zM51.914 209.79h-9.58c-1.164 0-2.108-.944-2.108-2.108v-11.926l-3.524 2.562c-.74.537-1.74.537-2.48 0l-3.524-2.562v11.926c0 1.164-.944 2.107-2.108 2.107H15.864c-1.164 0-2.108-.944-2.108-2.108v-11.927l-3.53 2.564c-.74.534-1.74.535-2.48-.002l-3.522-2.56v44.84h47.69v-30.81zM78.262 84.45h-5.797v28.966h5.797V84.45zm9.75-52.758L78.84 80.24H97.18L88.01 31.69zm-5.534 52.76v28.964h11.066V84.45H82.478zm21.08 0H97.76v28.964h5.797V84.45zm0 33.177H72.464v12.902h31.092V117.63zm5.795 17.115H66.67v37.39h42.683v-37.39zm10.276 41.604H109.22v14.85c0 1.163-.944 2.106-2.108 2.106-1.164 0-2.108-.943-2.108-2.107v-14.85h-15.02v14.85c0 1.163-.943 2.106-2.107 2.106-1.165 0-2.11-.943-2.11-2.107v-14.85H70.754v14.85c0 1.163-.944 2.106-2.108 2.106-1.164 0-2.108-.943-2.108-2.107v-14.85H56.13v44.762h63.5V176.35zm0 48.975h-63.5v15.272h63.5v-15.272zm52.96-29.568l-3.523 2.562c-.74.536-1.74.535-2.48 0l-3.53-2.565v11.928c0 1.164-.943 2.107-2.107 2.107h-12.727c-1.164 0-2.108-.943-2.108-2.107v-11.926l-3.524 2.56c-.738.538-1.74.538-2.478 0l-3.525-2.56v11.926c0 1.164-.944 2.107-2.108 2.107h-10.635v30.807h48.745v-44.84zM63.77 200.31c1.164 0 2.108.943 2.108 2.107v6.32c0 1.163-.944 2.106-2.108 2.106-1.164 0-2.108-.943-2.108-2.107v-6.32c0-1.163.944-2.106 2.108-2.106zm12.252 0c1.164 0 2.108.943 2.108 2.107v6.32c0 1.163-.944 2.106-2.108 2.106-1.164 0-2.108-.943-2.108-2.107v-6.32c0-1.163.944-2.106 2.108-2.106zm12.252 0c1.165 0 2.108.943 2.108 2.107v6.32c0 1.163-.943 2.106-2.108 2.106-1.164 0-2.107-.943-2.107-2.107v-6.32c0-1.163.943-2.106 2.107-2.106zm12.253 0c1.164 0 2.107.943 2.107 2.107v6.32c0 1.163-.943 2.106-2.107 2.106-1.165 0-2.108-.943-2.108-2.107v-6.32c0-1.163.942-2.106 2.107-2.106zm12.252 0c1.163 0 2.107.943 2.107 2.107v6.32c0 1.163-.944 2.106-2.108 2.106-1.165 0-2.11-.943-2.11-2.107v-6.32c0-1.163.945-2.106 2.11-2.106zm-24.77-62.142c8.428 0 15.283 6.85 15.283 15.272 0 8.42-6.855 15.272-15.282 15.272-8.426 0-15.28-6.85-15.28-15.272 0-8.42 6.854-15.272 15.28-15.272zm0 26.33c6.103 0 11.067-4.96 11.067-11.058s-4.964-11.06-11.066-11.06c-6.1 0-11.065 4.962-11.065 11.06 0 6.098 4.964 11.06 11.066 11.06zm0-18.497c1.165 0 2.11.945 2.11 2.108v3.225h3.16c1.165 0 2.11.944 2.11 2.107 0 1.163-.945 2.107-2.11 2.107h-5.27c-1.163 0-2.107-.944-2.107-2.107v-5.332c0-1.163.944-2.107 2.108-2.107zM94.876 8.507l-3.14 1.227 1.717 2.68c.28.356.446.806.446 1.294 0 1.158-.936 2.098-2.093 2.107-.614-.006-1.235-.258-1.656-.77l-2.14-2.608-2.137 2.607c-.415.506-1.02.77-1.63.77-.432 0-.866-.13-1.24-.402-.903-.655-1.138-1.9-.535-2.84l1.82-2.838-3.14-1.226c-1.04-.406-1.584-1.552-1.24-2.613.346-1.062 1.46-1.666 2.54-1.387l3.262.853.197-3.366C85.972.88 86.894.01 88.01.01c1.118 0 2.04.87 2.105 1.984l.197 3.365 3.262-.854c1.082-.278 2.193.326 2.54 1.387.343 1.06-.2 2.208-1.24 2.613z" fill="#204B76" fill-rule="evenodd"/></svg>