<svg xmlns="http://www.w3.org/2000/svg" width="126.939" height="169.25" viewBox="0 0 126.939 169.25">
  <defs>
    <style>
      .cls-1 {
        fill: #e1edf3;
        fill-rule: evenodd;
      }
    </style>
  </defs>
  <path id="Forma_1" data-name="Forma 1" class="cls-1" d="M936.39,4913.69c12.772,0,23.127,14.59,23.127,32.57s-10.355,32.57-23.127,32.57-23.129-14.58-23.129-32.57S923.616,4913.69,936.39,4913.69Zm44.563,105.63,4.791-.99L997.277,4880l-9.091-.83Zm43.027-136.09-6.82-.67-15.12,132.77,4.71-1Zm-12.35-1.67-8.02-.47-11.651,136.23,4.851-.99Zm1.57-12.19a4.988,4.988,0,0,1-3.9-1.09,5.552,5.552,0,0,0-4.26,2.01,7.762,7.762,0,0,0-13.293-4.24,5.525,5.525,0,0,0-9.695-3.06,6.821,6.821,0,0,0-4.825-2.01,6.737,6.737,0,0,0-1.687.24,5.232,5.232,0,0,0,.1-0.97,5.545,5.545,0,0,0-10.019-3.28,9.205,9.205,0,0,0-17-.48c-0.123-.01-0.237-0.03-0.359-0.03a6.649,6.649,0,0,0-5.56,2.99c-0.072,0-.139-0.02-0.211-0.02a6.353,6.353,0,0,0-6.268,5.31,7.131,7.131,0,0,0-12.143-1.35,5.405,5.405,0,0,0-2.562-.66,5.548,5.548,0,0,0-5.266,3.84,9.052,9.052,0,0,0-3.96-.92,9.2,9.2,0,0,0-9.222,9.19,10.571,10.571,0,0,0,2.612,7.04l64.524-6.75,48.494,5.52v-6.57h-0.05A5.514,5.514,0,0,0,1013.2,4869.37Zm-105.054,14.81-11.128,1.15L910.2,5015.95l9.665,0.56-4.492-47.03a44.888,44.888,0,0,1-6.168-23.22,47.087,47.087,0,0,1,2.831-16.19Zm53.21,135.43,6.286,0.72,6.422-1.01,5.275-141.18-5.9-.68-9.569.98-1.1,62.19a49.467,49.467,0,0,1,.352,5.63,48.907,48.907,0,0,1-.588,7.57Zm-9.719-139.91-11,1.13,0.77,29.31a24.249,24.249,0,0,1,10.672,6.06Zm-7.3,138.69,9.017,0.58-0.553-43.37a25.308,25.308,0,0,1-9.508,6.2Zm-13.674-136.53-9.339.96,1.451,31.6a23.066,23.066,0,0,1,9.04-4.38Zm-2.948,135.29,8.674,0.6-1.59-34.83a21.5,21.5,0,0,1-9.008-2.77Z" transform="translate(-897.031 -4851.06)"/>
</svg>
