<?xml version="1.0" encoding="UTF-8" standalone="no"?>
<svg width="164px" height="164px" viewBox="0 0 164 164" version="1.1" xmlns="http://www.w3.org/2000/svg" xmlns:xlink="http://www.w3.org/1999/xlink" xmlns:sketch="http://www.bohemiancoding.com/sketch/ns">
    <!-- Generator: Sketch 3.4.4 (17249) - http://www.bohemiancoding.com/sketch -->
    <title>badge</title>
    <desc>Created with Sketch.</desc>
    <defs></defs>
    <g id="Page-1" stroke="none" stroke-width="1" fill="none" fill-rule="evenodd" sketch:type="MSPage">
        <g id="Desktop" sketch:type="MSArtboardGroup" transform="translate(-69.000000, -55.000000)" fill="#FC571F">
            <g id="badge" sketch:type="MSLayerGroup" transform="translate(68.000000, 55.000000)">
                <path d="M156.38,64.82 C155.472801,63.094089 154.960453,61.1881543 154.88,59.24 L154.22,43.85 C154.11734,41.6715562 152.960839,39.6793886 151.12,38.51 L138.11,30.22 C136.461362,29.179645 135.064388,27.7860863 134.02,26.14 L125.74,13.13 C124.571335,11.2884079 122.578739,10.1316572 120.4,10.03 L104.98,9.36 C103.031846,9.27954662 101.125911,8.7671986 99.4,7.86 L85.69,0.76 C83.7654942,-0.240045137 81.4745058,-0.240045137 79.55,0.76 L65.85,7.86 C64.1205772,8.76737774 62.2113555,9.27969127 60.26,9.36 L44.85,10.03 C42.6705211,10.1291413 40.6768466,11.2865179 39.51,13.13 L31.22,26.14 C30.1765376,27.7834506 28.7834506,29.1765376 27.14,30.22 L14.13,38.51 C12.2865179,39.6768466 11.1291413,41.6705211 11.03,43.85 L10.36,59.26 C10.2782461,61.2098968 9.76961875,63.1181029 8.87,64.85 L1.76,78.55 C0.74006209,80.4731374 0.74006209,82.7768626 1.76,84.7 L8.87,98.4 C9.76939755,100.128406 10.2780558,102.033314 10.36,103.98 L11.03,119.4 C11.1291413,121.579479 12.2865179,123.573153 14.13,124.74 L15.09,125.36 L18.51,127.52 L21.93,129.68 L27.14,133 C28.7834506,134.043462 30.1765376,135.436549 31.22,137.08 L39.51,150.09 C40.6737918,151.936653 42.6692822,153.095084 44.85,153.19 L60.26,153.86 C62.2113555,153.940309 64.1205772,154.452622 65.85,155.36 L66.67,155.78 L79.52,162.46 C81.4480591,163.459958 83.7419409,163.459958 85.67,162.46 L94.72,157.76 L99.37,155.36 C99.7132169,155.171564 100.071038,155.011046 100.44,154.88 C101.878501,154.287967 103.406655,153.943118 104.96,153.86 L105.3,153.83 L120.37,153.17 C122.548444,153.06734 124.540611,151.910839 125.71,150.07 L133.99,137.06 C135.03678,135.413131 136.433131,134.01678 138.08,132.97 L141.02,131.1 L151.06,124.72 C152.905413,123.550307 154.062889,121.552728 154.16,119.37 L154.83,103.96 C154.910309,102.008645 155.422622,100.099423 156.33,98.37 L163.43,84.67 C164.449938,82.7468626 164.449938,80.4431374 163.43,78.52 L156.38,64.82 Z" id="Forma_1" sketch:type="MSShapeGroup"></path>
            </g>
        </g>
    </g>
</svg>