<svg xmlns="http://www.w3.org/2000/svg" width="56" height="37" viewBox="0 0 56 37">
  <defs>
    <style>
      .cls-1 {
        fill: #c4c4c4;
        fill-rule: evenodd;
      }
    </style>
  </defs>
  <path id="Forma_1" data-name="Forma 1" class="cls-1" d="M1381.57,5461.01h-53.13a1.462,1.462,0,0,0-1.45,1.47v34.04a1.462,1.462,0,0,0,1.45,1.47h53.13a1.453,1.453,0,0,0,1.44-1.47v-34.04A1.453,1.453,0,0,0,1381.57,5461.01Zm-50.24,11.17h5.98a1.561,1.561,0,0,1,1.68,1.18l1.3,6.36c-1.28-3.33-4.36-6.1-9.01-7.25Zm7.24,14.53-3.46-12.02a15.311,15.311,0,0,1,5.34,5.98l0.41,1.48,3.77-9.83h4.09l-6.07,14.39h-4.08Zm13.15,0.01h-3.85l2.41-14.41h3.86Zm6.71,0.22a12.061,12.061,0,0,1-4.29-.77l0.54-3.23,0.5,0.23a7.9,7.9,0,0,0,3.63.76c1.1,0,2.29-.44,2.3-1.41,0.01-.63-0.49-1.08-2-1.79-1.46-.69-3.4-1.84-3.37-3.91,0.02-2.8,2.7-4.76,6.51-4.76a9.586,9.586,0,0,1,3.46.61l-0.52,3.12-0.35-.17a7.018,7.018,0,0,0-2.89-.55c-1.51,0-2.21.64-2.21,1.24,0,0.68.82,1.12,2.17,1.79,2.22,1.03,3.25,2.27,3.24,3.91C1365.12,5485.01,1362.49,5486.94,1358.43,5486.94Zm16.71-.21s-0.35-1.66-.46-2.16c-0.57,0-4.5-.01-4.94-0.01-0.15.39-.82,2.17-0.82,2.17h-4.04l5.72-13.21a1.922,1.922,0,0,1,2.02-1.2h2.98l3.12,14.41h-3.58Zm-2.25-10.52c-0.19.54-.53,1.41-0.51,1.38,0,0-1.22,3.2-1.53,4.02h3.2c-0.16-.72-0.9-4.16-0.9-4.16Z" transform="translate(-1327 -5461)"/>
</svg>
